M48
; DRILL file {KiCad 9.0.0} date 2025-08-07T18:40:54+0300
; FORMAT={-:-/ absolute / metric / decimal}
; #@! TF.CreationDate,2025-08-07T18:40:54+03:00
; #@! TF.GenerationSoftware,Kicad,Pcbnew,9.0.0
; #@! TF.FileFunction,NonPlated,1,2,NPTH
FMAT,2
METRIC
; #@! TA.AperFunction,NonPlated,NPTH,ComponentDrill
T1C0.700
; #@! TA.AperFunction,NonPlated,NPTH,ComponentDrill
T2C1.700
; #@! TA.AperFunction,NonPlated,NPTH,ComponentDrill
T3C1.702
; #@! TA.AperFunction,NonPlated,NPTH,ComponentDrill
T4C3.000
; #@! TA.AperFunction,NonPlated,NPTH,ComponentDrill
T5C5.000
%
G90
G05
T1
X152.95Y-135.05
X155.95Y-135.05
T2
X33.006Y-81.281
X39.678Y-63.437
X42.554Y-84.756
X46.349Y-45.593
X49.225Y-66.912
X55.42Y-75.729
X55.896Y-49.068
X62.091Y-57.885
X64.967Y-79.203
X68.763Y-40.041
X71.639Y-61.36
X77.133Y-72.05
X78.31Y-43.516
X83.805Y-54.206
X86.681Y-75.525
X90.476Y-36.363
X92.508Y-85.325
X92.99Y-111.234
X93.352Y-57.681
X99.18Y-67.481
X100.024Y-39.837
X102.055Y-88.8
X102.537Y-114.709
X105.851Y-49.638
X108.583Y-96.726
X108.727Y-70.956
X114.066Y-120.322
X115.255Y-78.883
X115.398Y-53.112
X118.13Y-100.201
X121.926Y-61.039
X122.682Y-125.706
X124.802Y-82.358
X131.473Y-64.514
X132.792Y-133.593
X140.1Y-140.651
X168.864Y-140.714
X176.049Y-133.53
X177.46Y-64.597
X184.132Y-82.441
X186.268Y-125.781
X186.946Y-60.956
X190.803Y-100.284
X193.535Y-53.196
X193.617Y-78.8
X194.789Y-120.247
X200.207Y-71.039
X200.288Y-96.643
X203.021Y-49.554
X206.397Y-114.792
X206.878Y-88.883
X208.91Y-39.921
X209.692Y-67.398
X215.582Y-57.764
X215.882Y-111.151
X216.363Y-85.242
X218.395Y-36.279
X222.253Y-75.608
X225.067Y-54.123
X230.624Y-43.599
X231.738Y-71.967
X237.295Y-61.443
X240.109Y-39.958
X243.966Y-79.287
X246.78Y-57.802
X253.037Y-49.151
X253.452Y-75.645
X259.709Y-66.995
X262.522Y-45.51
X266.38Y-84.839
X269.194Y-63.354
X275.865Y-81.198
T3
X32.612Y-81.137
X39.283Y-63.293
X42.948Y-84.899
X45.954Y-45.45
X49.62Y-67.056
X55.025Y-75.585
X56.291Y-49.212
X61.697Y-57.741
X65.362Y-79.347
X68.368Y-39.898
X72.033Y-61.504
X76.739Y-71.906
X78.705Y-43.66
X83.41Y-54.062
X87.075Y-75.668
X90.082Y-36.219
X92.113Y-85.181
X92.595Y-111.091
X93.747Y-57.825
X98.785Y-67.337
X100.418Y-39.981
X102.45Y-88.943
X102.932Y-114.853
X105.456Y-49.494
X108.188Y-96.583
X109.122Y-71.1
X113.71Y-120.1
X114.86Y-78.739
X115.793Y-53.256
X118.525Y-100.345
X121.531Y-60.895
X123.038Y-125.929
X125.197Y-82.501
X131.868Y-64.658
X132.49Y-133.302
X140.403Y-140.943
X168.567Y-141.011
X176.345Y-133.233
X177.068Y-64.748
X183.74Y-82.591
X185.916Y-126.01
X187.338Y-60.806
X190.411Y-100.435
X193.143Y-53.346
X194.009Y-78.649
X195.141Y-120.019
X199.815Y-71.19
X200.681Y-96.493
X203.413Y-49.404
X206.004Y-114.943
X206.486Y-89.033
X208.518Y-40.071
X210.084Y-67.248
X215.189Y-57.915
X216.274Y-111.001
X216.756Y-85.091
X218.787Y-36.129
X221.861Y-75.758
X225.459Y-53.973
X230.231Y-43.75
X232.13Y-71.816
X236.903Y-61.593
X240.501Y-39.808
X243.574Y-79.437
X247.172Y-57.651
X252.645Y-49.302
X253.844Y-75.495
X259.317Y-67.146
X262.915Y-45.36
X265.988Y-84.989
X269.586Y-63.203
X276.257Y-81.047
T4
X31.782Y-84.879
X35.068Y-79.328
X35.762Y-88.562
X38.453Y-67.035
X41.74Y-61.485
X41.904Y-79.113
X42.433Y-70.719
X45.125Y-49.192
X48.411Y-43.641
X48.576Y-61.27
X49.105Y-52.875
X54.196Y-79.327
X55.247Y-43.426
X57.482Y-73.776
X58.176Y-83.01
X60.867Y-61.483
X64.154Y-55.932
X64.318Y-73.561
X64.847Y-65.167
X67.538Y-43.64
X70.825Y-38.089
X70.989Y-55.717
X71.519Y-47.323
X75.909Y-75.648
X77.661Y-37.874
X79.196Y-70.097
X79.889Y-79.331
X82.58Y-57.804
X85.867Y-52.254
X86.031Y-69.882
X86.561Y-61.488
X89.252Y-39.961
X91.284Y-88.923
X91.765Y-114.832
X92.539Y-34.41
X92.703Y-52.039
X93.232Y-43.644
X94.57Y-83.372
X95.052Y-109.282
X95.264Y-92.606
X95.746Y-118.516
X97.955Y-71.079
X99.374Y-34.195
X101.242Y-65.529
X101.406Y-83.157
X101.888Y-109.067
X101.935Y-74.763
X104.626Y-53.236
X107.359Y-100.325
X107.913Y-47.685
X108.077Y-65.314
X108.607Y-56.919
X110.645Y-94.774
X111.339Y-104.008
X112.12Y-123.587
X114.03Y-82.481
X114.749Y-47.47
X115.248Y-128.018
X116.489Y-118.841
X117.317Y-76.93
X117.481Y-94.559
X118.01Y-86.164
X120.702Y-64.637
X123.22Y-120.052
X123.988Y-59.087
X124.152Y-76.715
X124.682Y-68.321
X130.21Y-136.382
X130.824Y-58.872
X132.348Y-141.366
X135.47Y-132.649
X141.802Y-135.232
X167.966Y-138.02
X170.66Y-131.734
X171.608Y-143.345
X176.628Y-141.294
X177.736Y-61.771
X178.897Y-68.116
X182.754Y-57.124
X184.317Y-68.285
X184.407Y-79.614
X185.568Y-85.96
X185.95Y-122.959
X188.405Y-128.924
X189.425Y-74.967
X189.892Y-117.37
X190.989Y-86.128
X191.079Y-97.458
X192.24Y-103.803
X193.742Y-127.962
X193.811Y-50.369
X194.972Y-56.714
X196.097Y-92.811
X197.66Y-103.972
X198.829Y-45.722
X200.392Y-56.883
X200.482Y-68.213
X201.643Y-74.558
X205.5Y-63.566
X206.672Y-111.966
X207.064Y-74.727
X207.154Y-86.056
X207.833Y-118.311
X208.315Y-92.402
X209.186Y-37.094
X210.347Y-43.439
X211.69Y-107.319
X212.172Y-81.409
X213.253Y-118.48
X213.735Y-92.57
X214.203Y-32.447
X215.767Y-43.608
X215.857Y-54.938
X217.018Y-61.283
X220.875Y-50.291
X222.438Y-61.452
X222.528Y-72.781
X223.689Y-79.127
X227.546Y-68.134
X229.11Y-79.295
X230.899Y-40.773
X232.06Y-47.118
X235.917Y-36.126
X237.48Y-47.287
X237.57Y-58.616
X238.731Y-64.962
X242.588Y-53.97
X244.152Y-65.131
X244.242Y-76.46
X245.403Y-82.805
X249.26Y-71.813
X250.823Y-82.974
X253.313Y-46.325
X254.474Y-52.67
X258.331Y-41.678
X259.894Y-52.839
X259.984Y-64.169
X261.145Y-70.514
X265.002Y-59.522
X266.566Y-70.683
X266.656Y-82.012
X267.817Y-88.358
X271.674Y-77.365
X273.237Y-88.526
T5
X37.78Y-83.018
X44.451Y-65.174
X51.123Y-47.331
X60.194Y-77.466
X66.865Y-59.622
X73.537Y-41.779
X81.907Y-73.787
X88.578Y-55.944
X95.25Y-38.1
X97.282Y-87.062
X97.763Y-112.972
X103.953Y-69.219
X110.625Y-51.375
X113.357Y-98.464
X118.374Y-123.014
X120.028Y-80.62
X126.7Y-62.777
X136.446Y-137.122
X172.456Y-137.122
X182.203Y-62.777
X188.874Y-80.62
X190.529Y-123.014
X195.546Y-98.464
X198.278Y-51.375
X204.95Y-69.219
X211.139Y-112.972
X211.621Y-87.062
X213.653Y-38.1
X220.324Y-55.944
X226.996Y-73.787
X235.366Y-41.779
X242.037Y-59.622
X248.709Y-77.466
X257.78Y-47.331
X264.451Y-65.174
X271.123Y-83.018
M30
