%TF.GenerationSoftware,KiCad,Pcbnew,9.0.0*%
%TF.CreationDate,2025-08-07T18:41:01+03:00*%
%TF.ProjectId,keyatura,6b657961-7475-4726-912e-6b696361645f,rev?*%
%TF.SameCoordinates,Original*%
%TF.FileFunction,Legend,Top*%
%TF.FilePolarity,Positive*%
%FSLAX46Y46*%
G04 Gerber Fmt 4.6, Leading zero omitted, Abs format (unit mm)*
G04 Created by KiCad (PCBNEW 9.0.0) date 2025-08-07 18:41:01*
%MOMM*%
%LPD*%
G01*
G04 APERTURE LIST*
%ADD10C,0.150000*%
%ADD11C,0.100000*%
G04 APERTURE END LIST*
D10*
G36*
X237529714Y-92215507D02*
G01*
X237533561Y-92216448D01*
X237598895Y-92152545D01*
X237644948Y-92115062D01*
X237690648Y-92086900D01*
X237736759Y-92066678D01*
X237785641Y-92054232D01*
X237840537Y-92049923D01*
X237907072Y-92056023D01*
X237965017Y-92073560D01*
X238016038Y-92102154D01*
X238059707Y-92141227D01*
X238097347Y-92192692D01*
X238128878Y-92258848D01*
X238150042Y-92329549D01*
X238163721Y-92413999D01*
X238168629Y-92514534D01*
X238162824Y-92617960D01*
X238146582Y-92705131D01*
X238121270Y-92778511D01*
X238083930Y-92845589D01*
X238037546Y-92899318D01*
X237981588Y-92941360D01*
X237917991Y-92971347D01*
X237845753Y-92989927D01*
X237763088Y-92996413D01*
X237693498Y-92993104D01*
X237629646Y-92983504D01*
X237566966Y-92966314D01*
X237498170Y-92938368D01*
X237431235Y-92996413D01*
X237365241Y-92980000D01*
X237365241Y-92382288D01*
X237529714Y-92382288D01*
X237529714Y-92636350D01*
X237536382Y-92753892D01*
X237545816Y-92795183D01*
X237558864Y-92826297D01*
X237577789Y-92853316D01*
X237604770Y-92879042D01*
X237636735Y-92899288D01*
X237672217Y-92912124D01*
X237755480Y-92921186D01*
X237810534Y-92915040D01*
X237856714Y-92897491D01*
X237895988Y-92868692D01*
X237929442Y-92827238D01*
X237959977Y-92761591D01*
X237980846Y-92670175D01*
X237988768Y-92545394D01*
X237981505Y-92418912D01*
X237962430Y-92326393D01*
X237934742Y-92260216D01*
X237903632Y-92217783D01*
X237866907Y-92188626D01*
X237823595Y-92170983D01*
X237771722Y-92164815D01*
X237719661Y-92169295D01*
X237678885Y-92181570D01*
X237641827Y-92202269D01*
X237602889Y-92233715D01*
X237569092Y-92270205D01*
X237547409Y-92303642D01*
X237534279Y-92339948D01*
X237529714Y-92382288D01*
X237365241Y-92382288D01*
X237365241Y-91942126D01*
X237363788Y-91814155D01*
X237356179Y-91752520D01*
X237338911Y-91712941D01*
X237309334Y-91690031D01*
X237241886Y-91672848D01*
X237241886Y-91623182D01*
X237473294Y-91612240D01*
X237529714Y-91612240D01*
X237529714Y-92215507D01*
G37*
G36*
X238736933Y-93059501D02*
G01*
X238682467Y-93172025D01*
X238634522Y-93252440D01*
X238580688Y-93318901D01*
X238525016Y-93363827D01*
X238461009Y-93391544D01*
X238383025Y-93401270D01*
X238329016Y-93398329D01*
X238264457Y-93388703D01*
X238264457Y-93197473D01*
X238349601Y-93197473D01*
X238363611Y-93233428D01*
X238378238Y-93252953D01*
X238398231Y-93264337D01*
X238427990Y-93268597D01*
X238455576Y-93265743D01*
X238479110Y-93257569D01*
X238500922Y-93243502D01*
X238525956Y-93219699D01*
X238583402Y-93137292D01*
X238657517Y-92996413D01*
X238389693Y-92275347D01*
X238348062Y-92177723D01*
X238331004Y-92152422D01*
X238314124Y-92135579D01*
X238293047Y-92123425D01*
X238258730Y-92112583D01*
X238258730Y-92066336D01*
X238647943Y-92066336D01*
X238647943Y-92113267D01*
X238584770Y-92133869D01*
X238558013Y-92159685D01*
X238549464Y-92200291D01*
X238555619Y-92253975D01*
X238575281Y-92318944D01*
X238745482Y-92798429D01*
X238936797Y-92338606D01*
X238962101Y-92268251D01*
X238971162Y-92208412D01*
X238965099Y-92171059D01*
X238948679Y-92146179D01*
X238921148Y-92128614D01*
X238870803Y-92112583D01*
X238870803Y-92066336D01*
X239228472Y-92066336D01*
X239228472Y-92112583D01*
X239194007Y-92122928D01*
X239171111Y-92136092D01*
X239152188Y-92154967D01*
X239130933Y-92185844D01*
X239083062Y-92281074D01*
X238736933Y-93059501D01*
G37*
G36*
X240201780Y-92054013D02*
G01*
X240270021Y-92066336D01*
X240608542Y-92066336D01*
X240608542Y-92163447D01*
X240431673Y-92156693D01*
X240423039Y-92167123D01*
X240448838Y-92200507D01*
X240469885Y-92247051D01*
X240482736Y-92298977D01*
X240487153Y-92356215D01*
X240480539Y-92432210D01*
X240461891Y-92495702D01*
X240432132Y-92549078D01*
X240390982Y-92594035D01*
X240341113Y-92628882D01*
X240280517Y-92654963D01*
X240207024Y-92671708D01*
X240117943Y-92677725D01*
X240041730Y-92672395D01*
X239981167Y-92657807D01*
X239937477Y-92698497D01*
X239915205Y-92734238D01*
X239908505Y-92766971D01*
X239912381Y-92799674D01*
X239922353Y-92820655D01*
X239939721Y-92835616D01*
X239968259Y-92846557D01*
X240004436Y-92851921D01*
X240065370Y-92854166D01*
X240294897Y-92854166D01*
X240390720Y-92862769D01*
X240460311Y-92885624D01*
X240516266Y-92923426D01*
X240551694Y-92969998D01*
X240571854Y-93026008D01*
X240578964Y-93093438D01*
X240573119Y-93151459D01*
X240555952Y-93204245D01*
X240527245Y-93253039D01*
X240488999Y-93295176D01*
X240439884Y-93331571D01*
X240378074Y-93362203D01*
X240311936Y-93383300D01*
X240236556Y-93396598D01*
X240150513Y-93401270D01*
X240055994Y-93398269D01*
X239973986Y-93389815D01*
X239897700Y-93373874D01*
X239837210Y-93351261D01*
X239785962Y-93319122D01*
X239749246Y-93279795D01*
X239726393Y-93231391D01*
X239718215Y-93168836D01*
X239719867Y-93159347D01*
X239871233Y-93159347D01*
X239879207Y-93212617D01*
X239901732Y-93253659D01*
X239939621Y-93285523D01*
X239987249Y-93306220D01*
X240054877Y-93320555D01*
X240148547Y-93326043D01*
X240231086Y-93319909D01*
X240296265Y-93303133D01*
X240351871Y-93274446D01*
X240390469Y-93237395D01*
X240414771Y-93191360D01*
X240423039Y-93137377D01*
X240416286Y-93085488D01*
X240406699Y-93061704D01*
X240390982Y-93040266D01*
X240369372Y-93022868D01*
X240337896Y-93008295D01*
X240300753Y-92999726D01*
X240248051Y-92996413D01*
X240105548Y-92996413D01*
X239968772Y-92990685D01*
X239924890Y-93029224D01*
X239895597Y-93067365D01*
X239877453Y-93110137D01*
X239871233Y-93159347D01*
X239719867Y-93159347D01*
X239728120Y-93111942D01*
X239758393Y-93059757D01*
X239805019Y-93015117D01*
X239872174Y-92973503D01*
X239831550Y-92950724D01*
X239801392Y-92919989D01*
X239782172Y-92881953D01*
X239775576Y-92836812D01*
X239783219Y-92784583D01*
X239806179Y-92736880D01*
X239844491Y-92692148D01*
X239914232Y-92633187D01*
X239853450Y-92586033D01*
X239809513Y-92525048D01*
X239782924Y-92453204D01*
X239773695Y-92369551D01*
X239774910Y-92356301D01*
X239944836Y-92356301D01*
X239951041Y-92433598D01*
X239967862Y-92493004D01*
X239993562Y-92538384D01*
X240030250Y-92573573D01*
X240076149Y-92594922D01*
X240134185Y-92602498D01*
X240180570Y-92597637D01*
X240217362Y-92584118D01*
X240248623Y-92562286D01*
X240273355Y-92533682D01*
X240291800Y-92499578D01*
X240304899Y-92459567D01*
X240314986Y-92371346D01*
X240308502Y-92292349D01*
X240291050Y-92232690D01*
X240261902Y-92183336D01*
X240225996Y-92151137D01*
X240182341Y-92131802D01*
X240131364Y-92125150D01*
X240073606Y-92132268D01*
X240028353Y-92152172D01*
X239992622Y-92184562D01*
X239967441Y-92226819D01*
X239950942Y-92282759D01*
X239944836Y-92356301D01*
X239774910Y-92356301D01*
X239780859Y-92291453D01*
X239800879Y-92227817D01*
X239833685Y-92172419D01*
X239876448Y-92128227D01*
X239928481Y-92094175D01*
X239990741Y-92069413D01*
X240058435Y-92054923D01*
X240133245Y-92049923D01*
X240201780Y-92054013D01*
G37*
G36*
X241170154Y-92054013D02*
G01*
X241238395Y-92066336D01*
X241576916Y-92066336D01*
X241576916Y-92163447D01*
X241400047Y-92156693D01*
X241391413Y-92167123D01*
X241417212Y-92200507D01*
X241438259Y-92247051D01*
X241451110Y-92298977D01*
X241455527Y-92356215D01*
X241448913Y-92432210D01*
X241430265Y-92495702D01*
X241400506Y-92549078D01*
X241359356Y-92594035D01*
X241309487Y-92628882D01*
X241248891Y-92654963D01*
X241175398Y-92671708D01*
X241086317Y-92677725D01*
X241010104Y-92672395D01*
X240949541Y-92657807D01*
X240905851Y-92698497D01*
X240883579Y-92734238D01*
X240876879Y-92766971D01*
X240880755Y-92799674D01*
X240890728Y-92820655D01*
X240908095Y-92835616D01*
X240936633Y-92846557D01*
X240972810Y-92851921D01*
X241033744Y-92854166D01*
X241263271Y-92854166D01*
X241359094Y-92862769D01*
X241428685Y-92885624D01*
X241484640Y-92923426D01*
X241520068Y-92969998D01*
X241540228Y-93026008D01*
X241547338Y-93093438D01*
X241541493Y-93151459D01*
X241524326Y-93204245D01*
X241495619Y-93253039D01*
X241457373Y-93295176D01*
X241408258Y-93331571D01*
X241346448Y-93362203D01*
X241280310Y-93383300D01*
X241204930Y-93396598D01*
X241118887Y-93401270D01*
X241024368Y-93398269D01*
X240942360Y-93389815D01*
X240866074Y-93373874D01*
X240805584Y-93351261D01*
X240754336Y-93319122D01*
X240717620Y-93279795D01*
X240694767Y-93231391D01*
X240686589Y-93168836D01*
X240688241Y-93159347D01*
X240839608Y-93159347D01*
X240847581Y-93212617D01*
X240870106Y-93253659D01*
X240907996Y-93285523D01*
X240955623Y-93306220D01*
X241023251Y-93320555D01*
X241116921Y-93326043D01*
X241199460Y-93319909D01*
X241264639Y-93303133D01*
X241320245Y-93274446D01*
X241358843Y-93237395D01*
X241383145Y-93191360D01*
X241391413Y-93137377D01*
X241384660Y-93085488D01*
X241375073Y-93061704D01*
X241359356Y-93040266D01*
X241337746Y-93022868D01*
X241306270Y-93008295D01*
X241269127Y-92999726D01*
X241216425Y-92996413D01*
X241073922Y-92996413D01*
X240937146Y-92990685D01*
X240893264Y-93029224D01*
X240863971Y-93067365D01*
X240845827Y-93110137D01*
X240839608Y-93159347D01*
X240688241Y-93159347D01*
X240696494Y-93111942D01*
X240726767Y-93059757D01*
X240773393Y-93015117D01*
X240840548Y-92973503D01*
X240799924Y-92950724D01*
X240769766Y-92919989D01*
X240750546Y-92881953D01*
X240743950Y-92836812D01*
X240751594Y-92784583D01*
X240774553Y-92736880D01*
X240812865Y-92692148D01*
X240882606Y-92633187D01*
X240821825Y-92586033D01*
X240777887Y-92525048D01*
X240751298Y-92453204D01*
X240742069Y-92369551D01*
X240743284Y-92356301D01*
X240913210Y-92356301D01*
X240919415Y-92433598D01*
X240936236Y-92493004D01*
X240961937Y-92538384D01*
X240998624Y-92573573D01*
X241044523Y-92594922D01*
X241102559Y-92602498D01*
X241148944Y-92597637D01*
X241185736Y-92584118D01*
X241216997Y-92562286D01*
X241241729Y-92533682D01*
X241260174Y-92499578D01*
X241273273Y-92459567D01*
X241283360Y-92371346D01*
X241276876Y-92292349D01*
X241259424Y-92232690D01*
X241230276Y-92183336D01*
X241194370Y-92151137D01*
X241150715Y-92131802D01*
X241099738Y-92125150D01*
X241041980Y-92132268D01*
X240996727Y-92152172D01*
X240960996Y-92184562D01*
X240935815Y-92226819D01*
X240919316Y-92282759D01*
X240913210Y-92356301D01*
X240743284Y-92356301D01*
X240749233Y-92291453D01*
X240769253Y-92227817D01*
X240802060Y-92172419D01*
X240844822Y-92128227D01*
X240896855Y-92094175D01*
X240959116Y-92069413D01*
X241026809Y-92054923D01*
X241101619Y-92049923D01*
X241170154Y-92054013D01*
G37*
G36*
X241945698Y-92223543D02*
G01*
X241959034Y-92226449D01*
X242012028Y-92167294D01*
X242056572Y-92126346D01*
X242103553Y-92093798D01*
X242153683Y-92069841D01*
X242208054Y-92055113D01*
X242271823Y-92049923D01*
X242372183Y-92055650D01*
X242372183Y-92274235D01*
X242264129Y-92274235D01*
X242238928Y-92227278D01*
X242215403Y-92199180D01*
X242185966Y-92182007D01*
X242144621Y-92175757D01*
X242110876Y-92180611D01*
X242076233Y-92195846D01*
X242043843Y-92219628D01*
X242010666Y-92254232D01*
X241983079Y-92292826D01*
X241967155Y-92325954D01*
X241958444Y-92361265D01*
X241955272Y-92405455D01*
X241955272Y-92740642D01*
X241958546Y-92821101D01*
X241965787Y-92860919D01*
X241980181Y-92890065D01*
X242000665Y-92909218D01*
X242028529Y-92921980D01*
X242073840Y-92933154D01*
X242073840Y-92980000D01*
X241688388Y-92980000D01*
X241688388Y-92933154D01*
X241740534Y-92913065D01*
X241767804Y-92889129D01*
X241777229Y-92871359D01*
X241784986Y-92842283D01*
X241790714Y-92743719D01*
X241790714Y-92326552D01*
X241788833Y-92228073D01*
X241784184Y-92192899D01*
X241775412Y-92168234D01*
X241761018Y-92148688D01*
X241740534Y-92134809D01*
X241674112Y-92116088D01*
X241674112Y-92066336D01*
X241897826Y-92055394D01*
X241956213Y-92055394D01*
X241945698Y-92223543D01*
G37*
G36*
X243001403Y-92058314D02*
G01*
X243084733Y-92081744D01*
X243153277Y-92118673D01*
X243209594Y-92169089D01*
X243253337Y-92230998D01*
X243286129Y-92306655D01*
X243307229Y-92398887D01*
X243314826Y-92511200D01*
X243308407Y-92616134D01*
X243290413Y-92704603D01*
X243262252Y-92779195D01*
X243221488Y-92846915D01*
X243171959Y-92900759D01*
X243113081Y-92942386D01*
X243046698Y-92971748D01*
X242971104Y-92990021D01*
X242884494Y-92996413D01*
X242785878Y-92988217D01*
X242704418Y-92965260D01*
X242636867Y-92928945D01*
X242580851Y-92879213D01*
X242537651Y-92818301D01*
X242504999Y-92742439D01*
X242483814Y-92648407D01*
X242476132Y-92532229D01*
X242477420Y-92512140D01*
X242656848Y-92512140D01*
X242665064Y-92643088D01*
X242686986Y-92741887D01*
X242719508Y-92815355D01*
X242755293Y-92862772D01*
X242796323Y-92895109D01*
X242843535Y-92914480D01*
X242898856Y-92921186D01*
X242959202Y-92913094D01*
X243007849Y-92890069D01*
X243048226Y-92854023D01*
X243081024Y-92806294D01*
X243104859Y-92750644D01*
X243121629Y-92684136D01*
X243130937Y-92613711D01*
X243134110Y-92538982D01*
X243125568Y-92404585D01*
X243102994Y-92305266D01*
X243078152Y-92245573D01*
X243049818Y-92201014D01*
X243018364Y-92168747D01*
X242980799Y-92144437D01*
X242940343Y-92130032D01*
X242895949Y-92125150D01*
X242840788Y-92131603D01*
X242793947Y-92150169D01*
X242753508Y-92180959D01*
X242718482Y-92225765D01*
X242686392Y-92295697D01*
X242664882Y-92389064D01*
X242656848Y-92512140D01*
X242477420Y-92512140D01*
X242482812Y-92428076D01*
X242501588Y-92339937D01*
X242531099Y-92265259D01*
X242573257Y-92197459D01*
X242623301Y-92143986D01*
X242681724Y-92103094D01*
X242747344Y-92073938D01*
X242819583Y-92056080D01*
X242899796Y-92049923D01*
X243001403Y-92058314D01*
G37*
G36*
X244220454Y-92088562D02*
G01*
X244220454Y-92290648D01*
X244098979Y-92290648D01*
X244079735Y-92231434D01*
X244058802Y-92190887D01*
X244032214Y-92159132D01*
X244003322Y-92139767D01*
X243969459Y-92129091D01*
X243924932Y-92125150D01*
X243881863Y-92129980D01*
X243842690Y-92144233D01*
X243806364Y-92168319D01*
X243775919Y-92199999D01*
X243748542Y-92242948D01*
X243724555Y-92299624D01*
X243702618Y-92393242D01*
X243694464Y-92515303D01*
X243697459Y-92594988D01*
X243705919Y-92664389D01*
X243721971Y-92728661D01*
X243745072Y-92779965D01*
X243777567Y-92822763D01*
X243818760Y-92854678D01*
X243868393Y-92874386D01*
X243932540Y-92881521D01*
X243996696Y-92875085D01*
X244055468Y-92856132D01*
X244110751Y-92823059D01*
X244173608Y-92766629D01*
X244228062Y-92829546D01*
X244141978Y-92911099D01*
X244062135Y-92959141D01*
X243978018Y-92987437D01*
X243887661Y-92996413D01*
X243798982Y-92988211D01*
X243725152Y-92965067D01*
X243663224Y-92927980D01*
X243611202Y-92876306D01*
X243571897Y-92814630D01*
X243542042Y-92738373D01*
X243522651Y-92644510D01*
X243515630Y-92529408D01*
X243521898Y-92436206D01*
X243539961Y-92352957D01*
X243569143Y-92278168D01*
X243610337Y-92209761D01*
X243660227Y-92153917D01*
X243719341Y-92109249D01*
X243785964Y-92076686D01*
X243859693Y-92056788D01*
X243942114Y-92049923D01*
X244019075Y-92052327D01*
X244087012Y-92059155D01*
X244220454Y-92088562D01*
G37*
G36*
X244884909Y-92058180D02*
G01*
X244957249Y-92080868D01*
X245018998Y-92117954D01*
X245065729Y-92165327D01*
X245100938Y-92223960D01*
X245128903Y-92300565D01*
X245145740Y-92388517D01*
X245154292Y-92513593D01*
X244551793Y-92513593D01*
X244551793Y-92530348D01*
X244558626Y-92635494D01*
X244577097Y-92717133D01*
X244598173Y-92765859D01*
X244625848Y-92805707D01*
X244660274Y-92837923D01*
X244700965Y-92861396D01*
X244750449Y-92876219D01*
X244810899Y-92881521D01*
X244886498Y-92873916D01*
X244951949Y-92852028D01*
X245012278Y-92814858D01*
X245076842Y-92755687D01*
X245135143Y-92818604D01*
X245073894Y-92877968D01*
X245022730Y-92918963D01*
X244969286Y-92951262D01*
X244910403Y-92975896D01*
X244847192Y-92991115D01*
X244775593Y-92996413D01*
X244677993Y-92988125D01*
X244597992Y-92964968D01*
X244532181Y-92928391D01*
X244478105Y-92878272D01*
X244436862Y-92817218D01*
X244405535Y-92741011D01*
X244385149Y-92646395D01*
X244377746Y-92529408D01*
X244383771Y-92435457D01*
X244384302Y-92432896D01*
X244556581Y-92432896D01*
X244974517Y-92432896D01*
X244964418Y-92333291D01*
X244948615Y-92262096D01*
X244922565Y-92201843D01*
X244888433Y-92160455D01*
X244843360Y-92134427D01*
X244783201Y-92125150D01*
X244721493Y-92134079D01*
X244669929Y-92159999D01*
X244625909Y-92204223D01*
X244594096Y-92260003D01*
X244570352Y-92334586D01*
X244556581Y-92432896D01*
X244384302Y-92432896D01*
X244401067Y-92352079D01*
X244428866Y-92277740D01*
X244468515Y-92209536D01*
X244516959Y-92153848D01*
X244574703Y-92109249D01*
X244640093Y-92076647D01*
X244712264Y-92056770D01*
X244792776Y-92049923D01*
X244884909Y-92058180D01*
G37*
G36*
X245585307Y-92223543D02*
G01*
X245598643Y-92226449D01*
X245651637Y-92167294D01*
X245696181Y-92126346D01*
X245743163Y-92093798D01*
X245793292Y-92069841D01*
X245847663Y-92055113D01*
X245911432Y-92049923D01*
X246011792Y-92055650D01*
X246011792Y-92274235D01*
X245903739Y-92274235D01*
X245878537Y-92227278D01*
X245855012Y-92199180D01*
X245825576Y-92182007D01*
X245784231Y-92175757D01*
X245750485Y-92180611D01*
X245715843Y-92195846D01*
X245683452Y-92219628D01*
X245650276Y-92254232D01*
X245622689Y-92292826D01*
X245606764Y-92325954D01*
X245598053Y-92361265D01*
X245594881Y-92405455D01*
X245594881Y-92740642D01*
X245598155Y-92821101D01*
X245605396Y-92860919D01*
X245619790Y-92890065D01*
X245640274Y-92909218D01*
X245668139Y-92921980D01*
X245713449Y-92933154D01*
X245713449Y-92980000D01*
X245327997Y-92980000D01*
X245327997Y-92933154D01*
X245380143Y-92913065D01*
X245407413Y-92889129D01*
X245416838Y-92871359D01*
X245424595Y-92842283D01*
X245430323Y-92743719D01*
X245430323Y-92326552D01*
X245428442Y-92228073D01*
X245423793Y-92192899D01*
X245415021Y-92168234D01*
X245400627Y-92148688D01*
X245380143Y-92134809D01*
X245313721Y-92116088D01*
X245313721Y-92066336D01*
X245537435Y-92055394D01*
X245595822Y-92055394D01*
X245585307Y-92223543D01*
G37*
G36*
X227261513Y-94567507D02*
G01*
X227265360Y-94568448D01*
X227337270Y-94499730D01*
X227383500Y-94462703D01*
X227427634Y-94435794D01*
X227469583Y-94417225D01*
X227513281Y-94405818D01*
X227560881Y-94401923D01*
X227611798Y-94405206D01*
X227654573Y-94414404D01*
X227693544Y-94430210D01*
X227726808Y-94452188D01*
X227754917Y-94480228D01*
X227777500Y-94514336D01*
X227794157Y-94553515D01*
X227806651Y-94602385D01*
X227813569Y-94656972D01*
X227816225Y-94732066D01*
X227816225Y-95092812D01*
X227818481Y-95169481D01*
X227823406Y-95206251D01*
X227833798Y-95233633D01*
X227849222Y-95253097D01*
X227873250Y-95267703D01*
X227924278Y-95285154D01*
X227924278Y-95332000D01*
X227547546Y-95332000D01*
X227547546Y-95285154D01*
X227601059Y-95265065D01*
X227628329Y-95241129D01*
X227637505Y-95223344D01*
X227645511Y-95193770D01*
X227651752Y-95096659D01*
X227651752Y-94845932D01*
X227648004Y-94726203D01*
X227638844Y-94651282D01*
X227618695Y-94590318D01*
X227588151Y-94550325D01*
X227544872Y-94525852D01*
X227482491Y-94516815D01*
X227445536Y-94520284D01*
X227413591Y-94530236D01*
X227382743Y-94547412D01*
X227342809Y-94578022D01*
X227306683Y-94614027D01*
X227282115Y-94648889D01*
X227266643Y-94686491D01*
X227261513Y-94726338D01*
X227261513Y-95092812D01*
X227264847Y-95185649D01*
X227277840Y-95232068D01*
X227289751Y-95248863D01*
X227306991Y-95262671D01*
X227367685Y-95285154D01*
X227367685Y-95332000D01*
X226988987Y-95332000D01*
X226988987Y-95285154D01*
X227049168Y-95263184D01*
X227077378Y-95236513D01*
X227092252Y-95189752D01*
X227097040Y-95093240D01*
X227097040Y-94294041D01*
X227095586Y-94166155D01*
X227087978Y-94104520D01*
X227070710Y-94064941D01*
X227041132Y-94042031D01*
X226973685Y-94024848D01*
X226973685Y-93975182D01*
X227204152Y-93964240D01*
X227261513Y-93964240D01*
X227261513Y-94567507D01*
G37*
G36*
X228028399Y-94466720D02*
G01*
X228073241Y-94455694D01*
X228105848Y-94440049D01*
X228132355Y-94418090D01*
X228152266Y-94390810D01*
X228166693Y-94358373D01*
X228178510Y-94315412D01*
X228198599Y-94183081D01*
X228334435Y-94183081D01*
X228334435Y-94418336D01*
X228643378Y-94418336D01*
X228643378Y-94515447D01*
X228334435Y-94515447D01*
X228334435Y-94941504D01*
X228342043Y-95089393D01*
X228353820Y-95140667D01*
X228370766Y-95175562D01*
X228393916Y-95202892D01*
X228418552Y-95220100D01*
X228447692Y-95229864D01*
X228487453Y-95233521D01*
X228524641Y-95229620D01*
X228559175Y-95218048D01*
X228591735Y-95199560D01*
X228625169Y-95173339D01*
X228668168Y-95225314D01*
X228599265Y-95283232D01*
X228539513Y-95319262D01*
X228477477Y-95341188D01*
X228413850Y-95348413D01*
X228334891Y-95339375D01*
X228275220Y-95314599D01*
X228230143Y-95275237D01*
X228198992Y-95222818D01*
X228177950Y-95148807D01*
X228169962Y-95046223D01*
X228169962Y-94515447D01*
X228028399Y-94515447D01*
X228028399Y-94466720D01*
G37*
G36*
X228690394Y-94466720D02*
G01*
X228735237Y-94455694D01*
X228767844Y-94440049D01*
X228794351Y-94418090D01*
X228814262Y-94390810D01*
X228828689Y-94358373D01*
X228840506Y-94315412D01*
X228860595Y-94183081D01*
X228996431Y-94183081D01*
X228996431Y-94418336D01*
X229305374Y-94418336D01*
X229305374Y-94515447D01*
X228996431Y-94515447D01*
X228996431Y-94941504D01*
X229004039Y-95089393D01*
X229015816Y-95140667D01*
X229032762Y-95175562D01*
X229055912Y-95202892D01*
X229080548Y-95220100D01*
X229109688Y-95229864D01*
X229149449Y-95233521D01*
X229186637Y-95229620D01*
X229221171Y-95218048D01*
X229253731Y-95199560D01*
X229287165Y-95173339D01*
X229330164Y-95225314D01*
X229261261Y-95283232D01*
X229201509Y-95319262D01*
X229139472Y-95341188D01*
X229075846Y-95348413D01*
X228996887Y-95339375D01*
X228937216Y-95314599D01*
X228892139Y-95275237D01*
X228860987Y-95222818D01*
X228839946Y-95148807D01*
X228831958Y-95046223D01*
X228831958Y-94515447D01*
X228690394Y-94515447D01*
X228690394Y-94466720D01*
G37*
G36*
X230056235Y-94409779D02*
G01*
X230120598Y-94432150D01*
X230175398Y-94468547D01*
X230222200Y-94520234D01*
X230256579Y-94580296D01*
X230283082Y-94655765D01*
X230300485Y-94749904D01*
X230306830Y-94866534D01*
X230300942Y-94971224D01*
X230284505Y-95058973D01*
X230258959Y-95132392D01*
X230221387Y-95199555D01*
X230175183Y-95252936D01*
X230119875Y-95294301D01*
X230056933Y-95323724D01*
X229985026Y-95342012D01*
X229902315Y-95348413D01*
X229833301Y-95345295D01*
X229774088Y-95336530D01*
X229718303Y-95322369D01*
X229668941Y-95304644D01*
X229668941Y-95505449D01*
X229673215Y-95597687D01*
X229679623Y-95626153D01*
X229688517Y-95645729D01*
X229701680Y-95661561D01*
X229720061Y-95674709D01*
X229786569Y-95695738D01*
X229786569Y-95742327D01*
X229396415Y-95742327D01*
X229396415Y-95696337D01*
X229452322Y-95676675D01*
X229471437Y-95664195D01*
X229485319Y-95647097D01*
X229494467Y-95625417D01*
X229500621Y-95594011D01*
X229504468Y-95505192D01*
X229504468Y-94735143D01*
X229668941Y-94735143D01*
X229668941Y-94988350D01*
X229672252Y-95075160D01*
X229680396Y-95130340D01*
X229696804Y-95176438D01*
X229721087Y-95211380D01*
X229752875Y-95238571D01*
X229789902Y-95257884D01*
X229833048Y-95268920D01*
X229894622Y-95273186D01*
X229950057Y-95266887D01*
X229996334Y-95248919D01*
X230035505Y-95219413D01*
X230068669Y-95176844D01*
X230098784Y-95109771D01*
X230119297Y-95017425D01*
X230127055Y-94892607D01*
X230118238Y-94756930D01*
X230095311Y-94660935D01*
X230062244Y-94594959D01*
X230020863Y-94551470D01*
X229970486Y-94525784D01*
X229908043Y-94516815D01*
X229856756Y-94521263D01*
X229815719Y-94533570D01*
X229778267Y-94554641D01*
X229738697Y-94587596D01*
X229704935Y-94625864D01*
X229684670Y-94659916D01*
X229672921Y-94695980D01*
X229668941Y-94735143D01*
X229504468Y-94735143D01*
X229504468Y-94685049D01*
X229502502Y-94587083D01*
X229494894Y-94538784D01*
X229478139Y-94507240D01*
X229448475Y-94486211D01*
X229386841Y-94469028D01*
X229386841Y-94418336D01*
X229611581Y-94407394D01*
X229669882Y-94407394D01*
X229657486Y-94564601D01*
X229671848Y-94568448D01*
X229765539Y-94480911D01*
X229836748Y-94435433D01*
X229907530Y-94409616D01*
X229979765Y-94401923D01*
X230056235Y-94409779D01*
G37*
G36*
X231139283Y-94626235D02*
G01*
X231047472Y-94626235D01*
X231023434Y-94573411D01*
X230997720Y-94536562D01*
X230966609Y-94508286D01*
X230932666Y-94490485D01*
X230894047Y-94480756D01*
X230843762Y-94477150D01*
X230793919Y-94481575D01*
X230753932Y-94493847D01*
X230721774Y-94513139D01*
X230696663Y-94539852D01*
X230681637Y-94572011D01*
X230676382Y-94611361D01*
X230681218Y-94652852D01*
X230694505Y-94684280D01*
X230716648Y-94711040D01*
X230750925Y-94737964D01*
X230797074Y-94763597D01*
X230885820Y-94804044D01*
X230977092Y-94846969D01*
X231036445Y-94881579D01*
X231084482Y-94920528D01*
X231119622Y-94963816D01*
X231141957Y-95014126D01*
X231149798Y-95075715D01*
X231142888Y-95147565D01*
X231123981Y-95203003D01*
X231092839Y-95249924D01*
X231051234Y-95287205D01*
X231000989Y-95314726D01*
X230939847Y-95334051D01*
X230873622Y-95344688D01*
X230798796Y-95348413D01*
X230719172Y-95345406D01*
X230642872Y-95336530D01*
X230495667Y-95305756D01*
X230495667Y-95107687D01*
X230589358Y-95107687D01*
X230610804Y-95163414D01*
X230636444Y-95204544D01*
X230665867Y-95233948D01*
X230701700Y-95254820D01*
X230747363Y-95268279D01*
X230805464Y-95273186D01*
X230872912Y-95266005D01*
X230904447Y-95256295D01*
X230931726Y-95242069D01*
X230954772Y-95222478D01*
X230972844Y-95196591D01*
X230984037Y-95165558D01*
X230988146Y-95124698D01*
X230982978Y-95078899D01*
X230968997Y-95045283D01*
X230945692Y-95016908D01*
X230909756Y-94989205D01*
X230861373Y-94962856D01*
X230768193Y-94920731D01*
X230686106Y-94882941D01*
X230628510Y-94849864D01*
X230580940Y-94811706D01*
X230545846Y-94768568D01*
X230523544Y-94718313D01*
X230515756Y-94657523D01*
X230520653Y-94606609D01*
X230534850Y-94561562D01*
X230558242Y-94521174D01*
X230589833Y-94486454D01*
X230630306Y-94456934D01*
X230681169Y-94432612D01*
X230765710Y-94410049D01*
X230869578Y-94401923D01*
X230991480Y-94408163D01*
X231139283Y-94432355D01*
X231139283Y-94626235D01*
G37*
G36*
X231600731Y-94467575D02*
G01*
X231600731Y-94691888D01*
X231409501Y-94691888D01*
X231409501Y-94467575D01*
X231600731Y-94467575D01*
G37*
G36*
X231600731Y-95107687D02*
G01*
X231600731Y-95332000D01*
X231409501Y-95332000D01*
X231409501Y-95107687D01*
X231600731Y-95107687D01*
G37*
G36*
X232662455Y-93964240D02*
G01*
X231971993Y-95742327D01*
X231821881Y-95742327D01*
X232514224Y-93964240D01*
X232662455Y-93964240D01*
G37*
G36*
X233622622Y-93964240D02*
G01*
X232932160Y-95742327D01*
X232782048Y-95742327D01*
X233474391Y-93964240D01*
X233622622Y-93964240D01*
G37*
G36*
X234226721Y-94406013D02*
G01*
X234294962Y-94418336D01*
X234633482Y-94418336D01*
X234633482Y-94515447D01*
X234456614Y-94508693D01*
X234447980Y-94519123D01*
X234473779Y-94552507D01*
X234494826Y-94599051D01*
X234507677Y-94650977D01*
X234512094Y-94708215D01*
X234505480Y-94784210D01*
X234486832Y-94847702D01*
X234457073Y-94901078D01*
X234415923Y-94946035D01*
X234366054Y-94980882D01*
X234305458Y-95006963D01*
X234231965Y-95023708D01*
X234142884Y-95029725D01*
X234066671Y-95024395D01*
X234006108Y-95009807D01*
X233962418Y-95050497D01*
X233940146Y-95086238D01*
X233933446Y-95118971D01*
X233937322Y-95151674D01*
X233947294Y-95172655D01*
X233964662Y-95187616D01*
X233993200Y-95198557D01*
X234029377Y-95203921D01*
X234090311Y-95206166D01*
X234319838Y-95206166D01*
X234415661Y-95214769D01*
X234485251Y-95237624D01*
X234541207Y-95275426D01*
X234576635Y-95321998D01*
X234596795Y-95378008D01*
X234603905Y-95445438D01*
X234598060Y-95503459D01*
X234580893Y-95556245D01*
X234552186Y-95605039D01*
X234513940Y-95647176D01*
X234464824Y-95683571D01*
X234403015Y-95714203D01*
X234336877Y-95735300D01*
X234261497Y-95748598D01*
X234175454Y-95753270D01*
X234080935Y-95750269D01*
X233998927Y-95741815D01*
X233922641Y-95725874D01*
X233862151Y-95703261D01*
X233810903Y-95671122D01*
X233774187Y-95631795D01*
X233751333Y-95583391D01*
X233743156Y-95520836D01*
X233744808Y-95511347D01*
X233896174Y-95511347D01*
X233904147Y-95564617D01*
X233926673Y-95605659D01*
X233964562Y-95637523D01*
X234012190Y-95658220D01*
X234079817Y-95672555D01*
X234173488Y-95678043D01*
X234256027Y-95671909D01*
X234321206Y-95655133D01*
X234376811Y-95626446D01*
X234415410Y-95589395D01*
X234439712Y-95543360D01*
X234447980Y-95489377D01*
X234441227Y-95437488D01*
X234431640Y-95413704D01*
X234415923Y-95392266D01*
X234394313Y-95374868D01*
X234362837Y-95360295D01*
X234325694Y-95351726D01*
X234272992Y-95348413D01*
X234130489Y-95348413D01*
X233993713Y-95342685D01*
X233949831Y-95381224D01*
X233920538Y-95419365D01*
X233902394Y-95462137D01*
X233896174Y-95511347D01*
X233744808Y-95511347D01*
X233753061Y-95463942D01*
X233783334Y-95411757D01*
X233829960Y-95367117D01*
X233897115Y-95325503D01*
X233856491Y-95302724D01*
X233826333Y-95271989D01*
X233807112Y-95233953D01*
X233800517Y-95188812D01*
X233808160Y-95136583D01*
X233831120Y-95088880D01*
X233869432Y-95044148D01*
X233939173Y-94985187D01*
X233878391Y-94938033D01*
X233834454Y-94877048D01*
X233807865Y-94805204D01*
X233798636Y-94721551D01*
X233799851Y-94708301D01*
X233969777Y-94708301D01*
X233975982Y-94785598D01*
X233992802Y-94845004D01*
X234018503Y-94890384D01*
X234055191Y-94925573D01*
X234101089Y-94946922D01*
X234159126Y-94954498D01*
X234205511Y-94949637D01*
X234242303Y-94936118D01*
X234273564Y-94914286D01*
X234298296Y-94885682D01*
X234316741Y-94851578D01*
X234329840Y-94811567D01*
X234339927Y-94723346D01*
X234333442Y-94644349D01*
X234315991Y-94584690D01*
X234286843Y-94535336D01*
X234250937Y-94503137D01*
X234207282Y-94483802D01*
X234156305Y-94477150D01*
X234098547Y-94484268D01*
X234053294Y-94504172D01*
X234017563Y-94536562D01*
X233992382Y-94578819D01*
X233975882Y-94634759D01*
X233969777Y-94708301D01*
X233799851Y-94708301D01*
X233805800Y-94643453D01*
X233825820Y-94579817D01*
X233858626Y-94524419D01*
X233901389Y-94480227D01*
X233953422Y-94446175D01*
X234015682Y-94421413D01*
X234083376Y-94406923D01*
X234158186Y-94401923D01*
X234226721Y-94406013D01*
G37*
G36*
X235017566Y-94040834D02*
G01*
X235017566Y-94226849D01*
X234841553Y-94226849D01*
X234841553Y-94040834D01*
X235017566Y-94040834D01*
G37*
G36*
X234744014Y-95285154D02*
G01*
X234797101Y-95265150D01*
X234823857Y-95241214D01*
X234833052Y-95223492D01*
X234841040Y-95194369D01*
X234847280Y-95095975D01*
X234847280Y-94679236D01*
X234845400Y-94580843D01*
X234840753Y-94545744D01*
X234831979Y-94521089D01*
X234817585Y-94501543D01*
X234797101Y-94487664D01*
X234730679Y-94469028D01*
X234730679Y-94418336D01*
X234953453Y-94407394D01*
X235011839Y-94407394D01*
X235011839Y-95092556D01*
X235014195Y-95168704D01*
X235019447Y-95207106D01*
X235030940Y-95235933D01*
X235048598Y-95255918D01*
X235074142Y-95270409D01*
X235118952Y-95285154D01*
X235118952Y-95332000D01*
X234744014Y-95332000D01*
X234744014Y-95285154D01*
G37*
G36*
X235231023Y-94466720D02*
G01*
X235275865Y-94455694D01*
X235308472Y-94440049D01*
X235334979Y-94418090D01*
X235354890Y-94390810D01*
X235369317Y-94358373D01*
X235381134Y-94315412D01*
X235401223Y-94183081D01*
X235537059Y-94183081D01*
X235537059Y-94418336D01*
X235846002Y-94418336D01*
X235846002Y-94515447D01*
X235537059Y-94515447D01*
X235537059Y-94941504D01*
X235544667Y-95089393D01*
X235556444Y-95140667D01*
X235573390Y-95175562D01*
X235596540Y-95202892D01*
X235621176Y-95220100D01*
X235650316Y-95229864D01*
X235690077Y-95233521D01*
X235727265Y-95229620D01*
X235761799Y-95218048D01*
X235794359Y-95199560D01*
X235827793Y-95173339D01*
X235870792Y-95225314D01*
X235801889Y-95283232D01*
X235742137Y-95319262D01*
X235680100Y-95341188D01*
X235616474Y-95348413D01*
X235537515Y-95339375D01*
X235477844Y-95314599D01*
X235432767Y-95275237D01*
X235401616Y-95222818D01*
X235380574Y-95148807D01*
X235372586Y-95046223D01*
X235372586Y-94515447D01*
X235231023Y-94515447D01*
X235231023Y-94466720D01*
G37*
G36*
X236206663Y-94567507D02*
G01*
X236210510Y-94568448D01*
X236282420Y-94499730D01*
X236328650Y-94462703D01*
X236372784Y-94435794D01*
X236414733Y-94417225D01*
X236458431Y-94405818D01*
X236506031Y-94401923D01*
X236556948Y-94405206D01*
X236599723Y-94414404D01*
X236638694Y-94430210D01*
X236671958Y-94452188D01*
X236700067Y-94480228D01*
X236722650Y-94514336D01*
X236739307Y-94553515D01*
X236751801Y-94602385D01*
X236758719Y-94656972D01*
X236761375Y-94732066D01*
X236761375Y-95092812D01*
X236763631Y-95169481D01*
X236768556Y-95206251D01*
X236778948Y-95233633D01*
X236794372Y-95253097D01*
X236818401Y-95267703D01*
X236869428Y-95285154D01*
X236869428Y-95332000D01*
X236492696Y-95332000D01*
X236492696Y-95285154D01*
X236546209Y-95265065D01*
X236573479Y-95241129D01*
X236582655Y-95223344D01*
X236590661Y-95193770D01*
X236596902Y-95096659D01*
X236596902Y-94845932D01*
X236593154Y-94726203D01*
X236583994Y-94651282D01*
X236563845Y-94590318D01*
X236533301Y-94550325D01*
X236490022Y-94525852D01*
X236427641Y-94516815D01*
X236390686Y-94520284D01*
X236358741Y-94530236D01*
X236327893Y-94547412D01*
X236287959Y-94578022D01*
X236251833Y-94614027D01*
X236227265Y-94648889D01*
X236211793Y-94686491D01*
X236206663Y-94726338D01*
X236206663Y-95092812D01*
X236209997Y-95185649D01*
X236222990Y-95232068D01*
X236234901Y-95248863D01*
X236252141Y-95262671D01*
X236312835Y-95285154D01*
X236312835Y-95332000D01*
X235934137Y-95332000D01*
X235934137Y-95285154D01*
X235994318Y-95263184D01*
X236022528Y-95236513D01*
X236037402Y-95189752D01*
X236042190Y-95093240D01*
X236042190Y-94294041D01*
X236040736Y-94166155D01*
X236033128Y-94104520D01*
X236015860Y-94064941D01*
X235986282Y-94042031D01*
X235918835Y-94024848D01*
X235918835Y-93975182D01*
X236149302Y-93964240D01*
X236206663Y-93964240D01*
X236206663Y-94567507D01*
G37*
G36*
X237007999Y-94418336D02*
G01*
X237280525Y-94418336D01*
X237280525Y-94905344D01*
X237283038Y-95010511D01*
X237289159Y-95075630D01*
X237300872Y-95129972D01*
X237314976Y-95163680D01*
X237335488Y-95190682D01*
X237363702Y-95213432D01*
X237399068Y-95227968D01*
X237450811Y-95233521D01*
X237486414Y-95229952D01*
X237520567Y-95219245D01*
X237553993Y-95200843D01*
X237595196Y-95169065D01*
X237631683Y-95131792D01*
X237654009Y-95097771D01*
X237667092Y-95060299D01*
X237671705Y-95015363D01*
X237671705Y-94656155D01*
X237668798Y-94573748D01*
X237659224Y-94529210D01*
X237643495Y-94501940D01*
X237617678Y-94482792D01*
X237563652Y-94464583D01*
X237563652Y-94418336D01*
X237836178Y-94418336D01*
X237836178Y-95071099D01*
X237838999Y-95177186D01*
X237851480Y-95228819D01*
X237863513Y-95245931D01*
X237881143Y-95259850D01*
X237905461Y-95270278D01*
X237952865Y-95282333D01*
X237952865Y-95332000D01*
X237733852Y-95342942D01*
X237675551Y-95342942D01*
X237681279Y-95185735D01*
X237666917Y-95181888D01*
X237585805Y-95259447D01*
X237515267Y-95308235D01*
X237441837Y-95338685D01*
X237370456Y-95348413D01*
X237288561Y-95339181D01*
X237227012Y-95313962D01*
X237178338Y-95271741D01*
X237142809Y-95211124D01*
X237123028Y-95135281D01*
X237115112Y-95018270D01*
X237115112Y-94656583D01*
X237108871Y-94546136D01*
X237099449Y-94518450D01*
X237084936Y-94498264D01*
X237061245Y-94483104D01*
X237007999Y-94465182D01*
X237007999Y-94418336D01*
G37*
G36*
X238353789Y-94567507D02*
G01*
X238357636Y-94568448D01*
X238422970Y-94504545D01*
X238469023Y-94467062D01*
X238514724Y-94438900D01*
X238560834Y-94418678D01*
X238609716Y-94406232D01*
X238664613Y-94401923D01*
X238731148Y-94408023D01*
X238789093Y-94425560D01*
X238840114Y-94454154D01*
X238883783Y-94493227D01*
X238921422Y-94544692D01*
X238952954Y-94610848D01*
X238974118Y-94681549D01*
X238987797Y-94765999D01*
X238992704Y-94866534D01*
X238986900Y-94969960D01*
X238970658Y-95057131D01*
X238945346Y-95130511D01*
X238908005Y-95197589D01*
X238861622Y-95251318D01*
X238805663Y-95293360D01*
X238742066Y-95323347D01*
X238669828Y-95341927D01*
X238587163Y-95348413D01*
X238517573Y-95345104D01*
X238453721Y-95335504D01*
X238391042Y-95318314D01*
X238322245Y-95290368D01*
X238255311Y-95348413D01*
X238189316Y-95332000D01*
X238189316Y-94734288D01*
X238353789Y-94734288D01*
X238353789Y-94988350D01*
X238360457Y-95105892D01*
X238369892Y-95147183D01*
X238382940Y-95178297D01*
X238401865Y-95205316D01*
X238428845Y-95231042D01*
X238460810Y-95251288D01*
X238496293Y-95264124D01*
X238579555Y-95273186D01*
X238634609Y-95267040D01*
X238680789Y-95249491D01*
X238720063Y-95220692D01*
X238753517Y-95179238D01*
X238784053Y-95113591D01*
X238804921Y-95022175D01*
X238812844Y-94897394D01*
X238805580Y-94770912D01*
X238786506Y-94678393D01*
X238758817Y-94612216D01*
X238727707Y-94569783D01*
X238690983Y-94540626D01*
X238647671Y-94522983D01*
X238595797Y-94516815D01*
X238543736Y-94521295D01*
X238502961Y-94533570D01*
X238465902Y-94554269D01*
X238426965Y-94585715D01*
X238393168Y-94622205D01*
X238371485Y-94655642D01*
X238358355Y-94691948D01*
X238353789Y-94734288D01*
X238189316Y-94734288D01*
X238189316Y-94294126D01*
X238187863Y-94166155D01*
X238180255Y-94104520D01*
X238162987Y-94064941D01*
X238133409Y-94042031D01*
X238065961Y-94024848D01*
X238065961Y-93975182D01*
X238297369Y-93964240D01*
X238353789Y-93964240D01*
X238353789Y-94567507D01*
G37*
G36*
X239389782Y-95107687D02*
G01*
X239389782Y-95332000D01*
X239196586Y-95332000D01*
X239196586Y-95107687D01*
X239389782Y-95107687D01*
G37*
G36*
X240298402Y-94440562D02*
G01*
X240298402Y-94642648D01*
X240176928Y-94642648D01*
X240157684Y-94583434D01*
X240136750Y-94542887D01*
X240110162Y-94511132D01*
X240081270Y-94491767D01*
X240047407Y-94481091D01*
X240002881Y-94477150D01*
X239959812Y-94481980D01*
X239920639Y-94496233D01*
X239884313Y-94520319D01*
X239853868Y-94551999D01*
X239826491Y-94594948D01*
X239802504Y-94651624D01*
X239780566Y-94745242D01*
X239772413Y-94867303D01*
X239775407Y-94946988D01*
X239783868Y-95016389D01*
X239799919Y-95080661D01*
X239823020Y-95131965D01*
X239855515Y-95174763D01*
X239896708Y-95206678D01*
X239946341Y-95226386D01*
X240010489Y-95233521D01*
X240074645Y-95227085D01*
X240133416Y-95208132D01*
X240188700Y-95175059D01*
X240251556Y-95118629D01*
X240306010Y-95181546D01*
X240219927Y-95263099D01*
X240140084Y-95311141D01*
X240055967Y-95339437D01*
X239965609Y-95348413D01*
X239876931Y-95340211D01*
X239803100Y-95317067D01*
X239741173Y-95279980D01*
X239689151Y-95228306D01*
X239649845Y-95166630D01*
X239619991Y-95090373D01*
X239600599Y-94996510D01*
X239593578Y-94881408D01*
X239599846Y-94788206D01*
X239617910Y-94704957D01*
X239647092Y-94630168D01*
X239688285Y-94561761D01*
X239738175Y-94505917D01*
X239797289Y-94461249D01*
X239863912Y-94428686D01*
X239937641Y-94408788D01*
X240020063Y-94401923D01*
X240097023Y-94404327D01*
X240164960Y-94411155D01*
X240298402Y-94440562D01*
G37*
G36*
X240981906Y-94410314D02*
G01*
X241065236Y-94433744D01*
X241133780Y-94470673D01*
X241190096Y-94521089D01*
X241233839Y-94582998D01*
X241266632Y-94658655D01*
X241287731Y-94750887D01*
X241295328Y-94863200D01*
X241288909Y-94968134D01*
X241270916Y-95056603D01*
X241242755Y-95131195D01*
X241201990Y-95198915D01*
X241152462Y-95252759D01*
X241093584Y-95294386D01*
X241027201Y-95323748D01*
X240951606Y-95342021D01*
X240864997Y-95348413D01*
X240766380Y-95340217D01*
X240684921Y-95317260D01*
X240617370Y-95280945D01*
X240561354Y-95231213D01*
X240518154Y-95170301D01*
X240485502Y-95094439D01*
X240464317Y-95000407D01*
X240456635Y-94884229D01*
X240457923Y-94864140D01*
X240637350Y-94864140D01*
X240645567Y-94995088D01*
X240667488Y-95093887D01*
X240700011Y-95167355D01*
X240735796Y-95214772D01*
X240776826Y-95247109D01*
X240824037Y-95266480D01*
X240879358Y-95273186D01*
X240939704Y-95265094D01*
X240988352Y-95242069D01*
X241028729Y-95206023D01*
X241061527Y-95158294D01*
X241085361Y-95102644D01*
X241102132Y-95036136D01*
X241111440Y-94965711D01*
X241114613Y-94890982D01*
X241106070Y-94756585D01*
X241083496Y-94657266D01*
X241058654Y-94597573D01*
X241030321Y-94553014D01*
X240998866Y-94520747D01*
X240961301Y-94496437D01*
X240920845Y-94482032D01*
X240876452Y-94477150D01*
X240821291Y-94483603D01*
X240774449Y-94502169D01*
X240734011Y-94532959D01*
X240698985Y-94577765D01*
X240666894Y-94647697D01*
X240645385Y-94741064D01*
X240637350Y-94864140D01*
X240457923Y-94864140D01*
X240463315Y-94780076D01*
X240482091Y-94691937D01*
X240511602Y-94617259D01*
X240553759Y-94549459D01*
X240603803Y-94495986D01*
X240662226Y-94455094D01*
X240727847Y-94425938D01*
X240800085Y-94408080D01*
X240880299Y-94401923D01*
X240981906Y-94410314D01*
G37*
G36*
X241746689Y-94564601D02*
G01*
X241760025Y-94568448D01*
X241854229Y-94481851D01*
X241925524Y-94434920D01*
X241990065Y-94409616D01*
X242051785Y-94401923D01*
X242114140Y-94407275D01*
X242165364Y-94422249D01*
X242207624Y-94445948D01*
X242242550Y-94479139D01*
X242270374Y-94523318D01*
X242290886Y-94580928D01*
X242407061Y-94473730D01*
X242452651Y-94442844D01*
X242497846Y-94420644D01*
X242545642Y-94406681D01*
X242597863Y-94401923D01*
X242659217Y-94406905D01*
X242708224Y-94420644D01*
X242751028Y-94444284D01*
X242786699Y-94478004D01*
X242813906Y-94520546D01*
X242833545Y-94575115D01*
X242844206Y-94638531D01*
X242848420Y-94732066D01*
X242848420Y-95092812D01*
X242853207Y-95193343D01*
X242867055Y-95236342D01*
X242894240Y-95262671D01*
X242955532Y-95285154D01*
X242955532Y-95332000D01*
X242579655Y-95332000D01*
X242579655Y-95285154D01*
X242633168Y-95265065D01*
X242660438Y-95241129D01*
X242669632Y-95223345D01*
X242677706Y-95193770D01*
X242683946Y-95096659D01*
X242683946Y-94845932D01*
X242679587Y-94711549D01*
X242666166Y-94626919D01*
X242644196Y-94577081D01*
X242615046Y-94545538D01*
X242576748Y-94524508D01*
X242518447Y-94516815D01*
X242481325Y-94520686D01*
X242447238Y-94532116D01*
X242414603Y-94551395D01*
X242375517Y-94583749D01*
X242341201Y-94621465D01*
X242319524Y-94656924D01*
X242306859Y-94695895D01*
X242302341Y-94743521D01*
X242302341Y-95092812D01*
X242307129Y-95193343D01*
X242320977Y-95236342D01*
X242348161Y-95262671D01*
X242409454Y-95285154D01*
X242409454Y-95332000D01*
X242033577Y-95332000D01*
X242033577Y-95285154D01*
X242087090Y-95265065D01*
X242114360Y-95241129D01*
X242123554Y-95223345D01*
X242131628Y-95193770D01*
X242137868Y-95096659D01*
X242137868Y-94845932D01*
X242133081Y-94707275D01*
X242118207Y-94621106D01*
X242106269Y-94590679D01*
X242092390Y-94568448D01*
X242060333Y-94537844D01*
X242022122Y-94522115D01*
X241972369Y-94516815D01*
X241934270Y-94521253D01*
X241898681Y-94534510D01*
X241865026Y-94555365D01*
X241828413Y-94585715D01*
X241796369Y-94620703D01*
X241774386Y-94655557D01*
X241760833Y-94693151D01*
X241756263Y-94733946D01*
X241756263Y-95092812D01*
X241759084Y-95176075D01*
X241768146Y-95221040D01*
X241783960Y-95247369D01*
X241811230Y-95266518D01*
X241864316Y-95285154D01*
X241864316Y-95332000D01*
X241489379Y-95332000D01*
X241489379Y-95285154D01*
X241541525Y-95265150D01*
X241568795Y-95241214D01*
X241578220Y-95223444D01*
X241585977Y-95194369D01*
X241591705Y-95095890D01*
X241591705Y-94679236D01*
X241589824Y-94580843D01*
X241585177Y-94545744D01*
X241576403Y-94521089D01*
X241562009Y-94501543D01*
X241541525Y-94487664D01*
X241475103Y-94469028D01*
X241475103Y-94418336D01*
X241698817Y-94407394D01*
X241757204Y-94407394D01*
X241746689Y-94564601D01*
G37*
G36*
X243925958Y-93964240D02*
G01*
X243235496Y-95742327D01*
X243085384Y-95742327D01*
X243777727Y-93964240D01*
X243925958Y-93964240D01*
G37*
G36*
X244530056Y-94406013D02*
G01*
X244598297Y-94418336D01*
X244936818Y-94418336D01*
X244936818Y-94515447D01*
X244759950Y-94508693D01*
X244751316Y-94519123D01*
X244777115Y-94552507D01*
X244798161Y-94599051D01*
X244811013Y-94650977D01*
X244815429Y-94708215D01*
X244808816Y-94784210D01*
X244790167Y-94847702D01*
X244760408Y-94901078D01*
X244719259Y-94946035D01*
X244669389Y-94980882D01*
X244608794Y-95006963D01*
X244535301Y-95023708D01*
X244446220Y-95029725D01*
X244370007Y-95024395D01*
X244309444Y-95009807D01*
X244265754Y-95050497D01*
X244243482Y-95086238D01*
X244236781Y-95118971D01*
X244240657Y-95151674D01*
X244250630Y-95172655D01*
X244267997Y-95187616D01*
X244296535Y-95198557D01*
X244332712Y-95203921D01*
X244393646Y-95206166D01*
X244623174Y-95206166D01*
X244718997Y-95214769D01*
X244788587Y-95237624D01*
X244844543Y-95275426D01*
X244879971Y-95321998D01*
X244900130Y-95378008D01*
X244907240Y-95445438D01*
X244901396Y-95503459D01*
X244884229Y-95556245D01*
X244855522Y-95605039D01*
X244817276Y-95647176D01*
X244768160Y-95683571D01*
X244706350Y-95714203D01*
X244640212Y-95735300D01*
X244564833Y-95748598D01*
X244478789Y-95753270D01*
X244384270Y-95750269D01*
X244302263Y-95741815D01*
X244225976Y-95725874D01*
X244165487Y-95703261D01*
X244114239Y-95671122D01*
X244077523Y-95631795D01*
X244054669Y-95583391D01*
X244046492Y-95520836D01*
X244048144Y-95511347D01*
X244199510Y-95511347D01*
X244207483Y-95564617D01*
X244230008Y-95605659D01*
X244267898Y-95637523D01*
X244315526Y-95658220D01*
X244383153Y-95672555D01*
X244476823Y-95678043D01*
X244559363Y-95671909D01*
X244624541Y-95655133D01*
X244680147Y-95626446D01*
X244718746Y-95589395D01*
X244743048Y-95543360D01*
X244751316Y-95489377D01*
X244744562Y-95437488D01*
X244734975Y-95413704D01*
X244719259Y-95392266D01*
X244697649Y-95374868D01*
X244666173Y-95360295D01*
X244629030Y-95351726D01*
X244576328Y-95348413D01*
X244433824Y-95348413D01*
X244297048Y-95342685D01*
X244253167Y-95381224D01*
X244223873Y-95419365D01*
X244205729Y-95462137D01*
X244199510Y-95511347D01*
X244048144Y-95511347D01*
X244056396Y-95463942D01*
X244086670Y-95411757D01*
X244133295Y-95367117D01*
X244200450Y-95325503D01*
X244159826Y-95302724D01*
X244129669Y-95271989D01*
X244110448Y-95233953D01*
X244103852Y-95188812D01*
X244111496Y-95136583D01*
X244134456Y-95088880D01*
X244172767Y-95044148D01*
X244242509Y-94985187D01*
X244181727Y-94938033D01*
X244137790Y-94877048D01*
X244111201Y-94805204D01*
X244101972Y-94721551D01*
X244103187Y-94708301D01*
X244273113Y-94708301D01*
X244279317Y-94785598D01*
X244296138Y-94845004D01*
X244321839Y-94890384D01*
X244358527Y-94925573D01*
X244404425Y-94946922D01*
X244462462Y-94954498D01*
X244508847Y-94949637D01*
X244545639Y-94936118D01*
X244576900Y-94914286D01*
X244601631Y-94885682D01*
X244620077Y-94851578D01*
X244633175Y-94811567D01*
X244643263Y-94723346D01*
X244636778Y-94644349D01*
X244619327Y-94584690D01*
X244590178Y-94535336D01*
X244554273Y-94503137D01*
X244510618Y-94483802D01*
X244459641Y-94477150D01*
X244401883Y-94484268D01*
X244356630Y-94504172D01*
X244320899Y-94536562D01*
X244295717Y-94578819D01*
X244279218Y-94634759D01*
X244273113Y-94708301D01*
X244103187Y-94708301D01*
X244109135Y-94643453D01*
X244129156Y-94579817D01*
X244161962Y-94524419D01*
X244204725Y-94480227D01*
X244256758Y-94446175D01*
X244319018Y-94421413D01*
X244386712Y-94406923D01*
X244461521Y-94401923D01*
X244530056Y-94406013D01*
G37*
G36*
X245305600Y-94575543D02*
G01*
X245318936Y-94578449D01*
X245371930Y-94519294D01*
X245416474Y-94478346D01*
X245463456Y-94445798D01*
X245513585Y-94421841D01*
X245567957Y-94407113D01*
X245631726Y-94401923D01*
X245732085Y-94407650D01*
X245732085Y-94626235D01*
X245624032Y-94626235D01*
X245598830Y-94579278D01*
X245575305Y-94551180D01*
X245545869Y-94534007D01*
X245504524Y-94527757D01*
X245470779Y-94532611D01*
X245436136Y-94547846D01*
X245403745Y-94571628D01*
X245370569Y-94606232D01*
X245342982Y-94644826D01*
X245327057Y-94677954D01*
X245318346Y-94713265D01*
X245315175Y-94757455D01*
X245315175Y-95092642D01*
X245318448Y-95173101D01*
X245325689Y-95212919D01*
X245340083Y-95242065D01*
X245360567Y-95261218D01*
X245388432Y-95273980D01*
X245433742Y-95285154D01*
X245433742Y-95332000D01*
X245048290Y-95332000D01*
X245048290Y-95285154D01*
X245100436Y-95265065D01*
X245127706Y-95241129D01*
X245137131Y-95223359D01*
X245144889Y-95194283D01*
X245150616Y-95095719D01*
X245150616Y-94678552D01*
X245148735Y-94580073D01*
X245144087Y-94544899D01*
X245135314Y-94520234D01*
X245120921Y-94500688D01*
X245100436Y-94486809D01*
X245034014Y-94468088D01*
X245034014Y-94418336D01*
X245257729Y-94407394D01*
X245316115Y-94407394D01*
X245305600Y-94575543D01*
G37*
G36*
X246342257Y-94410180D02*
G01*
X246414597Y-94432868D01*
X246476347Y-94469954D01*
X246523078Y-94517327D01*
X246558286Y-94575960D01*
X246586251Y-94652565D01*
X246603088Y-94740517D01*
X246611640Y-94865593D01*
X246009142Y-94865593D01*
X246009142Y-94882348D01*
X246015974Y-94987494D01*
X246034445Y-95069133D01*
X246055521Y-95117859D01*
X246083197Y-95157707D01*
X246117622Y-95189923D01*
X246158313Y-95213396D01*
X246207798Y-95228219D01*
X246268247Y-95233521D01*
X246343846Y-95225916D01*
X246409297Y-95204028D01*
X246469626Y-95166858D01*
X246534191Y-95107687D01*
X246592491Y-95170604D01*
X246531243Y-95229968D01*
X246480079Y-95270963D01*
X246426635Y-95303262D01*
X246367751Y-95327896D01*
X246304540Y-95343115D01*
X246232942Y-95348413D01*
X246135341Y-95340125D01*
X246055340Y-95316968D01*
X245989529Y-95280391D01*
X245935454Y-95230272D01*
X245894210Y-95169218D01*
X245862884Y-95093011D01*
X245842497Y-94998395D01*
X245835094Y-94881408D01*
X245841119Y-94787457D01*
X245841650Y-94784896D01*
X246013929Y-94784896D01*
X246431865Y-94784896D01*
X246421766Y-94685291D01*
X246405963Y-94614096D01*
X246379914Y-94553843D01*
X246345782Y-94512455D01*
X246300709Y-94486427D01*
X246240550Y-94477150D01*
X246178842Y-94486079D01*
X246127277Y-94511999D01*
X246083257Y-94556223D01*
X246051445Y-94612003D01*
X246027700Y-94686586D01*
X246013929Y-94784896D01*
X245841650Y-94784896D01*
X245858415Y-94704079D01*
X245886214Y-94629740D01*
X245925864Y-94561536D01*
X245974308Y-94505848D01*
X246032052Y-94461249D01*
X246097441Y-94428647D01*
X246169612Y-94408770D01*
X246250124Y-94401923D01*
X246342257Y-94410180D01*
G37*
G36*
X247298321Y-94410180D02*
G01*
X247370661Y-94432868D01*
X247432411Y-94469954D01*
X247479142Y-94517327D01*
X247514351Y-94575960D01*
X247542315Y-94652565D01*
X247559153Y-94740517D01*
X247567704Y-94865593D01*
X246965206Y-94865593D01*
X246965206Y-94882348D01*
X246972038Y-94987494D01*
X246990510Y-95069133D01*
X247011585Y-95117859D01*
X247039261Y-95157707D01*
X247073687Y-95189923D01*
X247114377Y-95213396D01*
X247163862Y-95228219D01*
X247224311Y-95233521D01*
X247299911Y-95225916D01*
X247365361Y-95204028D01*
X247425690Y-95166858D01*
X247490255Y-95107687D01*
X247548556Y-95170604D01*
X247487307Y-95229968D01*
X247436143Y-95270963D01*
X247382699Y-95303262D01*
X247323816Y-95327896D01*
X247260605Y-95343115D01*
X247189006Y-95348413D01*
X247091405Y-95340125D01*
X247011404Y-95316968D01*
X246945593Y-95280391D01*
X246891518Y-95230272D01*
X246850274Y-95169218D01*
X246818948Y-95093011D01*
X246798561Y-94998395D01*
X246791159Y-94881408D01*
X246797183Y-94787457D01*
X246797714Y-94784896D01*
X246969993Y-94784896D01*
X247387929Y-94784896D01*
X247377830Y-94685291D01*
X247362027Y-94614096D01*
X247335978Y-94553843D01*
X247301846Y-94512455D01*
X247256773Y-94486427D01*
X247196614Y-94477150D01*
X247134906Y-94486079D01*
X247083341Y-94511999D01*
X247039322Y-94556223D01*
X247007509Y-94612003D01*
X246983765Y-94686586D01*
X246969993Y-94784896D01*
X246797714Y-94784896D01*
X246814479Y-94704079D01*
X246842279Y-94629740D01*
X246881928Y-94561536D01*
X246930372Y-94505848D01*
X246988116Y-94461249D01*
X247053506Y-94428647D01*
X247125676Y-94408770D01*
X247206188Y-94401923D01*
X247298321Y-94410180D01*
G37*
G36*
X248671999Y-95332000D02*
G01*
X248295182Y-95332000D01*
X248295182Y-95285154D01*
X248348695Y-95265065D01*
X248375965Y-95241129D01*
X248385141Y-95223344D01*
X248393147Y-95193770D01*
X248399388Y-95096659D01*
X248399388Y-94845932D01*
X248395541Y-94724458D01*
X248382633Y-94635040D01*
X248360663Y-94580501D01*
X248330059Y-94546991D01*
X248289369Y-94524936D01*
X248264563Y-94519082D01*
X248229187Y-94516815D01*
X248192785Y-94520548D01*
X248158406Y-94531689D01*
X248125207Y-94550545D01*
X248084803Y-94582809D01*
X248048951Y-94620348D01*
X248026417Y-94654531D01*
X248012990Y-94691835D01*
X248008294Y-94735913D01*
X248008294Y-95092812D01*
X248010651Y-95168875D01*
X248015902Y-95207191D01*
X248027395Y-95236018D01*
X248045053Y-95256003D01*
X248070589Y-95270430D01*
X248115407Y-95285154D01*
X248115407Y-95332000D01*
X247740469Y-95332000D01*
X247740469Y-95285154D01*
X247793556Y-95265150D01*
X247820312Y-95241214D01*
X247829507Y-95223492D01*
X247837495Y-95194369D01*
X247843735Y-95095890D01*
X247843735Y-94679236D01*
X247841855Y-94580843D01*
X247837208Y-94545744D01*
X247828434Y-94521089D01*
X247814040Y-94501543D01*
X247793556Y-94487664D01*
X247727134Y-94469028D01*
X247727134Y-94418336D01*
X247950848Y-94407394D01*
X248009234Y-94407394D01*
X247998720Y-94564601D01*
X248012055Y-94568448D01*
X248080547Y-94502911D01*
X248126349Y-94466036D01*
X248170713Y-94438563D01*
X248214313Y-94418678D01*
X248259900Y-94406157D01*
X248308603Y-94401923D01*
X248358650Y-94405069D01*
X248400841Y-94413891D01*
X248439398Y-94429230D01*
X248472563Y-94450735D01*
X248500761Y-94478408D01*
X248523768Y-94512455D01*
X248540893Y-94551724D01*
X248553859Y-94601017D01*
X248561147Y-94656098D01*
X248563946Y-94732066D01*
X248563946Y-95092812D01*
X248567708Y-95188470D01*
X248581129Y-95234461D01*
X248608826Y-95261731D01*
X248671999Y-95285154D01*
X248671999Y-95332000D01*
G37*
G36*
X249284390Y-94406013D02*
G01*
X249352631Y-94418336D01*
X249691152Y-94418336D01*
X249691152Y-94515447D01*
X249514283Y-94508693D01*
X249505649Y-94519123D01*
X249531448Y-94552507D01*
X249552495Y-94599051D01*
X249565346Y-94650977D01*
X249569763Y-94708215D01*
X249563149Y-94784210D01*
X249544501Y-94847702D01*
X249514742Y-94901078D01*
X249473592Y-94946035D01*
X249423723Y-94980882D01*
X249363127Y-95006963D01*
X249289634Y-95023708D01*
X249200553Y-95029725D01*
X249124340Y-95024395D01*
X249063777Y-95009807D01*
X249020087Y-95050497D01*
X248997815Y-95086238D01*
X248991115Y-95118971D01*
X248994991Y-95151674D01*
X249004964Y-95172655D01*
X249022331Y-95187616D01*
X249050869Y-95198557D01*
X249087046Y-95203921D01*
X249147980Y-95206166D01*
X249377507Y-95206166D01*
X249473330Y-95214769D01*
X249542921Y-95237624D01*
X249598876Y-95275426D01*
X249634304Y-95321998D01*
X249654464Y-95378008D01*
X249661574Y-95445438D01*
X249655729Y-95503459D01*
X249638562Y-95556245D01*
X249609855Y-95605039D01*
X249571609Y-95647176D01*
X249522494Y-95683571D01*
X249460684Y-95714203D01*
X249394546Y-95735300D01*
X249319166Y-95748598D01*
X249233123Y-95753270D01*
X249138604Y-95750269D01*
X249056596Y-95741815D01*
X248980310Y-95725874D01*
X248919820Y-95703261D01*
X248868572Y-95671122D01*
X248831856Y-95631795D01*
X248809003Y-95583391D01*
X248800825Y-95520836D01*
X248802477Y-95511347D01*
X248953844Y-95511347D01*
X248961817Y-95564617D01*
X248984342Y-95605659D01*
X249022232Y-95637523D01*
X249069859Y-95658220D01*
X249137487Y-95672555D01*
X249231157Y-95678043D01*
X249313696Y-95671909D01*
X249378875Y-95655133D01*
X249434481Y-95626446D01*
X249473079Y-95589395D01*
X249497381Y-95543360D01*
X249505649Y-95489377D01*
X249498896Y-95437488D01*
X249489309Y-95413704D01*
X249473592Y-95392266D01*
X249451982Y-95374868D01*
X249420506Y-95360295D01*
X249383363Y-95351726D01*
X249330661Y-95348413D01*
X249188158Y-95348413D01*
X249051382Y-95342685D01*
X249007500Y-95381224D01*
X248978207Y-95419365D01*
X248960063Y-95462137D01*
X248953844Y-95511347D01*
X248802477Y-95511347D01*
X248810730Y-95463942D01*
X248841003Y-95411757D01*
X248887629Y-95367117D01*
X248954784Y-95325503D01*
X248914160Y-95302724D01*
X248884002Y-95271989D01*
X248864782Y-95233953D01*
X248858186Y-95188812D01*
X248865830Y-95136583D01*
X248888789Y-95088880D01*
X248927101Y-95044148D01*
X248996842Y-94985187D01*
X248936061Y-94938033D01*
X248892123Y-94877048D01*
X248865534Y-94805204D01*
X248856305Y-94721551D01*
X248857520Y-94708301D01*
X249027446Y-94708301D01*
X249033651Y-94785598D01*
X249050472Y-94845004D01*
X249076173Y-94890384D01*
X249112860Y-94925573D01*
X249158759Y-94946922D01*
X249216795Y-94954498D01*
X249263180Y-94949637D01*
X249299972Y-94936118D01*
X249331233Y-94914286D01*
X249355965Y-94885682D01*
X249374410Y-94851578D01*
X249387509Y-94811567D01*
X249397596Y-94723346D01*
X249391112Y-94644349D01*
X249373660Y-94584690D01*
X249344512Y-94535336D01*
X249308606Y-94503137D01*
X249264951Y-94483802D01*
X249213974Y-94477150D01*
X249156216Y-94484268D01*
X249110963Y-94504172D01*
X249075232Y-94536562D01*
X249050051Y-94578819D01*
X249033552Y-94634759D01*
X249027446Y-94708301D01*
X248857520Y-94708301D01*
X248863469Y-94643453D01*
X248883489Y-94579817D01*
X248916296Y-94524419D01*
X248959058Y-94480227D01*
X249011091Y-94446175D01*
X249073352Y-94421413D01*
X249141045Y-94406923D01*
X249215855Y-94401923D01*
X249284390Y-94406013D01*
G37*
G36*
X250059934Y-94575543D02*
G01*
X250073270Y-94578449D01*
X250126264Y-94519294D01*
X250170808Y-94478346D01*
X250217789Y-94445798D01*
X250267919Y-94421841D01*
X250322290Y-94407113D01*
X250386059Y-94401923D01*
X250486419Y-94407650D01*
X250486419Y-94626235D01*
X250378365Y-94626235D01*
X250353164Y-94579278D01*
X250329639Y-94551180D01*
X250300202Y-94534007D01*
X250258857Y-94527757D01*
X250225112Y-94532611D01*
X250190469Y-94547846D01*
X250158079Y-94571628D01*
X250124902Y-94606232D01*
X250097315Y-94644826D01*
X250081391Y-94677954D01*
X250072680Y-94713265D01*
X250069508Y-94757455D01*
X250069508Y-95092642D01*
X250072782Y-95173101D01*
X250080023Y-95212919D01*
X250094417Y-95242065D01*
X250114901Y-95261218D01*
X250142765Y-95273980D01*
X250188076Y-95285154D01*
X250188076Y-95332000D01*
X249802624Y-95332000D01*
X249802624Y-95285154D01*
X249854770Y-95265065D01*
X249882040Y-95241129D01*
X249891465Y-95223359D01*
X249899222Y-95194283D01*
X249904950Y-95095719D01*
X249904950Y-94678552D01*
X249903069Y-94580073D01*
X249898420Y-94544899D01*
X249889648Y-94520234D01*
X249875254Y-94500688D01*
X249854770Y-94486809D01*
X249788348Y-94468088D01*
X249788348Y-94418336D01*
X250012062Y-94407394D01*
X250070449Y-94407394D01*
X250059934Y-94575543D01*
G37*
G36*
X251115639Y-94410314D02*
G01*
X251198969Y-94433744D01*
X251267513Y-94470673D01*
X251323830Y-94521089D01*
X251367573Y-94582998D01*
X251400365Y-94658655D01*
X251421465Y-94750887D01*
X251429062Y-94863200D01*
X251422643Y-94968134D01*
X251404649Y-95056603D01*
X251376488Y-95131195D01*
X251335724Y-95198915D01*
X251286195Y-95252759D01*
X251227317Y-95294386D01*
X251160934Y-95323748D01*
X251085340Y-95342021D01*
X250998730Y-95348413D01*
X250900114Y-95340217D01*
X250818654Y-95317260D01*
X250751103Y-95280945D01*
X250695087Y-95231213D01*
X250651887Y-95170301D01*
X250619235Y-95094439D01*
X250598050Y-95000407D01*
X250590368Y-94884229D01*
X250591656Y-94864140D01*
X250771084Y-94864140D01*
X250779300Y-94995088D01*
X250801222Y-95093887D01*
X250833744Y-95167355D01*
X250869529Y-95214772D01*
X250910559Y-95247109D01*
X250957771Y-95266480D01*
X251013092Y-95273186D01*
X251073438Y-95265094D01*
X251122085Y-95242069D01*
X251162462Y-95206023D01*
X251195260Y-95158294D01*
X251219095Y-95102644D01*
X251235865Y-95036136D01*
X251245173Y-94965711D01*
X251248346Y-94890982D01*
X251239804Y-94756585D01*
X251217230Y-94657266D01*
X251192388Y-94597573D01*
X251164054Y-94553014D01*
X251132600Y-94520747D01*
X251095035Y-94496437D01*
X251054579Y-94482032D01*
X251010185Y-94477150D01*
X250955024Y-94483603D01*
X250908183Y-94502169D01*
X250867744Y-94532959D01*
X250832718Y-94577765D01*
X250800628Y-94647697D01*
X250779118Y-94741064D01*
X250771084Y-94864140D01*
X250591656Y-94864140D01*
X250597048Y-94780076D01*
X250615824Y-94691937D01*
X250645335Y-94617259D01*
X250687493Y-94549459D01*
X250737537Y-94495986D01*
X250795960Y-94455094D01*
X250861580Y-94425938D01*
X250933819Y-94408080D01*
X251014032Y-94401923D01*
X251115639Y-94410314D01*
G37*
G36*
X252334690Y-94440562D02*
G01*
X252334690Y-94642648D01*
X252213215Y-94642648D01*
X252193971Y-94583434D01*
X252173038Y-94542887D01*
X252146450Y-94511132D01*
X252117558Y-94491767D01*
X252083695Y-94481091D01*
X252039168Y-94477150D01*
X251996099Y-94481980D01*
X251956926Y-94496233D01*
X251920600Y-94520319D01*
X251890155Y-94551999D01*
X251862778Y-94594948D01*
X251838791Y-94651624D01*
X251816854Y-94745242D01*
X251808700Y-94867303D01*
X251811695Y-94946988D01*
X251820155Y-95016389D01*
X251836207Y-95080661D01*
X251859308Y-95131965D01*
X251891803Y-95174763D01*
X251932996Y-95206678D01*
X251982629Y-95226386D01*
X252046776Y-95233521D01*
X252110932Y-95227085D01*
X252169704Y-95208132D01*
X252224987Y-95175059D01*
X252287844Y-95118629D01*
X252342298Y-95181546D01*
X252256214Y-95263099D01*
X252176371Y-95311141D01*
X252092254Y-95339437D01*
X252001897Y-95348413D01*
X251913218Y-95340211D01*
X251839388Y-95317067D01*
X251777460Y-95279980D01*
X251725438Y-95228306D01*
X251686133Y-95166630D01*
X251656278Y-95090373D01*
X251636887Y-94996510D01*
X251629866Y-94881408D01*
X251636134Y-94788206D01*
X251654197Y-94704957D01*
X251683379Y-94630168D01*
X251724573Y-94561761D01*
X251774463Y-94505917D01*
X251833577Y-94461249D01*
X251900200Y-94428686D01*
X251973929Y-94408788D01*
X252056350Y-94401923D01*
X252133311Y-94404327D01*
X252201248Y-94411155D01*
X252334690Y-94440562D01*
G37*
G36*
X252999145Y-94410180D02*
G01*
X253071485Y-94432868D01*
X253133234Y-94469954D01*
X253179965Y-94517327D01*
X253215174Y-94575960D01*
X253243139Y-94652565D01*
X253259976Y-94740517D01*
X253268528Y-94865593D01*
X252666029Y-94865593D01*
X252666029Y-94882348D01*
X252672862Y-94987494D01*
X252691333Y-95069133D01*
X252712409Y-95117859D01*
X252740085Y-95157707D01*
X252774510Y-95189923D01*
X252815201Y-95213396D01*
X252864685Y-95228219D01*
X252925135Y-95233521D01*
X253000734Y-95225916D01*
X253066185Y-95204028D01*
X253126514Y-95166858D01*
X253191078Y-95107687D01*
X253249379Y-95170604D01*
X253188130Y-95229968D01*
X253136966Y-95270963D01*
X253083522Y-95303262D01*
X253024639Y-95327896D01*
X252961428Y-95343115D01*
X252889829Y-95348413D01*
X252792229Y-95340125D01*
X252712228Y-95316968D01*
X252646417Y-95280391D01*
X252592341Y-95230272D01*
X252551098Y-95169218D01*
X252519771Y-95093011D01*
X252499385Y-94998395D01*
X252491982Y-94881408D01*
X252498007Y-94787457D01*
X252498538Y-94784896D01*
X252670817Y-94784896D01*
X253088753Y-94784896D01*
X253078654Y-94685291D01*
X253062851Y-94614096D01*
X253036801Y-94553843D01*
X253002669Y-94512455D01*
X252957596Y-94486427D01*
X252897437Y-94477150D01*
X252835729Y-94486079D01*
X252784165Y-94511999D01*
X252740145Y-94556223D01*
X252708332Y-94612003D01*
X252684588Y-94686586D01*
X252670817Y-94784896D01*
X252498538Y-94784896D01*
X252515303Y-94704079D01*
X252543102Y-94629740D01*
X252582751Y-94561536D01*
X252631195Y-94505848D01*
X252688939Y-94461249D01*
X252754329Y-94428647D01*
X252826500Y-94408770D01*
X252907012Y-94401923D01*
X252999145Y-94410180D01*
G37*
G36*
X253699543Y-94575543D02*
G01*
X253712879Y-94578449D01*
X253765873Y-94519294D01*
X253810417Y-94478346D01*
X253857399Y-94445798D01*
X253907528Y-94421841D01*
X253961899Y-94407113D01*
X254025668Y-94401923D01*
X254126028Y-94407650D01*
X254126028Y-94626235D01*
X254017975Y-94626235D01*
X253992773Y-94579278D01*
X253969248Y-94551180D01*
X253939812Y-94534007D01*
X253898467Y-94527757D01*
X253864721Y-94532611D01*
X253830079Y-94547846D01*
X253797688Y-94571628D01*
X253764512Y-94606232D01*
X253736925Y-94644826D01*
X253721000Y-94677954D01*
X253712289Y-94713265D01*
X253709117Y-94757455D01*
X253709117Y-95092642D01*
X253712391Y-95173101D01*
X253719632Y-95212919D01*
X253734026Y-95242065D01*
X253754510Y-95261218D01*
X253782375Y-95273980D01*
X253827685Y-95285154D01*
X253827685Y-95332000D01*
X253442233Y-95332000D01*
X253442233Y-95285154D01*
X253494379Y-95265065D01*
X253521649Y-95241129D01*
X253531074Y-95223359D01*
X253538831Y-95194283D01*
X253544559Y-95095719D01*
X253544559Y-94678552D01*
X253542678Y-94580073D01*
X253538029Y-94544899D01*
X253529257Y-94520234D01*
X253514863Y-94500688D01*
X253494379Y-94486809D01*
X253427957Y-94468088D01*
X253427957Y-94418336D01*
X253651671Y-94407394D01*
X253710058Y-94407394D01*
X253699543Y-94575543D01*
G37*
G36*
X254804361Y-94017448D02*
G01*
X254886048Y-94044126D01*
X254954615Y-94087039D01*
X255012251Y-94147177D01*
X255055406Y-94218256D01*
X255088308Y-94306205D01*
X255109723Y-94414495D01*
X255117483Y-94547247D01*
X255108190Y-94705109D01*
X255081818Y-94842116D01*
X255040033Y-94961251D01*
X254980034Y-95071538D01*
X254907785Y-95161552D01*
X254822901Y-95233777D01*
X254726005Y-95289157D01*
X254617991Y-95327463D01*
X254496776Y-95348413D01*
X254457624Y-95296352D01*
X254457624Y-95249934D01*
X254545190Y-95242901D01*
X254621833Y-95222727D01*
X254689459Y-95190094D01*
X254749438Y-95144808D01*
X254801937Y-95086329D01*
X254847265Y-95012799D01*
X254880728Y-94932482D01*
X254907875Y-94831272D01*
X254927193Y-94705138D01*
X254917619Y-94701291D01*
X254836050Y-94751982D01*
X254759301Y-94785494D01*
X254679193Y-94805399D01*
X254590553Y-94812251D01*
X254519840Y-94806630D01*
X254459040Y-94790635D01*
X254406419Y-94764978D01*
X254360130Y-94729336D01*
X254322212Y-94685374D01*
X254292125Y-94632048D01*
X254271447Y-94573756D01*
X254258466Y-94507407D01*
X254253913Y-94431672D01*
X254255559Y-94412523D01*
X254433688Y-94412523D01*
X254441104Y-94506188D01*
X254461229Y-94578436D01*
X254491989Y-94633844D01*
X254535920Y-94677274D01*
X254589712Y-94703274D01*
X254656548Y-94712404D01*
X254725876Y-94706164D01*
X254790417Y-94687870D01*
X254852052Y-94657095D01*
X254906164Y-94617088D01*
X254921380Y-94597000D01*
X254931895Y-94564430D01*
X254935742Y-94501256D01*
X254928624Y-94375129D01*
X254909412Y-94276858D01*
X254887524Y-94216902D01*
X254860624Y-94170826D01*
X254829142Y-94136150D01*
X254790805Y-94110047D01*
X254746848Y-94094209D01*
X254695700Y-94088706D01*
X254627509Y-94095357D01*
X254574226Y-94113667D01*
X254529016Y-94143377D01*
X254493442Y-94182141D01*
X254466929Y-94228775D01*
X254448050Y-94284637D01*
X254437396Y-94345023D01*
X254433688Y-94412523D01*
X254255559Y-94412523D01*
X254261155Y-94347406D01*
X254282551Y-94268652D01*
X254318286Y-94196278D01*
X254367694Y-94133756D01*
X254430119Y-94082551D01*
X254508744Y-94041945D01*
X254597761Y-94016958D01*
X254706214Y-94008008D01*
X254804361Y-94017448D01*
G37*
G36*
X255883246Y-94012824D02*
G01*
X255959624Y-94026233D01*
X256023282Y-94046989D01*
X256082067Y-94077721D01*
X256128510Y-94115128D01*
X256164332Y-94159402D01*
X256190129Y-94210336D01*
X256206104Y-94268614D01*
X256211691Y-94335843D01*
X256205650Y-94404752D01*
X256188291Y-94464930D01*
X256160058Y-94518011D01*
X256121202Y-94564049D01*
X256068818Y-94605555D01*
X256000372Y-94642478D01*
X256002252Y-94655129D01*
X256070336Y-94688695D01*
X256124158Y-94729695D01*
X256165785Y-94778228D01*
X256196066Y-94834481D01*
X256214744Y-94898802D01*
X256221265Y-94973048D01*
X256215061Y-95046200D01*
X256197087Y-95111481D01*
X256167666Y-95170347D01*
X256127302Y-95222101D01*
X256076011Y-95265864D01*
X256012254Y-95301994D01*
X255942916Y-95327143D01*
X255864221Y-95342896D01*
X255774606Y-95348413D01*
X255690645Y-95343359D01*
X255616683Y-95328914D01*
X255551319Y-95305841D01*
X255491197Y-95272477D01*
X255441894Y-95231133D01*
X255402148Y-95181375D01*
X255373096Y-95124721D01*
X255355255Y-95060969D01*
X255349062Y-94988521D01*
X255350550Y-94972792D01*
X255531743Y-94972792D01*
X255535406Y-95033757D01*
X255546019Y-95089137D01*
X255564863Y-95140176D01*
X255591412Y-95182486D01*
X255626586Y-95217378D01*
X255671340Y-95244719D01*
X255723445Y-95261582D01*
X255789908Y-95267715D01*
X255864407Y-95259297D01*
X255924290Y-95235658D01*
X255973173Y-95196203D01*
X256009433Y-95140342D01*
X256030894Y-95073427D01*
X256038584Y-94990914D01*
X256030248Y-94903142D01*
X256007040Y-94832511D01*
X255968512Y-94773247D01*
X255918050Y-94730954D01*
X255857111Y-94704990D01*
X255785121Y-94695991D01*
X255717758Y-94701922D01*
X255666040Y-94718046D01*
X255621862Y-94744223D01*
X255587650Y-94777373D01*
X255562063Y-94817535D01*
X255544651Y-94864995D01*
X255535053Y-94916392D01*
X255531743Y-94972792D01*
X255350550Y-94972792D01*
X255356606Y-94908795D01*
X255377699Y-94843966D01*
X255411306Y-94787434D01*
X255452755Y-94743008D01*
X255503417Y-94706198D01*
X255569955Y-94670688D01*
X255568074Y-94658036D01*
X255491684Y-94615500D01*
X255435196Y-94564613D01*
X255395432Y-94504950D01*
X255370986Y-94434788D01*
X255362397Y-94351316D01*
X255363293Y-94341912D01*
X255542258Y-94341912D01*
X255545666Y-94397601D01*
X255555593Y-94448769D01*
X255573326Y-94495924D01*
X255598678Y-94535365D01*
X255632273Y-94567877D01*
X255675614Y-94593666D01*
X255726267Y-94609489D01*
X255791874Y-94615293D01*
X255866906Y-94606987D01*
X255925230Y-94584006D01*
X255972076Y-94545786D01*
X256005586Y-94492537D01*
X256025027Y-94429273D01*
X256031916Y-94353453D01*
X256023638Y-94271107D01*
X256000799Y-94206675D01*
X255963394Y-94153800D01*
X255915229Y-94117600D01*
X255857695Y-94096177D01*
X255789908Y-94088706D01*
X255712288Y-94096852D01*
X255652296Y-94119270D01*
X255605859Y-94154700D01*
X255571762Y-94202370D01*
X255550117Y-94263472D01*
X255542258Y-94341912D01*
X255363293Y-94341912D01*
X255368530Y-94286963D01*
X255386505Y-94228408D01*
X255416424Y-94174362D01*
X255456628Y-94127113D01*
X255507453Y-94086472D01*
X255570468Y-94052289D01*
X255638362Y-94027999D01*
X255711846Y-94013116D01*
X255791874Y-94008008D01*
X255883246Y-94012824D01*
G37*
X159096779Y-89248866D02*
X159858684Y-89248866D01*
X149056779Y-89248866D02*
X149818684Y-89248866D01*
X149437731Y-89629819D02*
X149437731Y-88867914D01*
X153178095Y-48029819D02*
X153178095Y-48839342D01*
X153178095Y-48839342D02*
X153225714Y-48934580D01*
X153225714Y-48934580D02*
X153273333Y-48982200D01*
X153273333Y-48982200D02*
X153368571Y-49029819D01*
X153368571Y-49029819D02*
X153559047Y-49029819D01*
X153559047Y-49029819D02*
X153654285Y-48982200D01*
X153654285Y-48982200D02*
X153701904Y-48934580D01*
X153701904Y-48934580D02*
X153749523Y-48839342D01*
X153749523Y-48839342D02*
X153749523Y-48029819D01*
X154178095Y-48982200D02*
X154320952Y-49029819D01*
X154320952Y-49029819D02*
X154559047Y-49029819D01*
X154559047Y-49029819D02*
X154654285Y-48982200D01*
X154654285Y-48982200D02*
X154701904Y-48934580D01*
X154701904Y-48934580D02*
X154749523Y-48839342D01*
X154749523Y-48839342D02*
X154749523Y-48744104D01*
X154749523Y-48744104D02*
X154701904Y-48648866D01*
X154701904Y-48648866D02*
X154654285Y-48601247D01*
X154654285Y-48601247D02*
X154559047Y-48553628D01*
X154559047Y-48553628D02*
X154368571Y-48506009D01*
X154368571Y-48506009D02*
X154273333Y-48458390D01*
X154273333Y-48458390D02*
X154225714Y-48410771D01*
X154225714Y-48410771D02*
X154178095Y-48315533D01*
X154178095Y-48315533D02*
X154178095Y-48220295D01*
X154178095Y-48220295D02*
X154225714Y-48125057D01*
X154225714Y-48125057D02*
X154273333Y-48077438D01*
X154273333Y-48077438D02*
X154368571Y-48029819D01*
X154368571Y-48029819D02*
X154606666Y-48029819D01*
X154606666Y-48029819D02*
X154749523Y-48077438D01*
X155511428Y-48506009D02*
X155654285Y-48553628D01*
X155654285Y-48553628D02*
X155701904Y-48601247D01*
X155701904Y-48601247D02*
X155749523Y-48696485D01*
X155749523Y-48696485D02*
X155749523Y-48839342D01*
X155749523Y-48839342D02*
X155701904Y-48934580D01*
X155701904Y-48934580D02*
X155654285Y-48982200D01*
X155654285Y-48982200D02*
X155559047Y-49029819D01*
X155559047Y-49029819D02*
X155178095Y-49029819D01*
X155178095Y-49029819D02*
X155178095Y-48029819D01*
X155178095Y-48029819D02*
X155511428Y-48029819D01*
X155511428Y-48029819D02*
X155606666Y-48077438D01*
X155606666Y-48077438D02*
X155654285Y-48125057D01*
X155654285Y-48125057D02*
X155701904Y-48220295D01*
X155701904Y-48220295D02*
X155701904Y-48315533D01*
X155701904Y-48315533D02*
X155654285Y-48410771D01*
X155654285Y-48410771D02*
X155606666Y-48458390D01*
X155606666Y-48458390D02*
X155511428Y-48506009D01*
X155511428Y-48506009D02*
X155178095Y-48506009D01*
X151154286Y-49763152D02*
X151535238Y-49763152D01*
X151297143Y-49429819D02*
X151297143Y-50286961D01*
X151297143Y-50286961D02*
X151344762Y-50382200D01*
X151344762Y-50382200D02*
X151440000Y-50429819D01*
X151440000Y-50429819D02*
X151535238Y-50429819D01*
X152011429Y-50429819D02*
X151916191Y-50382200D01*
X151916191Y-50382200D02*
X151868572Y-50334580D01*
X151868572Y-50334580D02*
X151820953Y-50239342D01*
X151820953Y-50239342D02*
X151820953Y-49953628D01*
X151820953Y-49953628D02*
X151868572Y-49858390D01*
X151868572Y-49858390D02*
X151916191Y-49810771D01*
X151916191Y-49810771D02*
X152011429Y-49763152D01*
X152011429Y-49763152D02*
X152154286Y-49763152D01*
X152154286Y-49763152D02*
X152249524Y-49810771D01*
X152249524Y-49810771D02*
X152297143Y-49858390D01*
X152297143Y-49858390D02*
X152344762Y-49953628D01*
X152344762Y-49953628D02*
X152344762Y-50239342D01*
X152344762Y-50239342D02*
X152297143Y-50334580D01*
X152297143Y-50334580D02*
X152249524Y-50382200D01*
X152249524Y-50382200D02*
X152154286Y-50429819D01*
X152154286Y-50429819D02*
X152011429Y-50429819D01*
X152678096Y-49763152D02*
X152868572Y-50429819D01*
X152868572Y-50429819D02*
X153059048Y-49953628D01*
X153059048Y-49953628D02*
X153249524Y-50429819D01*
X153249524Y-50429819D02*
X153440000Y-49763152D01*
X153820953Y-50334580D02*
X153868572Y-50382200D01*
X153868572Y-50382200D02*
X153820953Y-50429819D01*
X153820953Y-50429819D02*
X153773334Y-50382200D01*
X153773334Y-50382200D02*
X153820953Y-50334580D01*
X153820953Y-50334580D02*
X153820953Y-50429819D01*
X155059048Y-50429819D02*
X155059048Y-49429819D01*
X155059048Y-49429819D02*
X155440000Y-49429819D01*
X155440000Y-49429819D02*
X155535238Y-49477438D01*
X155535238Y-49477438D02*
X155582857Y-49525057D01*
X155582857Y-49525057D02*
X155630476Y-49620295D01*
X155630476Y-49620295D02*
X155630476Y-49763152D01*
X155630476Y-49763152D02*
X155582857Y-49858390D01*
X155582857Y-49858390D02*
X155535238Y-49906009D01*
X155535238Y-49906009D02*
X155440000Y-49953628D01*
X155440000Y-49953628D02*
X155059048Y-49953628D01*
X156630476Y-50334580D02*
X156582857Y-50382200D01*
X156582857Y-50382200D02*
X156440000Y-50429819D01*
X156440000Y-50429819D02*
X156344762Y-50429819D01*
X156344762Y-50429819D02*
X156201905Y-50382200D01*
X156201905Y-50382200D02*
X156106667Y-50286961D01*
X156106667Y-50286961D02*
X156059048Y-50191723D01*
X156059048Y-50191723D02*
X156011429Y-50001247D01*
X156011429Y-50001247D02*
X156011429Y-49858390D01*
X156011429Y-49858390D02*
X156059048Y-49667914D01*
X156059048Y-49667914D02*
X156106667Y-49572676D01*
X156106667Y-49572676D02*
X156201905Y-49477438D01*
X156201905Y-49477438D02*
X156344762Y-49429819D01*
X156344762Y-49429819D02*
X156440000Y-49429819D01*
X156440000Y-49429819D02*
X156582857Y-49477438D01*
X156582857Y-49477438D02*
X156630476Y-49525057D01*
X157392381Y-49906009D02*
X157535238Y-49953628D01*
X157535238Y-49953628D02*
X157582857Y-50001247D01*
X157582857Y-50001247D02*
X157630476Y-50096485D01*
X157630476Y-50096485D02*
X157630476Y-50239342D01*
X157630476Y-50239342D02*
X157582857Y-50334580D01*
X157582857Y-50334580D02*
X157535238Y-50382200D01*
X157535238Y-50382200D02*
X157440000Y-50429819D01*
X157440000Y-50429819D02*
X157059048Y-50429819D01*
X157059048Y-50429819D02*
X157059048Y-49429819D01*
X157059048Y-49429819D02*
X157392381Y-49429819D01*
X157392381Y-49429819D02*
X157487619Y-49477438D01*
X157487619Y-49477438D02*
X157535238Y-49525057D01*
X157535238Y-49525057D02*
X157582857Y-49620295D01*
X157582857Y-49620295D02*
X157582857Y-49715533D01*
X157582857Y-49715533D02*
X157535238Y-49810771D01*
X157535238Y-49810771D02*
X157487619Y-49858390D01*
X157487619Y-49858390D02*
X157392381Y-49906009D01*
X157392381Y-49906009D02*
X157059048Y-49906009D01*
%TO.C,L2*%
X160180000Y-84430000D02*
X160180000Y-85030000D01*
X160180000Y-84730000D02*
X160780000Y-84430000D01*
X160180000Y-84730000D02*
X160780000Y-85030000D01*
X160780000Y-84430000D02*
X160780000Y-85030000D01*
%TO.C,L1*%
X154180000Y-84430000D02*
X154180000Y-85030000D01*
X154180000Y-84730000D02*
X154780000Y-84430000D01*
X154180000Y-84730000D02*
X154780000Y-85030000D01*
X154780000Y-84430000D02*
X154780000Y-85030000D01*
%TO.C,L0*%
X148180000Y-84430000D02*
X148180000Y-85030000D01*
X148180000Y-84730000D02*
X148780000Y-84430000D01*
X148180000Y-84730000D02*
X148780000Y-85030000D01*
X148780000Y-84430000D02*
X148780000Y-85030000D01*
%TO.C,U1*%
X150890000Y-51160000D02*
X150890000Y-47580000D01*
X157990000Y-51160000D02*
X150890000Y-51160000D01*
X157990000Y-51160000D02*
X157990000Y-47580000D01*
X145560000Y-47590000D02*
X163340000Y-47590000D01*
X163340000Y-80590000D01*
X145560000Y-80590000D01*
X145560000Y-47590000D01*
D11*
X150890000Y-46060000D02*
X157990000Y-46060000D01*
X157990000Y-51160000D01*
X150890000Y-51160000D01*
X150890000Y-46060000D01*
%TD*%
M02*
