%TF.GenerationSoftware,KiCad,Pcbnew,9.0.0*%
%TF.CreationDate,2025-08-09T09:14:43+03:00*%
%TF.ProjectId,keyatura,6b657961-7475-4726-912e-6b696361645f,rev?*%
%TF.SameCoordinates,Original*%
%TF.FileFunction,Paste,Bot*%
%TF.FilePolarity,Positive*%
%FSLAX46Y46*%
G04 Gerber Fmt 4.6, Leading zero omitted, Abs format (unit mm)*
G04 Created by KiCad (PCBNEW 9.0.0) date 2025-08-09 09:14:43*
%MOMM*%
%LPD*%
G01*
G04 APERTURE LIST*
G04 Aperture macros list*
%AMRoundRect*
0 Rectangle with rounded corners*
0 $1 Rounding radius*
0 $2 $3 $4 $5 $6 $7 $8 $9 X,Y pos of 4 corners*
0 Add a 4 corners polygon primitive as box body*
4,1,4,$2,$3,$4,$5,$6,$7,$8,$9,$2,$3,0*
0 Add four circle primitives for the rounded corners*
1,1,$1+$1,$2,$3*
1,1,$1+$1,$4,$5*
1,1,$1+$1,$6,$7*
1,1,$1+$1,$8,$9*
0 Add four rect primitives between the rounded corners*
20,1,$1+$1,$2,$3,$4,$5,0*
20,1,$1+$1,$4,$5,$6,$7,0*
20,1,$1+$1,$6,$7,$8,$9,0*
20,1,$1+$1,$8,$9,$2,$3,0*%
%AMRotRect*
0 Rectangle, with rotation*
0 The origin of the aperture is its center*
0 $1 length*
0 $2 width*
0 $3 Rotation angle, in degrees counterclockwise*
0 Add horizontal line*
21,1,$1,$2,0,0,$3*%
G04 Aperture macros list end*
%ADD10RoundRect,0.520000X-0.448666X-1.007720X1.007720X-0.448666X0.448666X1.007720X-1.007720X0.448666X0*%
%ADD11RoundRect,0.500000X0.422450X0.992301X-0.977920X0.454749X-0.422450X-0.992301X0.977920X-0.454749X0*%
%ADD12RoundRect,0.520000X-0.229345X-1.078981X1.078981X-0.229345X0.229345X1.078981X-1.078981X0.229345X0*%
%ADD13RoundRect,0.500000X0.206908X1.058449X-1.051098X0.241490X-0.206908X-1.058449X1.051098X-0.241490X0*%
%ADD14RoundRect,0.520000X-1.074815X-0.248140X0.248140X-1.074815X1.074815X0.248140X-0.248140X1.074815X0*%
%ADD15RoundRect,0.500000X1.046724X0.259798X-0.225349X1.054677X-1.046724X-0.259798X0.225349X-1.054677X0*%
%ADD16RoundRect,0.520000X-0.999736X-0.466185X0.466185X-0.999736X0.999736X0.466185X-0.466185X0.999736X0*%
%ADD17RoundRect,0.500000X0.969835X0.471747X-0.439704X0.984777X-0.969835X-0.471747X0.439704X-0.984777X0*%
%ADD18RoundRect,0.199800X-0.300200X-0.100200X0.300200X-0.100200X0.300200X0.100200X-0.300200X0.100200X0*%
%ADD19RoundRect,0.225000X-0.225000X0.400000X-0.225000X-0.400000X0.225000X-0.400000X0.225000X0.400000X0*%
%ADD20RoundRect,0.300000X-0.700000X-0.700000X0.700000X-0.700000X0.700000X0.700000X-0.700000X0.700000X0*%
%ADD21C,2.000000*%
%ADD22RoundRect,0.520000X0.000000X-1.103087X1.103087X0.000000X0.000000X1.103087X-1.103087X0.000000X0*%
%ADD23RoundRect,0.500000X-0.017678X1.078338X-1.078338X0.017678X0.017678X-1.078338X1.078338X-0.017678X0*%
%ADD24RoundRect,0.520000X-1.102919X-0.019252X0.019252X-1.102919X1.102919X0.019252X-0.019252X1.102919X0*%
%ADD25RoundRect,0.500000X1.077865X0.036495X-0.001145X1.078482X-1.077865X-0.036495X0.001145X-1.078482X0*%
%ADD26RoundRect,0.400000X-0.202152X-0.345385X0.381336X-0.121405X0.202152X0.345385X-0.381336X0.121405X0*%
%ADD27RotRect,1.425000X1.300000X21.000000*%
%ADD28RoundRect,0.400000X-0.379159X-0.128042X0.208149X-0.341804X0.379159X0.128042X-0.208149X0.341804X0*%
%ADD29RotRect,1.425000X1.300000X340.000000*%
%ADD30RoundRect,0.400000X-0.397495X-0.046412X0.132535X-0.377612X0.397495X0.046412X-0.132535X0.377612X0*%
%ADD31RotRect,1.425000X1.300000X328.000000*%
%ADD32RoundRect,0.400000X-0.044194X-0.397748X0.397748X0.044194X0.044194X0.397748X-0.397748X-0.044194X0*%
%ADD33RotRect,1.425000X1.300000X45.000000*%
%ADD34RoundRect,0.400000X-0.125925X-0.379867X0.398244X-0.039468X0.125925X0.379867X-0.398244X0.039468X0*%
%ADD35RotRect,1.425000X1.300000X33.000000*%
%ADD36RoundRect,0.400000X-0.398458X0.037246X0.051129X-0.396916X0.398458X-0.037246X-0.051129X0.396916X0*%
%ADD37RotRect,1.425000X1.300000X316.000000*%
G04 APERTURE END LIST*
D10*
%TO.C,SW22*%
X276691418Y-87200263D03*
D11*
X275174512Y-76021377D03*
D10*
X264362448Y-89683507D03*
D11*
X263154677Y-83356067D03*
%TD*%
D12*
%TO.C,SW20*%
X196845051Y-125947092D03*
D13*
X193037072Y-115327874D03*
D12*
X185301794Y-130939408D03*
D13*
X182804867Y-125001348D03*
%TD*%
D10*
%TO.C,SW29*%
X225892718Y-60125763D03*
D11*
X224375812Y-48946877D03*
D10*
X213563748Y-62609007D03*
D11*
X212355977Y-56281567D03*
%TD*%
D14*
%TO.C,SW2*%
X118385354Y-129978285D03*
D15*
X126400312Y-122039208D03*
D14*
X108982388Y-121626385D03*
D15*
X113308851Y-116853868D03*
%TD*%
D16*
%TO.C,SW8*%
X114815744Y-105273461D03*
D17*
X121004929Y-95841468D03*
D16*
X103881798Y-99059057D03*
D17*
X107121455Y-93491308D03*
%TD*%
D16*
%TO.C,SW1*%
X99222444Y-119781361D03*
D17*
X105411629Y-110349368D03*
D16*
X88288498Y-113566957D03*
D17*
X91528155Y-107999208D03*
%TD*%
D10*
%TO.C,SW36*%
X187771618Y-66958763D03*
D11*
X186254712Y-55779877D03*
D10*
X175442648Y-69442007D03*
D11*
X174234877Y-63114567D03*
%TD*%
D10*
%TO.C,SW19*%
X216707718Y-117153863D03*
D11*
X215190812Y-105974977D03*
D10*
X204378748Y-119637107D03*
D11*
X203170977Y-113309667D03*
%TD*%
D10*
%TO.C,SW28*%
X247606118Y-63804563D03*
D11*
X246089212Y-52625677D03*
D10*
X235277148Y-66287807D03*
D11*
X234069377Y-59960367D03*
%TD*%
D16*
%TO.C,SW13*%
X121487144Y-87429861D03*
D17*
X127676329Y-77997868D03*
D16*
X110553198Y-81215457D03*
D17*
X113792855Y-75647708D03*
%TD*%
D10*
%TO.C,SW30*%
X210518118Y-73400763D03*
D11*
X209001212Y-62221877D03*
D10*
X198189148Y-75884007D03*
D11*
X196981377Y-69556567D03*
%TD*%
D18*
%TO.C,BAT_KEY1*%
X150850000Y-133957000D03*
X150850000Y-136193000D03*
X158050000Y-133957000D03*
X158050000Y-136193000D03*
D19*
X152200000Y-136900000D03*
X155200000Y-136900000D03*
X156700000Y-136900000D03*
%TD*%
D10*
%TO.C,SW26*%
X201114518Y-102645963D03*
D11*
X199597612Y-91467077D03*
D10*
X188785548Y-105129207D03*
D11*
X187577777Y-98801767D03*
%TD*%
D20*
%TO.C,J1*%
X149450000Y-90450000D03*
X159450000Y-90450000D03*
%TD*%
D16*
%TO.C,SW10*%
X68324044Y-66432061D03*
D17*
X74513229Y-57000068D03*
D16*
X57390098Y-60217657D03*
D17*
X60629755Y-54649908D03*
%TD*%
D10*
%TO.C,SW31*%
X194443018Y-84802363D03*
D11*
X192926112Y-73623477D03*
D10*
X182114048Y-87285607D03*
D11*
X180906277Y-80958167D03*
%TD*%
D10*
%TO.C,SW23*%
X254277618Y-81648163D03*
D11*
X252760712Y-70469277D03*
D10*
X241948648Y-84131407D03*
D11*
X240740877Y-77803967D03*
%TD*%
D21*
%TO.C,U1*%
X162060000Y-51390000D03*
X162060000Y-53930000D03*
X162060000Y-56470000D03*
X162060000Y-59010000D03*
X162060000Y-61550000D03*
X162060000Y-64090000D03*
X162060000Y-66630000D03*
X162060000Y-69170000D03*
X162060000Y-71710000D03*
X162060000Y-74250000D03*
X162060000Y-76790000D03*
X162060000Y-79330000D03*
X146820000Y-51390000D03*
X146820000Y-53930000D03*
X146820000Y-56470000D03*
X146820000Y-59010000D03*
X146820000Y-61550000D03*
X146820000Y-64090000D03*
X146820000Y-66630000D03*
X146820000Y-69170000D03*
X146820000Y-71710000D03*
X146820000Y-74250000D03*
X146820000Y-76790000D03*
X146820000Y-79330000D03*
%TD*%
D10*
%TO.C,SW32*%
X263348518Y-51513063D03*
D11*
X261831612Y-40334177D03*
D10*
X251019548Y-53996307D03*
D11*
X249811777Y-47668867D03*
%TD*%
D16*
%TO.C,SW6*%
X83366044Y-80596861D03*
D17*
X89555229Y-71164868D03*
D16*
X72432098Y-74382457D03*
D17*
X75671755Y-68814708D03*
%TD*%
D16*
%TO.C,SW18*%
X128158644Y-69586261D03*
D17*
X134347829Y-60154268D03*
D16*
X117224698Y-63371857D03*
D17*
X120464355Y-57804108D03*
%TD*%
D10*
%TO.C,SW34*%
X219221318Y-42282163D03*
D11*
X217704412Y-31103277D03*
D10*
X206892348Y-44765407D03*
D11*
X205684577Y-38437967D03*
%TD*%
D16*
%TO.C,SW7*%
X98740644Y-93871861D03*
D17*
X104929829Y-84439868D03*
D16*
X87806698Y-87657457D03*
D17*
X91046355Y-82089708D03*
%TD*%
D10*
%TO.C,SW27*%
X270019918Y-69356663D03*
D11*
X268503012Y-58177777D03*
D10*
X257690948Y-71839907D03*
D11*
X256483177Y-65512467D03*
%TD*%
D16*
%TO.C,SW12*%
X105412144Y-76028261D03*
D17*
X111601329Y-66596268D03*
D16*
X94478198Y-69813857D03*
D17*
X97717855Y-64246108D03*
%TD*%
D10*
%TO.C,SW24*%
X232564218Y-77969363D03*
D11*
X231047312Y-66790477D03*
D10*
X220235248Y-80452607D03*
D11*
X219027477Y-74125167D03*
%TD*%
D16*
%TO.C,SW5*%
X61652644Y-84275661D03*
D17*
X67841829Y-74843668D03*
D16*
X50718698Y-78061257D03*
D17*
X53958355Y-72493508D03*
%TD*%
D16*
%TO.C,SW9*%
X45910244Y-71984161D03*
D17*
X52099429Y-62552168D03*
D16*
X34976298Y-65769757D03*
D17*
X38215955Y-60202008D03*
%TD*%
D16*
%TO.C,SW4*%
X39238844Y-89827761D03*
D17*
X45428029Y-80395768D03*
D16*
X28304898Y-83613357D03*
D17*
X31544555Y-78045608D03*
%TD*%
D16*
%TO.C,SW15*%
X74995544Y-48588461D03*
D17*
X81184729Y-39156468D03*
D16*
X64061598Y-42374057D03*
D17*
X67301255Y-36806308D03*
%TD*%
D22*
%TO.C,SW21*%
X179244625Y-138677935D03*
D23*
X173311999Y-129082496D03*
D22*
X168991577Y-145961135D03*
D23*
X165314622Y-140671976D03*
%TD*%
D24*
%TO.C,SW3*%
X135009273Y-143936641D03*
D25*
X144499712Y-137837455D03*
D24*
X127548242Y-133812263D03*
D25*
X132772423Y-130043560D03*
%TD*%
D10*
%TO.C,SW35*%
X203846618Y-55557163D03*
D11*
X202329712Y-44378277D03*
D10*
X191517648Y-58040407D03*
D11*
X190309877Y-51712967D03*
%TD*%
D10*
%TO.C,SW25*%
X217189518Y-91244363D03*
D11*
X215672612Y-80065477D03*
D10*
X204860548Y-93727607D03*
D11*
X203652777Y-87400167D03*
%TD*%
D16*
%TO.C,SW14*%
X52581744Y-54140561D03*
D17*
X58770929Y-44708568D03*
D16*
X41647798Y-47926157D03*
D17*
X44887455Y-42358408D03*
%TD*%
D10*
%TO.C,SW33*%
X240934718Y-45960963D03*
D11*
X239417812Y-34782077D03*
D10*
X228605748Y-48444207D03*
D11*
X227397977Y-42116767D03*
%TD*%
D16*
%TO.C,SW17*%
X112083544Y-58184661D03*
D17*
X118272729Y-48752668D03*
D16*
X101149598Y-51970257D03*
D17*
X104389255Y-46402508D03*
%TD*%
D16*
%TO.C,SW16*%
X96708944Y-44909661D03*
D17*
X102898129Y-35477668D03*
D16*
X85774998Y-38695257D03*
D17*
X89014655Y-33127508D03*
%TD*%
D16*
%TO.C,SW11*%
X90037444Y-62753261D03*
D17*
X96226629Y-53321268D03*
D16*
X79103498Y-56538857D03*
D17*
X82343155Y-50971108D03*
%TD*%
D26*
%TO.C,D30*%
X209875175Y-77289017D03*
D27*
X206537625Y-78570183D03*
%TD*%
D26*
%TO.C,D22*%
X276048475Y-91088617D03*
D27*
X272710925Y-92369783D03*
%TD*%
D28*
%TO.C,D18*%
X125122501Y-72099061D03*
D29*
X121763099Y-70876339D03*
%TD*%
D28*
%TO.C,D8*%
X111779601Y-107786261D03*
D29*
X108420199Y-106563539D03*
%TD*%
D28*
%TO.C,D11*%
X87001301Y-65266061D03*
D29*
X83641899Y-64043339D03*
%TD*%
D28*
%TO.C,D17*%
X109047401Y-60697361D03*
D29*
X105687999Y-59474639D03*
%TD*%
D30*
%TO.C,D2*%
X114893086Y-131804931D03*
D31*
X111861314Y-129910469D03*
%TD*%
D26*
%TO.C,D28*%
X246963275Y-67692817D03*
D27*
X243625725Y-68973983D03*
%TD*%
D26*
%TO.C,D34*%
X218578375Y-46170517D03*
D27*
X215240825Y-47451683D03*
%TD*%
D26*
%TO.C,D29*%
X225249875Y-64014117D03*
D27*
X221912325Y-65295283D03*
%TD*%
D32*
%TO.C,D21*%
X180238853Y-142491547D03*
D33*
X177710947Y-145019453D03*
%TD*%
D26*
%TO.C,D25*%
X216546675Y-95132617D03*
D27*
X213209125Y-96413783D03*
%TD*%
D34*
%TO.C,D20*%
X197024624Y-129884158D03*
D35*
X194026376Y-131831242D03*
%TD*%
D28*
%TO.C,D16*%
X93672801Y-47422461D03*
D29*
X90313399Y-46199739D03*
%TD*%
D26*
%TO.C,D26*%
X200471575Y-106534317D03*
D27*
X197134025Y-107815483D03*
%TD*%
D26*
%TO.C,D36*%
X187128675Y-70847117D03*
D27*
X183791125Y-72128283D03*
%TD*%
D26*
%TO.C,D31*%
X193800175Y-88690717D03*
D27*
X190462625Y-89971883D03*
%TD*%
D26*
%TO.C,D33*%
X240291775Y-49849217D03*
D27*
X236954225Y-51130383D03*
%TD*%
D26*
%TO.C,D35*%
X203203775Y-59445417D03*
D27*
X199866225Y-60726583D03*
%TD*%
D26*
%TO.C,D32*%
X262705575Y-55401417D03*
D27*
X259368025Y-56682583D03*
%TD*%
D28*
%TO.C,D6*%
X80329901Y-83109661D03*
D29*
X76970499Y-81886939D03*
%TD*%
D28*
%TO.C,D15*%
X71959401Y-51101161D03*
D29*
X68599999Y-49878439D03*
%TD*%
D28*
%TO.C,D9*%
X42874101Y-74496961D03*
D29*
X39514699Y-73274239D03*
%TD*%
D36*
%TO.C,D3*%
X131213620Y-144997202D03*
D37*
X128641980Y-142513798D03*
%TD*%
D26*
%TO.C,D23*%
X253634675Y-85536417D03*
D27*
X250297125Y-86817583D03*
%TD*%
D26*
%TO.C,D24*%
X231921275Y-81857717D03*
D27*
X228583725Y-83138883D03*
%TD*%
D26*
%TO.C,D19*%
X216064875Y-121042217D03*
D27*
X212727325Y-122323383D03*
%TD*%
D28*
%TO.C,D5*%
X58616501Y-86788361D03*
D29*
X55257099Y-85565639D03*
%TD*%
D28*
%TO.C,D1*%
X96186301Y-122294161D03*
D29*
X92826899Y-121071439D03*
%TD*%
D28*
%TO.C,D13*%
X118451001Y-89942661D03*
D29*
X115091599Y-88719939D03*
%TD*%
D28*
%TO.C,D4*%
X36202701Y-92340561D03*
D29*
X32843299Y-91117839D03*
%TD*%
D28*
%TO.C,D10*%
X65287901Y-68944761D03*
D29*
X61928499Y-67722039D03*
%TD*%
D26*
%TO.C,D27*%
X269377075Y-73245017D03*
D27*
X266039525Y-74526183D03*
%TD*%
D28*
%TO.C,D12*%
X102376001Y-78540961D03*
D29*
X99016599Y-77318239D03*
%TD*%
D28*
%TO.C,D14*%
X49545601Y-56653361D03*
D29*
X46186199Y-55430639D03*
%TD*%
D28*
%TO.C,D7*%
X95704501Y-96384561D03*
D29*
X92345099Y-95161839D03*
%TD*%
M02*
