M48
; DRILL file {KiCad 9.0.0} date 2025-08-07T18:40:54+0300
; FORMAT={-:-/ absolute / metric / decimal}
; #@! TF.CreationDate,2025-08-07T18:40:54+03:00
; #@! TF.GenerationSoftware,Kicad,Pcbnew,9.0.0
; #@! TF.FileFunction,Plated,1,2,PTH
FMAT,2
METRIC
; #@! TA.AperFunction,Plated,PTH,ComponentDrill
T1C0.200
; #@! TA.AperFunction,Plated,PTH,ComponentDrill
T2C0.400
; #@! TA.AperFunction,Plated,PTH,ComponentDrill
T3C1.000
; #@! TA.AperFunction,Plated,PTH,ComponentDrill
T4C1.500
; #@! TA.AperFunction,Plated,PTH,ComponentDrill
T5C4.000
%
G90
G05
T1
X147.48Y-84.73
X147.48Y-87.73
X149.46Y-91.06
X149.48Y-84.73
X149.48Y-87.73
X150.85Y-133.957
X150.85Y-136.193
X151.55Y-142.32
X151.55Y-146.02
X152.2Y-136.9
X153.48Y-84.73
X153.48Y-87.73
X155.2Y-136.9
X155.48Y-84.73
X155.48Y-87.73
X156.7Y-136.9
X157.35Y-142.32
X157.35Y-146.02
X158.05Y-133.957
X158.05Y-136.193
X159.46Y-91.06
X159.48Y-84.73
X159.48Y-87.73
X161.48Y-84.73
X161.48Y-87.73
T2
X28.305Y-83.613
X31.545Y-78.046
X32.843Y-91.118
X34.976Y-65.77
X36.203Y-92.341
X38.216Y-60.202
X39.239Y-89.828
X39.515Y-73.274
X41.648Y-47.926
X42.874Y-74.497
X44.887Y-42.358
X45.428Y-80.396
X45.91Y-71.984
X46.186Y-55.431
X49.546Y-56.653
X50.719Y-78.061
X52.099Y-62.552
X52.582Y-54.141
X53.958Y-72.494
X55.257Y-85.566
X57.39Y-60.218
X58.617Y-86.788
X58.771Y-44.709
X60.63Y-54.65
X61.653Y-84.276
X61.928Y-67.722
X64.062Y-42.374
X65.288Y-68.945
X67.301Y-36.806
X67.842Y-74.844
X68.324Y-66.432
X68.6Y-49.878
X71.959Y-51.101
X72.432Y-74.382
X74.513Y-57.0
X74.996Y-48.588
X75.672Y-68.815
X76.97Y-81.887
X79.103Y-56.539
X80.33Y-83.11
X81.185Y-39.156
X82.343Y-50.971
X83.366Y-80.597
X83.642Y-64.043
X85.775Y-38.695
X87.001Y-65.266
X87.807Y-87.657
X88.288Y-113.567
X89.015Y-33.128
X89.555Y-71.165
X90.037Y-62.753
X90.313Y-46.2
X91.046Y-82.09
X91.528Y-107.999
X92.345Y-95.162
X92.827Y-121.071
X93.673Y-47.422
X94.478Y-69.814
X95.705Y-96.385
X96.186Y-122.294
X96.227Y-53.321
X96.709Y-44.91
X97.718Y-64.246
X98.741Y-93.872
X99.017Y-77.318
X99.222Y-119.781
X101.15Y-51.97
X102.376Y-78.541
X102.898Y-35.478
X103.882Y-99.059
X104.389Y-46.403
X104.93Y-84.44
X105.412Y-110.349
X105.412Y-76.028
X105.688Y-59.475
X107.121Y-93.491
X108.42Y-106.564
X108.982Y-121.626
X109.047Y-60.697
X110.553Y-81.215
X111.601Y-66.596
X111.78Y-107.786
X111.861Y-129.91
X112.084Y-58.185
X113.309Y-116.854
X113.793Y-75.648
X114.816Y-105.273
X114.893Y-131.805
X115.092Y-88.72
X117.225Y-63.372
X118.273Y-48.753
X118.385Y-129.978
X118.451Y-89.943
X120.464Y-57.804
X121.005Y-95.841
X121.487Y-87.43
X121.763Y-70.876
X125.123Y-72.099
X126.4Y-122.039
X127.548Y-133.812
X127.676Y-77.998
X128.159Y-69.586
X128.642Y-142.514
X131.214Y-144.997
X132.772Y-130.044
X134.348Y-60.154
X135.009Y-143.937
X144.5Y-137.837
X165.315Y-140.672
X168.992Y-145.961
X173.312Y-129.082
X174.235Y-63.115
X175.443Y-69.442
X177.711Y-145.019
X179.245Y-138.678
X180.239Y-142.492
X180.906Y-80.958
X182.114Y-87.286
X182.805Y-125.001
X183.791Y-72.128
X185.302Y-130.939
X186.255Y-55.78
X187.129Y-70.847
X187.578Y-98.802
X187.772Y-66.959
X188.786Y-105.129
X190.31Y-51.713
X190.463Y-89.972
X191.518Y-58.04
X192.926Y-73.623
X193.037Y-115.328
X193.8Y-88.691
X194.026Y-131.831
X194.443Y-84.802
X196.845Y-125.947
X196.981Y-69.557
X197.025Y-129.884
X197.134Y-107.815
X198.189Y-75.884
X199.598Y-91.467
X199.866Y-60.727
X200.472Y-106.534
X201.115Y-102.646
X202.33Y-44.378
X203.171Y-113.31
X203.204Y-59.445
X203.653Y-87.4
X203.847Y-55.557
X204.379Y-119.637
X204.861Y-93.728
X205.685Y-38.438
X206.538Y-78.57
X206.892Y-44.765
X209.001Y-62.222
X209.875Y-77.289
X210.518Y-73.401
X212.356Y-56.282
X212.727Y-122.323
X213.209Y-96.414
X213.564Y-62.609
X215.191Y-105.975
X215.241Y-47.452
X215.673Y-80.065
X216.065Y-121.042
X216.547Y-95.133
X216.708Y-117.154
X217.19Y-91.244
X217.704Y-31.103
X218.578Y-46.171
X219.027Y-74.125
X219.221Y-42.282
X220.235Y-80.453
X221.912Y-65.295
X224.376Y-48.947
X225.25Y-64.014
X225.893Y-60.126
X227.398Y-42.117
X228.584Y-83.139
X228.606Y-48.444
X231.047Y-66.79
X231.921Y-81.858
X232.564Y-77.969
X234.069Y-59.96
X235.277Y-66.288
X236.954Y-51.13
X239.418Y-34.782
X240.292Y-49.849
X240.741Y-77.804
X240.935Y-45.961
X241.949Y-84.131
X243.626Y-68.974
X246.089Y-52.626
X246.963Y-67.693
X247.606Y-63.805
X249.812Y-47.669
X250.297Y-86.818
X251.02Y-53.996
X252.761Y-70.469
X253.635Y-85.536
X254.278Y-81.648
X256.483Y-65.512
X257.691Y-71.84
X259.368Y-56.683
X261.832Y-40.334
X262.706Y-55.401
X263.155Y-83.356
X263.349Y-51.513
X264.362Y-89.684
X266.04Y-74.526
X268.503Y-58.178
X269.377Y-73.245
X270.02Y-69.357
X272.711Y-92.37
X275.175Y-76.021
X276.048Y-91.089
X276.691Y-87.2
T3
X44.24Y-79.889
X50.911Y-62.045
X57.583Y-44.202
X66.654Y-74.337
X73.325Y-56.493
X79.996Y-38.649
X88.367Y-70.658
X95.038Y-52.814
X101.71Y-34.971
X103.742Y-83.933
X104.223Y-109.842
X110.413Y-66.089
X117.084Y-48.246
X119.817Y-95.334
X125.343Y-121.296
X126.488Y-77.491
X133.16Y-59.647
X143.62Y-136.891
X172.35Y-129.945
X185.025Y-56.177
X191.697Y-74.02
X191.917Y-115.972
X198.368Y-91.864
X201.1Y-44.775
X207.772Y-62.619
X213.961Y-106.372
X214.443Y-80.462
X216.475Y-31.5
X223.146Y-49.344
X229.818Y-67.187
X238.188Y-35.179
X244.86Y-53.023
X251.531Y-70.866
X260.602Y-40.731
X267.274Y-58.575
X273.945Y-76.418
T4
X146.82Y-51.39
X146.82Y-53.93
X146.82Y-56.47
X146.82Y-59.01
X146.82Y-61.55
X146.82Y-64.09
X146.82Y-66.63
X146.82Y-69.17
X146.82Y-71.71
X146.82Y-74.25
X146.82Y-76.79
X146.82Y-79.33
X162.06Y-51.39
X162.06Y-53.93
X162.06Y-56.47
X162.06Y-59.01
X162.06Y-61.55
X162.06Y-64.09
X162.06Y-66.63
X162.06Y-69.17
X162.06Y-71.71
X162.06Y-74.25
X162.06Y-76.79
X162.06Y-79.33
T5
X44.67Y-96.83
X52.93Y-33.32
X120.71Y-41.69
X132.45Y-115.0
X176.45Y-115.0
X180.0Y-51.08
X254.56Y-34.43
X264.0Y-96.0
M30
