%TF.GenerationSoftware,KiCad,Pcbnew,9.0.0*%
%TF.CreationDate,2025-08-09T09:14:43+03:00*%
%TF.ProjectId,keyatura,6b657961-7475-4726-912e-6b696361645f,rev?*%
%TF.SameCoordinates,Original*%
%TF.FileFunction,Profile,NP*%
%FSLAX46Y46*%
G04 Gerber Fmt 4.6, Leading zero omitted, Abs format (unit mm)*
G04 Created by KiCad (PCBNEW 9.0.0) date 2025-08-09 09:14:43*
%MOMM*%
%LPD*%
G01*
G04 APERTURE LIST*
%TA.AperFunction,Profile*%
%ADD10C,0.200000*%
%TD*%
%TA.AperFunction,Profile*%
%ADD11C,0.050000*%
%TD*%
G04 APERTURE END LIST*
D10*
X152479468Y-153761778D02*
X156441414Y-153761778D01*
X34350000Y-96564606D02*
G75*
G02*
X27160072Y-77972146I6860300J13339406D01*
G01*
X111776523Y-136532300D02*
X131395626Y-150180021D01*
X160460441Y-76437497D02*
X160460441Y-50430900D01*
X150460591Y-81437497D02*
X154460441Y-81437497D01*
X95091771Y-27617580D02*
X51599544Y-29820291D01*
X146622720Y-47665173D02*
X101662060Y-28769940D01*
X266182248Y-36305420D02*
X281760822Y-77972209D01*
X281760822Y-77972209D02*
G75*
G02*
X274552735Y-96573933I-14050022J-5253091D01*
G01*
X110070944Y-135506674D02*
G75*
G02*
X111776521Y-136532303I-6860344J-13339426D01*
G01*
X160460441Y-79437500D02*
G75*
G02*
X158460441Y-81437541I-2000041J0D01*
G01*
X160460441Y-50430900D02*
G75*
G02*
X162304134Y-47662657I3000059J0D01*
G01*
X166104165Y-153761778D02*
X156441414Y-153761778D01*
X42738624Y-36305447D02*
G75*
G02*
X51599544Y-29820284I9366836J-3502173D01*
G01*
X207258822Y-28769940D02*
G75*
G02*
X213829111Y-27617576I5811578J-13828460D01*
G01*
D11*
X137950000Y-92500000D02*
X170950000Y-92500000D01*
X170950000Y-125500000D01*
X137950000Y-125500000D01*
X137950000Y-92500000D01*
D10*
X197144339Y-136532315D02*
X177525311Y-150179983D01*
X177525311Y-150179983D02*
G75*
G02*
X166104165Y-153761748I-11421211J16418583D01*
G01*
X146622720Y-47665173D02*
G75*
G02*
X148460439Y-50430900I-1162320J-2765727D01*
G01*
X42738624Y-36305447D02*
X27160082Y-77972150D01*
X197144339Y-136532315D02*
G75*
G02*
X198849979Y-135506653I8565561J-12313185D01*
G01*
X129208791Y-62790000D02*
G75*
G02*
X124208791Y-62790000I-2500000J0D01*
G01*
X124208791Y-62790000D02*
G75*
G02*
X129208791Y-62790000I2500000J0D01*
G01*
X148460441Y-76437497D02*
X148460441Y-50430900D01*
X142816691Y-153761778D02*
X152479468Y-153761778D01*
X158460441Y-81437497D02*
X154460441Y-81437497D01*
X162304136Y-47662662D02*
X207258822Y-28769940D01*
X213829111Y-27617580D02*
X257321324Y-29820290D01*
X257321324Y-29820290D02*
G75*
G02*
X266182233Y-36305425I-505824J-9987210D01*
G01*
X148460441Y-76437497D02*
X148460441Y-79450964D01*
X95091771Y-27617580D02*
G75*
G02*
X101662061Y-28769937I758729J-14980820D01*
G01*
X160460441Y-76437497D02*
X160460441Y-79437500D01*
X142816691Y-153761778D02*
G75*
G02*
X131395623Y-150180025I9J19999978D01*
G01*
X34350000Y-96564606D02*
X110070944Y-135506674D01*
X274552737Y-96573937D02*
X198849979Y-135506653D01*
X150460591Y-81437497D02*
G75*
G02*
X148460450Y-79450964I9J2000197D01*
G01*
M02*
