%TF.GenerationSoftware,KiCad,Pcbnew,9.0.0*%
%TF.CreationDate,2025-08-09T09:14:43+03:00*%
%TF.ProjectId,keyatura,6b657961-7475-4726-912e-6b696361645f,rev?*%
%TF.SameCoordinates,Original*%
%TF.FileFunction,Legend,Bot*%
%TF.FilePolarity,Positive*%
%FSLAX46Y46*%
G04 Gerber Fmt 4.6, Leading zero omitted, Abs format (unit mm)*
G04 Created by KiCad (PCBNEW 9.0.0) date 2025-08-09 09:14:43*
%MOMM*%
%LPD*%
G01*
G04 APERTURE LIST*
%ADD10C,0.150000*%
%ADD11C,0.300000*%
G04 APERTURE END LIST*
D10*
X159086779Y-88638866D02*
X159848684Y-88638866D01*
X149046779Y-88638866D02*
X149808684Y-88638866D01*
X149427731Y-89019819D02*
X149427731Y-88257914D01*
D11*
%TO.C,BAT_KEY1*%
X150030400Y-134309600D02*
X150030400Y-135746440D01*
X159791220Y-135020800D02*
G75*
G02*
X158354380Y-135020800I-718420J0D01*
G01*
X158354380Y-135020800D02*
G75*
G02*
X159791220Y-135020800I718420J0D01*
G01*
D10*
%TO.C,D30*%
X207918794Y-78575574D02*
X207560426Y-77641994D01*
X207739610Y-78108784D02*
X208759016Y-78253043D01*
X207739610Y-78108784D02*
X208400648Y-77319463D01*
X208759016Y-78253043D02*
X208400648Y-77319463D01*
%TO.C,D22*%
X274092094Y-92375174D02*
X273733726Y-91441594D01*
X273912910Y-91908384D02*
X274932316Y-92052643D01*
X273912910Y-91908384D02*
X274573948Y-91119063D01*
X274932316Y-92052643D02*
X274573948Y-91119063D01*
%TO.C,D18*%
X122801944Y-71786536D02*
X123143964Y-70846844D01*
X122972954Y-71316690D02*
X123647667Y-72094354D01*
X122972954Y-71316690D02*
X123989687Y-71154662D01*
X123647667Y-72094354D02*
X123989687Y-71154662D01*
%TO.C,D8*%
X109459044Y-107473736D02*
X109801064Y-106534044D01*
X109630054Y-107003890D02*
X110304767Y-107781554D01*
X109630054Y-107003890D02*
X110646787Y-106841862D01*
X110304767Y-107781554D02*
X110646787Y-106841862D01*
%TO.C,D11*%
X84680744Y-64953536D02*
X85022764Y-64013844D01*
X84851754Y-64483690D02*
X85526467Y-65261354D01*
X84851754Y-64483690D02*
X85868487Y-64321662D01*
X85526467Y-65261354D02*
X85868487Y-64321662D01*
%TO.C,D17*%
X106726844Y-60384836D02*
X107068864Y-59445144D01*
X106897854Y-59914990D02*
X107572567Y-60692654D01*
X106897854Y-59914990D02*
X107914587Y-59752962D01*
X107572567Y-60692654D02*
X107914587Y-59752962D01*
%TO.C,D2*%
X112688216Y-131016764D02*
X113218136Y-130168716D01*
X112953176Y-130592740D02*
X113451460Y-131493692D01*
X112953176Y-130592740D02*
X113981379Y-130645644D01*
X113451460Y-131493692D02*
X113981379Y-130645644D01*
%TO.C,D28*%
X245006894Y-68979374D02*
X244648526Y-68045794D01*
X244827710Y-68512584D02*
X245847116Y-68656843D01*
X244827710Y-68512584D02*
X245488748Y-67723263D01*
X245847116Y-68656843D02*
X245488748Y-67723263D01*
%TO.C,D34*%
X216621994Y-47457074D02*
X216263626Y-46523494D01*
X216442810Y-46990284D02*
X217462216Y-47134543D01*
X216442810Y-46990284D02*
X217103848Y-46200963D01*
X217462216Y-47134543D02*
X217103848Y-46200963D01*
%TO.C,D29*%
X223293494Y-65300674D02*
X222935126Y-64367094D01*
X223114310Y-64833884D02*
X224133716Y-64978143D01*
X223114310Y-64833884D02*
X223775348Y-64044563D01*
X224133716Y-64978143D02*
X223775348Y-64044563D01*
%TO.C,D21*%
X178974900Y-144462607D02*
X178267793Y-143755500D01*
X178621347Y-144109053D02*
X179611296Y-143826211D01*
X178621347Y-144109053D02*
X178904189Y-143119104D01*
X179611296Y-143826211D02*
X178904189Y-143119104D01*
%TO.C,D25*%
X214590294Y-96419174D02*
X214231926Y-95485594D01*
X214411110Y-95952384D02*
X215430516Y-96096643D01*
X214411110Y-95952384D02*
X215072148Y-95163063D01*
X215430516Y-96096643D02*
X215072148Y-95163063D01*
%TO.C,D20*%
X195378484Y-131549355D02*
X194833845Y-130710684D01*
X195106165Y-131130020D02*
X196133288Y-131059180D01*
X195106165Y-131130020D02*
X195588649Y-130220509D01*
X196133288Y-131059180D02*
X195588649Y-130220509D01*
%TO.C,D16*%
X91352244Y-47109936D02*
X91694264Y-46170244D01*
X91523254Y-46640090D02*
X92197967Y-47417754D01*
X91523254Y-46640090D02*
X92539987Y-46478062D01*
X92197967Y-47417754D02*
X92539987Y-46478062D01*
%TO.C,D26*%
X198515194Y-107820874D02*
X198156826Y-106887294D01*
X198336010Y-107354084D02*
X199355416Y-107498343D01*
X198336010Y-107354084D02*
X198997048Y-106564763D01*
X199355416Y-107498343D02*
X198997048Y-106564763D01*
%TO.C,D36*%
X185172294Y-72133674D02*
X184813926Y-71200094D01*
X184993110Y-71666884D02*
X186012516Y-71811143D01*
X184993110Y-71666884D02*
X185654148Y-70877563D01*
X186012516Y-71811143D02*
X185654148Y-70877563D01*
%TO.C,D31*%
X191843794Y-89977274D02*
X191485426Y-89043694D01*
X191664610Y-89510484D02*
X192684016Y-89654743D01*
X191664610Y-89510484D02*
X192325648Y-88721163D01*
X192684016Y-89654743D02*
X192325648Y-88721163D01*
%TO.C,D33*%
X238335394Y-51135774D02*
X237977026Y-50202194D01*
X238156210Y-50668984D02*
X239175616Y-50813243D01*
X238156210Y-50668984D02*
X238817248Y-49879663D01*
X239175616Y-50813243D02*
X238817248Y-49879663D01*
%TO.C,D35*%
X201247394Y-60731974D02*
X200889026Y-59798394D01*
X201068210Y-60265184D02*
X202087616Y-60409443D01*
X201068210Y-60265184D02*
X201729248Y-59475863D01*
X202087616Y-60409443D02*
X201729248Y-59475863D01*
%TO.C,D32*%
X260749194Y-56687974D02*
X260390826Y-55754394D01*
X260570010Y-56221184D02*
X261589416Y-56365443D01*
X260570010Y-56221184D02*
X261231048Y-55431863D01*
X261589416Y-56365443D02*
X261231048Y-55431863D01*
%TO.C,D6*%
X78009344Y-82797136D02*
X78351364Y-81857444D01*
X78180354Y-82327290D02*
X78855067Y-83104954D01*
X78180354Y-82327290D02*
X79197087Y-82165262D01*
X78855067Y-83104954D02*
X79197087Y-82165262D01*
%TO.C,D15*%
X69638844Y-50788636D02*
X69980864Y-49848944D01*
X69809854Y-50318790D02*
X70484567Y-51096454D01*
X69809854Y-50318790D02*
X70826587Y-50156762D01*
X70484567Y-51096454D02*
X70826587Y-50156762D01*
%TO.C,D9*%
X40553544Y-74184436D02*
X40895564Y-73244744D01*
X40724554Y-73714590D02*
X41399267Y-74492254D01*
X40724554Y-73714590D02*
X41741287Y-73552562D01*
X41399267Y-74492254D02*
X41741287Y-73552562D01*
%TO.C,D3*%
X129220801Y-143767841D02*
X129915459Y-143048501D01*
X129568130Y-143408171D02*
X129868207Y-144393033D01*
X129568130Y-143408171D02*
X130562865Y-143673693D01*
X129868207Y-144393033D02*
X130562865Y-143673693D01*
%TO.C,D23*%
X251678294Y-86822974D02*
X251319926Y-85889394D01*
X251499110Y-86356184D02*
X252518516Y-86500443D01*
X251499110Y-86356184D02*
X252160148Y-85566863D01*
X252518516Y-86500443D02*
X252160148Y-85566863D01*
%TO.C,D24*%
X229964894Y-83144274D02*
X229606526Y-82210694D01*
X229785710Y-82677484D02*
X230805116Y-82821743D01*
X229785710Y-82677484D02*
X230446748Y-81888163D01*
X230805116Y-82821743D02*
X230446748Y-81888163D01*
%TO.C,D19*%
X214108494Y-122328774D02*
X213750126Y-121395194D01*
X213929310Y-121861984D02*
X214948716Y-122006243D01*
X213929310Y-121861984D02*
X214590348Y-121072663D01*
X214948716Y-122006243D02*
X214590348Y-121072663D01*
%TO.C,D5*%
X56295944Y-86475836D02*
X56637964Y-85536144D01*
X56466954Y-86005990D02*
X57141667Y-86783654D01*
X56466954Y-86005990D02*
X57483687Y-85843962D01*
X57141667Y-86783654D02*
X57483687Y-85843962D01*
%TO.C,D1*%
X93865744Y-121981636D02*
X94207764Y-121041944D01*
X94036754Y-121511790D02*
X94711467Y-122289454D01*
X94036754Y-121511790D02*
X95053487Y-121349762D01*
X94711467Y-122289454D02*
X95053487Y-121349762D01*
%TO.C,D13*%
X116130444Y-89630136D02*
X116472464Y-88690444D01*
X116301454Y-89160290D02*
X116976167Y-89937954D01*
X116301454Y-89160290D02*
X117318187Y-88998262D01*
X116976167Y-89937954D02*
X117318187Y-88998262D01*
%TO.C,D4*%
X33882144Y-92028036D02*
X34224164Y-91088344D01*
X34053154Y-91558190D02*
X34727867Y-92335854D01*
X34053154Y-91558190D02*
X35069887Y-91396162D01*
X34727867Y-92335854D02*
X35069887Y-91396162D01*
%TO.C,D10*%
X62967344Y-68632236D02*
X63309364Y-67692544D01*
X63138354Y-68162390D02*
X63813067Y-68940054D01*
X63138354Y-68162390D02*
X64155087Y-68000362D01*
X63813067Y-68940054D02*
X64155087Y-68000362D01*
%TO.C,D27*%
X267420694Y-74531574D02*
X267062326Y-73597994D01*
X267241510Y-74064784D02*
X268260916Y-74209043D01*
X267241510Y-74064784D02*
X267902548Y-73275463D01*
X268260916Y-74209043D02*
X267902548Y-73275463D01*
%TO.C,D12*%
X100055444Y-78228436D02*
X100397464Y-77288744D01*
X100226454Y-77758590D02*
X100901167Y-78536254D01*
X100226454Y-77758590D02*
X101243187Y-77596562D01*
X100901167Y-78536254D02*
X101243187Y-77596562D01*
%TO.C,D14*%
X47225044Y-56340836D02*
X47567064Y-55401144D01*
X47396054Y-55870990D02*
X48070767Y-56648654D01*
X47396054Y-55870990D02*
X48412787Y-55708962D01*
X48070767Y-56648654D02*
X48412787Y-55708962D01*
%TO.C,D7*%
X93383944Y-96072036D02*
X93725964Y-95132344D01*
X93554954Y-95602190D02*
X94229667Y-96379854D01*
X93554954Y-95602190D02*
X94571687Y-95440162D01*
X94229667Y-96379854D02*
X94571687Y-95440162D01*
%TD*%
M02*
