%TF.GenerationSoftware,KiCad,Pcbnew,9.0.0*%
%TF.CreationDate,2025-08-09T09:14:43+03:00*%
%TF.ProjectId,keyatura,6b657961-7475-4726-912e-6b696361645f,rev?*%
%TF.SameCoordinates,Original*%
%TF.FileFunction,Soldermask,Bot*%
%TF.FilePolarity,Negative*%
%FSLAX46Y46*%
G04 Gerber Fmt 4.6, Leading zero omitted, Abs format (unit mm)*
G04 Created by KiCad (PCBNEW 9.0.0) date 2025-08-09 09:14:43*
%MOMM*%
%LPD*%
G01*
G04 APERTURE LIST*
G04 Aperture macros list*
%AMRoundRect*
0 Rectangle with rounded corners*
0 $1 Rounding radius*
0 $2 $3 $4 $5 $6 $7 $8 $9 X,Y pos of 4 corners*
0 Add a 4 corners polygon primitive as box body*
4,1,4,$2,$3,$4,$5,$6,$7,$8,$9,$2,$3,0*
0 Add four circle primitives for the rounded corners*
1,1,$1+$1,$2,$3*
1,1,$1+$1,$4,$5*
1,1,$1+$1,$6,$7*
1,1,$1+$1,$8,$9*
0 Add four rect primitives between the rounded corners*
20,1,$1+$1,$2,$3,$4,$5,0*
20,1,$1+$1,$4,$5,$6,$7,0*
20,1,$1+$1,$6,$7,$8,$9,0*
20,1,$1+$1,$8,$9,$2,$3,0*%
%AMRotRect*
0 Rectangle, with rotation*
0 The origin of the aperture is its center*
0 $1 length*
0 $2 width*
0 $3 Rotation angle, in degrees counterclockwise*
0 Add horizontal line*
21,1,$1,$2,0,0,$3*%
G04 Aperture macros list end*
%ADD10C,1.701800*%
%ADD11C,1.700000*%
%ADD12C,3.000000*%
%ADD13C,5.000000*%
%ADD14RoundRect,0.520000X-0.448666X-1.007720X1.007720X-0.448666X0.448666X1.007720X-1.007720X0.448666X0*%
%ADD15C,1.450000*%
%ADD16RoundRect,0.500000X0.422450X0.992301X-0.977920X0.454749X-0.422450X-0.992301X0.977920X-0.454749X0*%
%ADD17RoundRect,0.520000X-0.229345X-1.078981X1.078981X-0.229345X0.229345X1.078981X-1.078981X0.229345X0*%
%ADD18RoundRect,0.500000X0.206908X1.058449X-1.051098X0.241490X-0.206908X-1.058449X1.051098X-0.241490X0*%
%ADD19RoundRect,0.520000X-1.074815X-0.248140X0.248140X-1.074815X1.074815X0.248140X-0.248140X1.074815X0*%
%ADD20RoundRect,0.500000X1.046724X0.259798X-0.225349X1.054677X-1.046724X-0.259798X0.225349X-1.054677X0*%
%ADD21RoundRect,0.520000X-0.999736X-0.466185X0.466185X-0.999736X0.999736X0.466185X-0.466185X0.999736X0*%
%ADD22RoundRect,0.500000X0.969835X0.471747X-0.439704X0.984777X-0.969835X-0.471747X0.439704X-0.984777X0*%
%ADD23RoundRect,0.199800X-0.300200X-0.100200X0.300200X-0.100200X0.300200X0.100200X-0.300200X0.100200X0*%
%ADD24C,0.700000*%
%ADD25RoundRect,0.225000X-0.225000X0.400000X-0.225000X-0.400000X0.225000X-0.400000X0.225000X0.400000X0*%
%ADD26RoundRect,0.300000X-0.700000X-0.700000X0.700000X-0.700000X0.700000X0.700000X-0.700000X0.700000X0*%
%ADD27C,2.000000*%
%ADD28RoundRect,0.520000X0.000000X-1.103087X1.103087X0.000000X0.000000X1.103087X-1.103087X0.000000X0*%
%ADD29RoundRect,0.500000X-0.017678X1.078338X-1.078338X0.017678X0.017678X-1.078338X1.078338X-0.017678X0*%
%ADD30RoundRect,0.520000X-1.102919X-0.019252X0.019252X-1.102919X1.102919X0.019252X-0.019252X1.102919X0*%
%ADD31RoundRect,0.500000X1.077865X0.036495X-0.001145X1.078482X-1.077865X-0.036495X0.001145X-1.078482X0*%
%ADD32RoundRect,0.400000X-0.202152X-0.345385X0.381336X-0.121405X0.202152X0.345385X-0.381336X0.121405X0*%
%ADD33RotRect,1.425000X1.300000X21.000000*%
%ADD34RoundRect,0.400000X-0.379159X-0.128042X0.208149X-0.341804X0.379159X0.128042X-0.208149X0.341804X0*%
%ADD35RotRect,1.425000X1.300000X340.000000*%
%ADD36RoundRect,0.400000X-0.397495X-0.046412X0.132535X-0.377612X0.397495X0.046412X-0.132535X0.377612X0*%
%ADD37RotRect,1.425000X1.300000X328.000000*%
%ADD38RoundRect,0.400000X-0.044194X-0.397748X0.397748X0.044194X0.044194X0.397748X-0.397748X-0.044194X0*%
%ADD39RotRect,1.425000X1.300000X45.000000*%
%ADD40RoundRect,0.400000X-0.125925X-0.379867X0.398244X-0.039468X0.125925X0.379867X-0.398244X0.039468X0*%
%ADD41RotRect,1.425000X1.300000X33.000000*%
%ADD42RoundRect,0.400000X-0.398458X0.037246X0.051129X-0.396916X0.398458X-0.037246X-0.051129X0.396916X0*%
%ADD43RotRect,1.425000X1.300000X316.000000*%
G04 APERTURE END LIST*
D10*
%TO.C,SW22*%
X265988108Y-84989124D03*
D11*
X266380211Y-84838609D03*
D12*
X267816696Y-88357545D03*
X266655604Y-82012188D03*
D13*
X271122800Y-83018100D03*
D12*
X273237171Y-88526225D03*
X271673585Y-77365257D03*
D11*
X275865389Y-81197591D03*
D10*
X276257492Y-81047076D03*
D14*
X276691418Y-87200263D03*
D15*
X273945107Y-76418321D03*
D16*
X275174512Y-76021377D03*
D14*
X264362448Y-89683507D03*
D16*
X263154677Y-83356067D03*
%TD*%
D10*
%TO.C,SW20*%
X185915912Y-126009615D03*
D11*
X186268154Y-125780866D03*
D12*
X188404875Y-128924243D03*
X185949882Y-122958951D03*
D13*
X190528600Y-123014100D03*
D12*
X193741970Y-127962256D03*
X189892057Y-117370270D03*
D11*
X194789046Y-120247334D03*
D10*
X195141288Y-120018585D03*
D17*
X196845051Y-125947092D03*
D15*
X191917062Y-115971751D03*
D18*
X193037072Y-115327874D03*
D17*
X185301794Y-130939408D03*
D18*
X182804867Y-125001348D03*
%TD*%
D10*
%TO.C,SW29*%
X215189408Y-57914624D03*
D11*
X215581511Y-57764109D03*
D12*
X217017996Y-61283045D03*
X215856904Y-54937688D03*
D13*
X220324100Y-55943600D03*
D12*
X222438471Y-61451725D03*
X220874885Y-50290757D03*
D11*
X225066689Y-54123091D03*
D10*
X225458792Y-53972576D03*
D14*
X225892718Y-60125763D03*
D15*
X223146407Y-49343821D03*
D16*
X224375812Y-48946877D03*
D14*
X213563748Y-62609007D03*
D16*
X212355977Y-56281567D03*
%TD*%
D10*
%TO.C,SW2*%
X113709835Y-120099544D03*
D11*
X114066016Y-120322110D03*
D12*
X112120166Y-123587086D03*
X116489032Y-118841065D03*
D13*
X118374100Y-123014100D03*
D12*
X115247576Y-128017584D03*
X123220132Y-120052011D03*
D11*
X122682184Y-125706090D03*
D10*
X123038365Y-125928656D03*
D19*
X118385354Y-129978285D03*
D15*
X125343425Y-121296249D03*
D20*
X126400312Y-122039208D03*
D19*
X108982388Y-121626385D03*
D20*
X113308851Y-116853868D03*
%TD*%
D10*
%TO.C,SW8*%
X108188491Y-96582689D03*
D11*
X108583161Y-96726338D03*
D12*
X107358660Y-100324531D03*
X110645302Y-94773884D03*
D13*
X113356800Y-98463800D03*
D12*
X111338881Y-104007986D03*
X117481082Y-94558893D03*
D11*
X118130439Y-100201262D03*
D10*
X118525109Y-100344911D03*
D21*
X114815744Y-105273461D03*
D15*
X119816667Y-95334484D03*
D22*
X121004929Y-95841468D03*
D21*
X103881798Y-99059057D03*
D22*
X107121455Y-93491308D03*
%TD*%
D13*
%TO.C,H3*%
X128450000Y-51000000D03*
%TD*%
D10*
%TO.C,SW1*%
X92595191Y-111090589D03*
D11*
X92989861Y-111234238D03*
D12*
X91765360Y-114832431D03*
X95052002Y-109281784D03*
D13*
X97763500Y-112971700D03*
D12*
X95745581Y-118515886D03*
X101887782Y-109066793D03*
D11*
X102537139Y-114709162D03*
D10*
X102931809Y-114852811D03*
D21*
X99222444Y-119781361D03*
D15*
X104223367Y-109842384D03*
D22*
X105411629Y-110349368D03*
D21*
X88288498Y-113566957D03*
D22*
X91528155Y-107999208D03*
%TD*%
D10*
%TO.C,SW36*%
X177068308Y-64747624D03*
D11*
X177460411Y-64597109D03*
D12*
X178896896Y-68116045D03*
X177735804Y-61770688D03*
D13*
X182203000Y-62776600D03*
D12*
X184317371Y-68284725D03*
X182753785Y-57123757D03*
D11*
X186945589Y-60956091D03*
D10*
X187337692Y-60805576D03*
D14*
X187771618Y-66958763D03*
D15*
X185025307Y-56176821D03*
D16*
X186254712Y-55779877D03*
D14*
X175442648Y-69442007D03*
D16*
X174234877Y-63114567D03*
%TD*%
D10*
%TO.C,SW19*%
X206004408Y-114942724D03*
D11*
X206396511Y-114792209D03*
D12*
X207832996Y-118311145D03*
X206671904Y-111965788D03*
D13*
X211139100Y-112971700D03*
D12*
X213253471Y-118479825D03*
X211689885Y-107318857D03*
D11*
X215881689Y-111151191D03*
D10*
X216273792Y-111000676D03*
D14*
X216707718Y-117153863D03*
D15*
X213961407Y-106371921D03*
D16*
X215190812Y-105974977D03*
D14*
X204378748Y-119637107D03*
D16*
X203170977Y-113309667D03*
%TD*%
D13*
%TO.C,H5*%
X254560000Y-34430000D03*
%TD*%
D10*
%TO.C,SW28*%
X236902808Y-61593424D03*
D11*
X237294911Y-61442909D03*
D12*
X238731396Y-64961845D03*
X237570304Y-58616488D03*
D13*
X242037500Y-59622400D03*
D12*
X244151871Y-65130525D03*
X242588285Y-53969557D03*
D11*
X246780089Y-57801891D03*
D10*
X247172192Y-57651376D03*
D14*
X247606118Y-63804563D03*
D15*
X244859807Y-53022621D03*
D16*
X246089212Y-52625677D03*
D14*
X235277148Y-66287807D03*
D16*
X234069377Y-59960367D03*
%TD*%
D10*
%TO.C,SW13*%
X114859891Y-78739089D03*
D11*
X115254561Y-78882738D03*
D12*
X114030060Y-82480931D03*
X117316702Y-76930284D03*
D13*
X120028200Y-80620200D03*
D12*
X118010281Y-86164386D03*
X124152482Y-76715293D03*
D11*
X124801839Y-82357662D03*
D10*
X125196509Y-82501311D03*
D21*
X121487144Y-87429861D03*
D15*
X126488067Y-77490884D03*
D22*
X127676329Y-77997868D03*
D21*
X110553198Y-81215457D03*
D22*
X113792855Y-75647708D03*
%TD*%
D10*
%TO.C,SW30*%
X199814808Y-71189624D03*
D11*
X200206911Y-71039109D03*
D12*
X201643396Y-74558045D03*
X200482304Y-68212688D03*
D13*
X204949500Y-69218600D03*
D12*
X207063871Y-74726725D03*
X205500285Y-63565757D03*
D11*
X209692089Y-67398091D03*
D10*
X210084192Y-67247576D03*
D14*
X210518118Y-73400763D03*
D15*
X207771807Y-62618821D03*
D16*
X209001212Y-62221877D03*
D14*
X198189148Y-75884007D03*
D16*
X196981377Y-69556567D03*
%TD*%
D23*
%TO.C,BAT_KEY1*%
X150850000Y-133957000D03*
X150850000Y-136193000D03*
D24*
X152950000Y-135050000D03*
X155950000Y-135050000D03*
D23*
X158050000Y-133957000D03*
X158050000Y-136193000D03*
D25*
X152200000Y-136900000D03*
X155200000Y-136900000D03*
X156700000Y-136900000D03*
%TD*%
D10*
%TO.C,SW26*%
X190411208Y-100434824D03*
D11*
X190803311Y-100284309D03*
D12*
X192239796Y-103803245D03*
X191078704Y-97457888D03*
D13*
X195545900Y-98463800D03*
D12*
X197660271Y-103971925D03*
X196096685Y-92810957D03*
D11*
X200288489Y-96643291D03*
D10*
X200680592Y-96492776D03*
D14*
X201114518Y-102645963D03*
D15*
X198368207Y-91864021D03*
D16*
X199597612Y-91467077D03*
D14*
X188785548Y-105129207D03*
D16*
X187577777Y-98801767D03*
%TD*%
D13*
%TO.C,H2*%
X180450000Y-51000000D03*
%TD*%
D26*
%TO.C,J1*%
X149450000Y-90450000D03*
X159450000Y-90450000D03*
%TD*%
D10*
%TO.C,SW10*%
X61696791Y-57741289D03*
D11*
X62091461Y-57884938D03*
D12*
X60866960Y-61483131D03*
X64153602Y-55932484D03*
D13*
X66865100Y-59622400D03*
D12*
X64847181Y-65166586D03*
X70989382Y-55717493D03*
D11*
X71638739Y-61359862D03*
D10*
X72033409Y-61503511D03*
D21*
X68324044Y-66432061D03*
D15*
X73324967Y-56493084D03*
D22*
X74513229Y-57000068D03*
D21*
X57390098Y-60217657D03*
D22*
X60629755Y-54649908D03*
%TD*%
D10*
%TO.C,SW31*%
X183739708Y-82591224D03*
D11*
X184131811Y-82440709D03*
D12*
X185568296Y-85959645D03*
X184407204Y-79614288D03*
D13*
X188874400Y-80620200D03*
D12*
X190988771Y-86128325D03*
X189425185Y-74967357D03*
D11*
X193616989Y-78799691D03*
D10*
X194009092Y-78649176D03*
D14*
X194443018Y-84802363D03*
D15*
X191696707Y-74020421D03*
D16*
X192926112Y-73623477D03*
D14*
X182114048Y-87285607D03*
D16*
X180906277Y-80958167D03*
%TD*%
D13*
%TO.C,H0*%
X44670000Y-96830000D03*
%TD*%
D10*
%TO.C,SW23*%
X243574308Y-79437024D03*
D11*
X243966411Y-79286509D03*
D12*
X245402896Y-82805445D03*
X244241804Y-76460088D03*
D13*
X248709000Y-77466000D03*
D12*
X250823371Y-82974125D03*
X249259785Y-71813157D03*
D11*
X253451589Y-75645491D03*
D10*
X253843692Y-75494976D03*
D14*
X254277618Y-81648163D03*
D15*
X251531307Y-70866221D03*
D16*
X252760712Y-70469277D03*
D14*
X241948648Y-84131407D03*
D16*
X240740877Y-77803967D03*
%TD*%
D27*
%TO.C,U1*%
X162060000Y-51390000D03*
X162060000Y-53930000D03*
X162060000Y-56470000D03*
X162060000Y-59010000D03*
X162060000Y-61550000D03*
X162060000Y-64090000D03*
X162060000Y-66630000D03*
X162060000Y-69170000D03*
X162060000Y-71710000D03*
X162060000Y-74250000D03*
X162060000Y-76790000D03*
X162060000Y-79330000D03*
X146820000Y-51390000D03*
X146820000Y-53930000D03*
X146820000Y-56470000D03*
X146820000Y-59010000D03*
X146820000Y-61550000D03*
X146820000Y-64090000D03*
X146820000Y-66630000D03*
X146820000Y-69170000D03*
X146820000Y-71710000D03*
X146820000Y-74250000D03*
X146820000Y-76790000D03*
X146820000Y-79330000D03*
%TD*%
D10*
%TO.C,SW32*%
X252645208Y-49301924D03*
D11*
X253037311Y-49151409D03*
D12*
X254473796Y-52670345D03*
X253312704Y-46324988D03*
D13*
X257779900Y-47330900D03*
D12*
X259894271Y-52839025D03*
X258330685Y-41678057D03*
D11*
X262522489Y-45510391D03*
D10*
X262914592Y-45359876D03*
D14*
X263348518Y-51513063D03*
D15*
X260602207Y-40731121D03*
D16*
X261831612Y-40334177D03*
D14*
X251019548Y-53996307D03*
D16*
X249811777Y-47668867D03*
%TD*%
D10*
%TO.C,SW6*%
X76738791Y-71906089D03*
D11*
X77133461Y-72049738D03*
D12*
X75908960Y-75647931D03*
X79195602Y-70097284D03*
D13*
X81907100Y-73787200D03*
D12*
X79889181Y-79331386D03*
X86031382Y-69882293D03*
D11*
X86680739Y-75524662D03*
D10*
X87075409Y-75668311D03*
D21*
X83366044Y-80596861D03*
D15*
X88366967Y-70657884D03*
D22*
X89555229Y-71164868D03*
D21*
X72432098Y-74382457D03*
D22*
X75671755Y-68814708D03*
%TD*%
D10*
%TO.C,SW18*%
X121531391Y-60895489D03*
D11*
X121926061Y-61039138D03*
D12*
X120701560Y-64637331D03*
X123988202Y-59086684D03*
D13*
X126699700Y-62776600D03*
D12*
X124681781Y-68320786D03*
X130823982Y-58871693D03*
D11*
X131473339Y-64514062D03*
D10*
X131868009Y-64657711D03*
D21*
X128158644Y-69586261D03*
D15*
X133159567Y-59647284D03*
D22*
X134347829Y-60154268D03*
D21*
X117224698Y-63371857D03*
D22*
X120464355Y-57804108D03*
%TD*%
D10*
%TO.C,SW34*%
X208518008Y-40071024D03*
D11*
X208910111Y-39920509D03*
D12*
X210346596Y-43439445D03*
X209185504Y-37094088D03*
D13*
X213652700Y-38100000D03*
D12*
X215767071Y-43608125D03*
X214203485Y-32447157D03*
D11*
X218395289Y-36279491D03*
D10*
X218787392Y-36128976D03*
D14*
X219221318Y-42282163D03*
D15*
X216475007Y-31500221D03*
D16*
X217704412Y-31103277D03*
D14*
X206892348Y-44765407D03*
D16*
X205684577Y-38437967D03*
%TD*%
D10*
%TO.C,SW7*%
X92113391Y-85181089D03*
D11*
X92508061Y-85324738D03*
D12*
X91283560Y-88922931D03*
X94570202Y-83372284D03*
D13*
X97281700Y-87062200D03*
D12*
X95263781Y-92606386D03*
X101405982Y-83157293D03*
D11*
X102055339Y-88799662D03*
D10*
X102450009Y-88943311D03*
D21*
X98740644Y-93871861D03*
D15*
X103741567Y-83932884D03*
D22*
X104929829Y-84439868D03*
D21*
X87806698Y-87657457D03*
D22*
X91046355Y-82089708D03*
%TD*%
D10*
%TO.C,SW27*%
X259316608Y-67145524D03*
D11*
X259708711Y-66995009D03*
D12*
X261145196Y-70513945D03*
X259984104Y-64168588D03*
D13*
X264451300Y-65174500D03*
D12*
X266565671Y-70682625D03*
X265002085Y-59521657D03*
D11*
X269193889Y-63353991D03*
D10*
X269585992Y-63203476D03*
D14*
X270019918Y-69356663D03*
D15*
X267273607Y-58574721D03*
D16*
X268503012Y-58177777D03*
D14*
X257690948Y-71839907D03*
D16*
X256483177Y-65512467D03*
%TD*%
D10*
%TO.C,SW12*%
X98784891Y-67337489D03*
D11*
X99179561Y-67481138D03*
D12*
X97955060Y-71079331D03*
X101241702Y-65528684D03*
D13*
X103953200Y-69218600D03*
D12*
X101935281Y-74762786D03*
X108077482Y-65313693D03*
D11*
X108726839Y-70956062D03*
D10*
X109121509Y-71099711D03*
D21*
X105412144Y-76028261D03*
D15*
X110413067Y-66089284D03*
D22*
X111601329Y-66596268D03*
D21*
X94478198Y-69813857D03*
D22*
X97717855Y-64246108D03*
%TD*%
D10*
%TO.C,SW24*%
X221860908Y-75758224D03*
D11*
X222253011Y-75607709D03*
D12*
X223689496Y-79126645D03*
X222528404Y-72781288D03*
D13*
X226995600Y-73787200D03*
D12*
X229109971Y-79295325D03*
X227546385Y-68134357D03*
D11*
X231738189Y-71966691D03*
D10*
X232130292Y-71816176D03*
D14*
X232564218Y-77969363D03*
D15*
X229817907Y-67187421D03*
D16*
X231047312Y-66790477D03*
D14*
X220235248Y-80452607D03*
D16*
X219027477Y-74125167D03*
%TD*%
D13*
%TO.C,H4*%
X52930000Y-33320000D03*
%TD*%
D10*
%TO.C,SW5*%
X55025391Y-75584889D03*
D11*
X55420061Y-75728538D03*
D12*
X54195560Y-79326731D03*
X57482202Y-73776084D03*
D13*
X60193700Y-77466000D03*
D12*
X58175781Y-83010186D03*
X64317982Y-73561093D03*
D11*
X64967339Y-79203462D03*
D10*
X65362009Y-79347111D03*
D21*
X61652644Y-84275661D03*
D15*
X66653567Y-74336684D03*
D22*
X67841829Y-74843668D03*
D21*
X50718698Y-78061257D03*
D22*
X53958355Y-72493508D03*
%TD*%
D10*
%TO.C,SW9*%
X39282991Y-63293389D03*
D11*
X39677661Y-63437038D03*
D12*
X38453160Y-67035231D03*
X41739802Y-61484584D03*
D13*
X44451300Y-65174500D03*
D12*
X42433381Y-70718686D03*
X48575582Y-61269593D03*
D11*
X49224939Y-66911962D03*
D10*
X49619609Y-67055611D03*
D21*
X45910244Y-71984161D03*
D15*
X50911167Y-62045184D03*
D22*
X52099429Y-62552168D03*
D21*
X34976298Y-65769757D03*
D22*
X38215955Y-60202008D03*
%TD*%
D10*
%TO.C,SW4*%
X32611591Y-81136989D03*
D11*
X33006261Y-81280638D03*
D12*
X31781760Y-84878831D03*
X35068402Y-79328184D03*
D13*
X37779900Y-83018100D03*
D12*
X35761981Y-88562286D03*
X41904182Y-79113193D03*
D11*
X42553539Y-84755562D03*
D10*
X42948209Y-84899211D03*
D21*
X39238844Y-89827761D03*
D15*
X44239767Y-79888784D03*
D22*
X45428029Y-80395768D03*
D21*
X28304898Y-83613357D03*
D22*
X31544555Y-78045608D03*
%TD*%
D10*
%TO.C,SW15*%
X68368291Y-39897689D03*
D11*
X68762961Y-40041338D03*
D12*
X67538460Y-43639531D03*
X70825102Y-38088884D03*
D13*
X73536600Y-41778800D03*
D12*
X71518681Y-47322986D03*
X77660882Y-37873893D03*
D11*
X78310239Y-43516262D03*
D10*
X78704909Y-43659911D03*
D21*
X74995544Y-48588461D03*
D15*
X79996467Y-38649484D03*
D22*
X81184729Y-39156468D03*
D21*
X64061598Y-42374057D03*
D22*
X67301255Y-36806308D03*
%TD*%
D10*
%TO.C,SW21*%
X168567313Y-141011387D03*
D11*
X168864298Y-140714402D03*
D12*
X171607872Y-143344840D03*
X167966272Y-138020326D03*
D13*
X172456400Y-137122300D03*
D12*
X176628330Y-141294230D03*
X170660349Y-131734146D03*
D11*
X176048502Y-133530198D03*
D10*
X176345487Y-133233213D03*
D28*
X179244625Y-138677935D03*
D15*
X172350334Y-129945166D03*
D29*
X173311999Y-129082496D03*
D28*
X168991577Y-145961135D03*
D29*
X165314622Y-140671976D03*
%TD*%
D10*
%TO.C,SW3*%
X132489831Y-133301679D03*
D11*
X132791954Y-133593435D03*
D12*
X130209799Y-136382499D03*
X135469948Y-132648529D03*
D13*
X136446200Y-137122300D03*
D12*
X132347716Y-141366405D03*
X141802188Y-135232486D03*
D11*
X140100446Y-140651165D03*
D10*
X140402569Y-140942921D03*
D30*
X135009273Y-143936641D03*
D15*
X143620390Y-136890992D03*
D31*
X144499712Y-137837455D03*
D30*
X127548242Y-133812263D03*
D31*
X132772423Y-130043560D03*
%TD*%
D10*
%TO.C,SW35*%
X193143308Y-53346024D03*
D11*
X193535411Y-53195509D03*
D12*
X194971896Y-56714445D03*
X193810804Y-50369088D03*
D13*
X198278000Y-51375000D03*
D12*
X200392371Y-56883125D03*
X198828785Y-45722157D03*
D11*
X203020589Y-49554491D03*
D10*
X203412692Y-49403976D03*
D14*
X203846618Y-55557163D03*
D15*
X201100307Y-44775221D03*
D16*
X202329712Y-44378277D03*
D14*
X191517648Y-58040407D03*
D16*
X190309877Y-51712967D03*
%TD*%
D10*
%TO.C,SW25*%
X206486208Y-89033224D03*
D11*
X206878311Y-88882709D03*
D12*
X208314796Y-92401645D03*
X207153704Y-86056288D03*
D13*
X211620900Y-87062200D03*
D12*
X213735271Y-92570325D03*
X212171685Y-81409357D03*
D11*
X216363489Y-85241691D03*
D10*
X216755592Y-85091176D03*
D14*
X217189518Y-91244363D03*
D15*
X214443207Y-80462421D03*
D16*
X215672612Y-80065477D03*
D14*
X204860548Y-93727607D03*
D16*
X203652777Y-87400167D03*
%TD*%
D10*
%TO.C,SW14*%
X45954491Y-45449789D03*
D11*
X46349161Y-45593438D03*
D12*
X45124660Y-49191631D03*
X48411302Y-43640984D03*
D13*
X51122800Y-47330900D03*
D12*
X49104881Y-52875086D03*
X55247082Y-43425993D03*
D11*
X55896439Y-49068362D03*
D10*
X56291109Y-49212011D03*
D21*
X52581744Y-54140561D03*
D15*
X57582667Y-44201584D03*
D22*
X58770929Y-44708568D03*
D21*
X41647798Y-47926157D03*
D22*
X44887455Y-42358408D03*
%TD*%
D10*
%TO.C,SW33*%
X230231408Y-43749824D03*
D11*
X230623511Y-43599309D03*
D12*
X232059996Y-47118245D03*
X230898904Y-40772888D03*
D13*
X235366100Y-41778800D03*
D12*
X237480471Y-47286925D03*
X235916885Y-36125957D03*
D11*
X240108689Y-39958291D03*
D10*
X240500792Y-39807776D03*
D14*
X240934718Y-45960963D03*
D15*
X238188407Y-35179021D03*
D16*
X239417812Y-34782077D03*
D14*
X228605748Y-48444207D03*
D16*
X227397977Y-42116767D03*
%TD*%
D10*
%TO.C,SW17*%
X105456291Y-49493889D03*
D11*
X105850961Y-49637538D03*
D12*
X104626460Y-53235731D03*
X107913102Y-47685084D03*
D13*
X110624600Y-51375000D03*
D12*
X108606681Y-56919186D03*
X114748882Y-47470093D03*
D11*
X115398239Y-53112462D03*
D10*
X115792909Y-53256111D03*
D21*
X112083544Y-58184661D03*
D15*
X117084467Y-48245684D03*
D22*
X118272729Y-48752668D03*
D21*
X101149598Y-51970257D03*
D22*
X104389255Y-46402508D03*
%TD*%
D10*
%TO.C,SW16*%
X90081691Y-36218889D03*
D11*
X90476361Y-36362538D03*
D12*
X89251860Y-39960731D03*
X92538502Y-34410084D03*
D13*
X95250000Y-38100000D03*
D12*
X93232081Y-43644186D03*
X99374282Y-34195093D03*
D11*
X100023639Y-39837462D03*
D10*
X100418309Y-39981111D03*
D21*
X96708944Y-44909661D03*
D15*
X101709867Y-34970684D03*
D22*
X102898129Y-35477668D03*
D21*
X85774998Y-38695257D03*
D22*
X89014655Y-33127508D03*
%TD*%
D13*
%TO.C,H7*%
X132450000Y-115000000D03*
%TD*%
D10*
%TO.C,SW11*%
X83410191Y-54062489D03*
D11*
X83804861Y-54206138D03*
D12*
X82580360Y-57804331D03*
X85867002Y-52253684D03*
D13*
X88578500Y-55943600D03*
D12*
X86560581Y-61487786D03*
X92702782Y-52038693D03*
D11*
X93352139Y-57681062D03*
D10*
X93746809Y-57824711D03*
D21*
X90037444Y-62753261D03*
D15*
X95038367Y-52814284D03*
D22*
X96226629Y-53321268D03*
D21*
X79103498Y-56538857D03*
D22*
X82343155Y-50971108D03*
%TD*%
D13*
%TO.C,H6*%
X176450000Y-115000000D03*
%TD*%
D32*
%TO.C,D30*%
X209875175Y-77289017D03*
D33*
X206537625Y-78570183D03*
%TD*%
D32*
%TO.C,D22*%
X276048475Y-91088617D03*
D33*
X272710925Y-92369783D03*
%TD*%
D34*
%TO.C,D18*%
X125122501Y-72099061D03*
D35*
X121763099Y-70876339D03*
%TD*%
D34*
%TO.C,D8*%
X111779601Y-107786261D03*
D35*
X108420199Y-106563539D03*
%TD*%
D34*
%TO.C,D11*%
X87001301Y-65266061D03*
D35*
X83641899Y-64043339D03*
%TD*%
D34*
%TO.C,D17*%
X109047401Y-60697361D03*
D35*
X105687999Y-59474639D03*
%TD*%
D36*
%TO.C,D2*%
X114893086Y-131804931D03*
D37*
X111861314Y-129910469D03*
%TD*%
D32*
%TO.C,D28*%
X246963275Y-67692817D03*
D33*
X243625725Y-68973983D03*
%TD*%
D32*
%TO.C,D34*%
X218578375Y-46170517D03*
D33*
X215240825Y-47451683D03*
%TD*%
D32*
%TO.C,D29*%
X225249875Y-64014117D03*
D33*
X221912325Y-65295283D03*
%TD*%
D38*
%TO.C,D21*%
X180238853Y-142491547D03*
D39*
X177710947Y-145019453D03*
%TD*%
D32*
%TO.C,D25*%
X216546675Y-95132617D03*
D33*
X213209125Y-96413783D03*
%TD*%
D40*
%TO.C,D20*%
X197024624Y-129884158D03*
D41*
X194026376Y-131831242D03*
%TD*%
D34*
%TO.C,D16*%
X93672801Y-47422461D03*
D35*
X90313399Y-46199739D03*
%TD*%
D32*
%TO.C,D26*%
X200471575Y-106534317D03*
D33*
X197134025Y-107815483D03*
%TD*%
D32*
%TO.C,D36*%
X187128675Y-70847117D03*
D33*
X183791125Y-72128283D03*
%TD*%
D32*
%TO.C,D31*%
X193800175Y-88690717D03*
D33*
X190462625Y-89971883D03*
%TD*%
D32*
%TO.C,D33*%
X240291775Y-49849217D03*
D33*
X236954225Y-51130383D03*
%TD*%
D13*
%TO.C,H1*%
X264000000Y-96000000D03*
%TD*%
D32*
%TO.C,D35*%
X203203775Y-59445417D03*
D33*
X199866225Y-60726583D03*
%TD*%
D32*
%TO.C,D32*%
X262705575Y-55401417D03*
D33*
X259368025Y-56682583D03*
%TD*%
D34*
%TO.C,D6*%
X80329901Y-83109661D03*
D35*
X76970499Y-81886939D03*
%TD*%
D34*
%TO.C,D15*%
X71959401Y-51101161D03*
D35*
X68599999Y-49878439D03*
%TD*%
D34*
%TO.C,D9*%
X42874101Y-74496961D03*
D35*
X39514699Y-73274239D03*
%TD*%
D42*
%TO.C,D3*%
X131213620Y-144997202D03*
D43*
X128641980Y-142513798D03*
%TD*%
D32*
%TO.C,D23*%
X253634675Y-85536417D03*
D33*
X250297125Y-86817583D03*
%TD*%
D32*
%TO.C,D24*%
X231921275Y-81857717D03*
D33*
X228583725Y-83138883D03*
%TD*%
D32*
%TO.C,D19*%
X216064875Y-121042217D03*
D33*
X212727325Y-122323383D03*
%TD*%
D34*
%TO.C,D5*%
X58616501Y-86788361D03*
D35*
X55257099Y-85565639D03*
%TD*%
D34*
%TO.C,D1*%
X96186301Y-122294161D03*
D35*
X92826899Y-121071439D03*
%TD*%
D34*
%TO.C,D13*%
X118451001Y-89942661D03*
D35*
X115091599Y-88719939D03*
%TD*%
D34*
%TO.C,D4*%
X36202701Y-92340561D03*
D35*
X32843299Y-91117839D03*
%TD*%
D34*
%TO.C,D10*%
X65287901Y-68944761D03*
D35*
X61928499Y-67722039D03*
%TD*%
D32*
%TO.C,D27*%
X269377075Y-73245017D03*
D33*
X266039525Y-74526183D03*
%TD*%
D34*
%TO.C,D12*%
X102376001Y-78540961D03*
D35*
X99016599Y-77318239D03*
%TD*%
D34*
%TO.C,D14*%
X49545601Y-56653361D03*
D35*
X46186199Y-55430639D03*
%TD*%
D34*
%TO.C,D7*%
X95704501Y-96384561D03*
D35*
X92345099Y-95161839D03*
%TD*%
M02*
