0
SECTION
2
HEADER
9
$INSUNITS
70
4
9
$ACADVER
1
AC1014
9
$HANDSEED
5
FFFF
0
ENDSEC
0
SECTION
2
TABLES
0
TABLE
2
VPORT
5
8
100
AcDbSymbolTable
0
ENDTAB
0
TABLE
2
LTYPE
5
5
100
AcDbSymbolTable
0
LTYPE
5
14
100
AcDbSymbolTableRecord
100
AcDbLinetypeTableRecord
2
BYBLOCK
70
0
0
LTYPE
5
15
100
AcDbSymbolTableRecord
100
AcDbLinetypeTableRecord
2
BYLAYER
70
0
0
LTYPE
5
16
100
AcDbSymbolTableRecord
100
AcDbLinetypeTableRecord
2
DASHED
70
0
3
Dashed __ __ __ __ __ __ __ __ __ __ __ __ __ _
72
65
73
2
40
0.75
49
0.5
74
0
49
-0.25
74
0
0
ENDTAB
0
TABLE
2
LAYER
5
2
100
AcDbSymbolTable
70
2
0
LAYER
5
50
100
AcDbSymbolTableRecord
100
AcDbLayerTableRecord
2
0
70
0
62
7
6
CONTINUOUS
0
ENDTAB
0
TABLE
2
STYLE
5
3
100
AcDbSymbolTable
70
1
0
STYLE
5
11
100
AcDbSymbolTableRecord
100
AcDbTextStyleTableRecord
2
STANDARD
70
0
0
ENDTAB
0
TABLE
2
VIEW
5
6
100
AcDbSymbolTable
70
0
0
ENDTAB
0
TABLE
2
UCS
5
7
100
AcDbSymbolTable
70
0
0
ENDTAB
0
TABLE
2
APPID
5
9
100
AcDbSymbolTable
70
2
0
APPID
5
12
100
AcDbSymbolTableRecord
100
AcDbRegAppTableRecord
2
ACAD
70
0
0
ENDTAB
0
TABLE
2
DIMSTYLE
5
A
100
AcDbSymbolTable
70
1
0
ENDTAB
0
TABLE
2
BLOCK_RECORD
5
1
100
AcDbSymbolTable
70
1
0
BLOCK_RECORD
5
1F
100
AcDbSymbolTableRecord
100
AcDbBlockTableRecord
2
*MODEL_SPACE
0
BLOCK_RECORD
5
1B
100
AcDbSymbolTableRecord
100
AcDbBlockTableRecord
2
*PAPER_SPACE
0
ENDTAB
0
ENDSEC
0
SECTION
2
BLOCKS
0
BLOCK
5
20
100
AcDbEntity
100
AcDbBlockBegin
2
*MODEL_SPACE
0
ENDBLK
5
21
100
AcDbEntity
100
AcDbBlockEnd
0
BLOCK
5
1C
100
AcDbEntity
100
AcDbBlockBegin
2
*PAPER_SPACE
0
ENDBLK
5
1D
100
AcDbEntity
100
AcDbBlockEnd
0
ENDSEC
0
SECTION
2
ENTITIES
0
CIRCLE
5
100
100
AcDbEntity
8
0
100
AcDbCircle
10
182.20300000000003
20
62.776600000000009
30
0
40
2.5000000000000062
210
0
220
0
230
1
0
LINE
5
101
100
AcDbEntity
8
0
100
AcDbLine
10
182.20300000000003
20
62.776600000000009
30
0
11
126.69970000000001
21
62.776600000000009
31
0
0
LINE
5
102
100
AcDbEntity
8
0
100
AcDbLine
10
154.45134999999999
20
53.922268168559036
30
0
11
154.45134999999999
21
91.000001356005669
31
0
0
LINE
5
103
100
AcDbEntity
8
0
100
AcDbLine
10
266.17315618637019
20
36.292016686742869
30
0
11
281.75170929495471
21
77.958749675243524
31
0
0
LINE
5
104
100
AcDbEntity
8
0
100
AcDbLine
10
160.45135000000002
20
76.424096616428486
30
0
11
160.45135000000002
21
50.417475253896882
31
0
0
LINE
5
105
100
AcDbEntity
8
0
100
AcDbLine
10
162.28903782880835
20
47.651787199054155
30
0
11
207.24973251601216
21
28.756538847142146
31
0
0
LINE
5
106
100
AcDbEntity
8
0
100
AcDbLine
10
213.82001210395606
20
27.604179880803375
30
0
11
257.31224678187675
21
29.806891005636089
31
0
0
LINE
5
107
100
AcDbEntity
8
0
100
AcDbLine
10
274.56182824014934
20
96.551186894521067
30
0
11
198.84089256092679
21
135.49325027468549
31
0
0
LINE
5
108
100
AcDbEntity
8
0
100
AcDbLine
10
197.13527587548586
20
136.51889519928139
30
0
11
177.5161647986246
21
150.16662053473618
31
0
0
LINE
5
109
100
AcDbEntity
8
0
100
AcDbLine
10
166.09507350614277
20
153.74837843368292
30
0
11
156.43232339956981
21
153.74837843368289
31
0
0
ARC
5
110
100
AcDbEntity
8
0
100
AcDbCircle
10
163.45135000000005
20
50.41747525389691
30
0
40
3.0000000000000426
210
0
220
0
230
1
100
AcDbArc
50
180
51
247.20485996651777
0
ARC
5
111
100
AcDbEntity
8
0
100
AcDbCircle
10
213.06129337197052
20
42.584979121355666
30
0
40
14.999999999999931
210
0
220
0
230
1
100
AcDbArc
50
247.20485996651797
51
272.89932928037831
0
ARC
5
112
100
AcDbEntity
8
0
100
AcDbCircle
10
256.80643429388635
20
39.794090499337486
30
0
40
9.9999999999998224
210
-0
220
0
230
1
100
AcDbArc
50
272.89932928037854
51
339.5
0
ARC
5
113
100
AcDbEntity
8
0
100
AcDbCircle
10
267.70162645622895
20
83.211860394135471
30
0
40
14.999999999999783
210
0
220
0
230
1
100
AcDbArc
50
-20.50000000000005
51
62.783967498527559
0
ARC
5
114
100
AcDbEntity
8
0
100
AcDbCircle
10
205.70109434484752
20
148.8325767750718
30
0
40
15.0000000000006
210
0
220
0
230
1
100
AcDbArc
50
235.17620346448749
51
242.78396749852763
0
ARC
5
115
100
AcDbEntity
8
0
100
AcDbCircle
10
166.09507350614308
20
133.74837843368368
30
0
40
19.999999999999233
210
0
220
-0
230
1
100
AcDbArc
50
55.176203464486882
51
90.000000000000909
0
LINE
5
116
100
AcDbEntity
8
0
100
AcDbLine
10
148.45134999999999
20
76.424096616428486
30
0
11
148.45134999999999
21
50.417475253896882
31
0
0
ARC
5
117
100
AcDbEntity
8
0
100
AcDbCircle
10
145.45134999999993
20
50.41747525389691
30
0
40
3.0000000000000453
210
0
220
0
230
1
100
AcDbArc
50
292.79514003348265
51
360
0
LINE
5
118
100
AcDbEntity
8
0
100
AcDbLine
10
146.61366217119166
20
47.651787199054155
30
0
11
101.65296748398785
21
28.756538847142146
31
0
0
ARC
5
119
100
AcDbEntity
8
0
100
AcDbCircle
10
95.841406628029489
20
42.584979121355666
30
0
40
14.999999999999927
210
0
220
0
230
1
100
AcDbArc
50
267.10067071962163
51
292.79514003348203
0
LINE
5
120
100
AcDbEntity
8
0
100
AcDbLine
10
95.082687896043936
20
27.604179880803375
30
0
11
51.590453218123251
21
29.806891005636089
31
0
0
ARC
5
121
100
AcDbEntity
8
0
100
AcDbCircle
10
52.096265706113627
20
39.794090499337486
30
0
40
9.9999999999998153
210
0
220
0
230
1
100
AcDbArc
50
200.50000000000003
51
267.10067071962152
0
LINE
5
122
100
AcDbEntity
8
0
100
AcDbLine
10
42.729543813629824
20
36.292016686742869
30
0
11
27.150990705045288
21
77.958749675243524
31
0
0
ARC
5
123
100
AcDbEntity
8
0
100
AcDbCircle
10
41.201073543771045
20
83.211860394135471
30
0
40
14.999999999999787
210
0
220
0
230
1
100
AcDbArc
50
117.21603250147244
51
200.50000000000006
0
LINE
5
124
100
AcDbEntity
8
0
100
AcDbLine
10
34.340871759850664
20
96.551186894521067
30
0
11
110.06180743907322
21
135.49325027468547
31
0
0
ARC
5
125
100
AcDbEntity
8
0
100
AcDbCircle
10
103.20160565515249
20
148.8325767750718
30
0
40
15.000000000000613
210
0
220
0
230
1
100
AcDbArc
50
297.21603250147234
51
304.82379653551243
0
LINE
5
126
100
AcDbEntity
8
0
100
AcDbLine
10
111.76742412451415
20
136.51889519928136
30
0
11
131.38653520137541
21
150.16662053473618
31
0
0
ARC
5
127
100
AcDbEntity
8
0
100
AcDbCircle
10
142.80762649385693
20
133.74837843368368
30
0
40
19.999999999999218
210
0
220
-0
230
1
100
AcDbArc
50
89.999999999999119
51
124.82379653551313
0
LINE
5
128
100
AcDbEntity
8
0
100
AcDbLine
10
142.80762649385724
20
153.74837843368289
30
0
11
152.4703766004302
21
153.74837843368289
31
0
0
LINE
5
129
100
AcDbEntity
8
0
100
AcDbLine
10
156.43232339956981
20
153.74837843368289
30
0
11
152.4703766004302
21
153.74837843368289
31
0
0
LINE
5
130
100
AcDbEntity
8
0
100
AcDbLine
10
160.45135000000002
20
76.424096616428486
30
0
11
160.45135000000002
21
79.424096616428471
31
0
0
LINE
5
131
100
AcDbEntity
8
0
100
AcDbLine
10
158.45135000000002
20
81.424096616428471
30
0
11
154.45134999999999
21
81.424096616428471
31
0
0
ARC
5
132
100
AcDbEntity
8
0
100
AcDbCircle
10
158.45135000000002
20
79.424096616428486
30
0
40
1.9999999999999929
210
0
220
0
230
1
100
AcDbArc
50
0
51
90
0
LINE
5
133
100
AcDbEntity
8
0
100
AcDbLine
10
150.45134999999999
20
81.424096616428471
30
0
11
154.45134999999999
21
81.424096616428471
31
0
0
ARC
5
134
100
AcDbEntity
8
0
100
AcDbCircle
10
150.45134999999999
20
79.424096616428486
30
0
40
1.9999999999999929
210
0
220
-0
230
1
100
AcDbArc
50
90
51
180
0
LINE
5
135
100
AcDbEntity
8
0
100
AcDbLine
10
148.45134999999999
20
76.424096616428486
30
0
11
148.45134999999999
21
79.424096616428471
31
0
0
ENDSEC
0
SECTION
2
OBJECTS
0
DICTIONARY
5
C
100
AcDbDictionary
3
ACAD_GROUP
350
D
3
ACAD_MLINESTYLE
350
17
0
DICTIONARY
5
D
100
AcDbDictionary
0
DICTIONARY
5
1A
330
C
100
AcDbDictionary
0
DICTIONARY
5
17
100
AcDbDictionary
0
ENDSEC
0
EOF
