0
SECTION
2
HEADER
9
$INSUNITS
70
4
9
$ACADVER
1
AC1014
9
$HANDSEED
5
FFFF
0
ENDSEC
0
SECTION
2
TABLES
0
TABLE
2
VPORT
5
8
100
AcDbSymbolTable
0
ENDTAB
0
TABLE
2
LTYPE
5
5
100
AcDbSymbolTable
0
LTYPE
5
14
100
AcDbSymbolTableRecord
100
AcDbLinetypeTableRecord
2
BYBLOCK
70
0
0
LTYPE
5
15
100
AcDbSymbolTableRecord
100
AcDbLinetypeTableRecord
2
BYLAYER
70
0
0
LTYPE
5
16
100
AcDbSymbolTableRecord
100
AcDbLinetypeTableRecord
2
DASHED
70
0
3
Dashed __ __ __ __ __ __ __ __ __ __ __ __ __ _
72
65
73
2
40
0.75
49
0.5
74
0
49
-0.25
74
0
0
ENDTAB
0
TABLE
2
LAYER
5
2
100
AcDbSymbolTable
70
2
0
LAYER
5
50
100
AcDbSymbolTableRecord
100
AcDbLayerTableRecord
2
0
70
0
62
7
6
CONTINUOUS
0
ENDTAB
0
TABLE
2
STYLE
5
3
100
AcDbSymbolTable
70
1
0
STYLE
5
11
100
AcDbSymbolTableRecord
100
AcDbTextStyleTableRecord
2
STANDARD
70
0
0
ENDTAB
0
TABLE
2
VIEW
5
6
100
AcDbSymbolTable
70
0
0
ENDTAB
0
TABLE
2
UCS
5
7
100
AcDbSymbolTable
70
0
0
ENDTAB
0
TABLE
2
APPID
5
9
100
AcDbSymbolTable
70
2
0
APPID
5
12
100
AcDbSymbolTableRecord
100
AcDbRegAppTableRecord
2
ACAD
70
0
0
ENDTAB
0
TABLE
2
DIMSTYLE
5
A
100
AcDbSymbolTable
70
1
0
ENDTAB
0
TABLE
2
BLOCK_RECORD
5
1
100
AcDbSymbolTable
70
1
0
BLOCK_RECORD
5
1F
100
AcDbSymbolTableRecord
100
AcDbBlockTableRecord
2
*MODEL_SPACE
0
BLOCK_RECORD
5
1B
100
AcDbSymbolTableRecord
100
AcDbBlockTableRecord
2
*PAPER_SPACE
0
ENDTAB
0
ENDSEC
0
SECTION
2
BLOCKS
0
BLOCK
5
20
100
AcDbEntity
100
AcDbBlockBegin
2
*MODEL_SPACE
0
ENDBLK
5
21
100
AcDbEntity
100
AcDbBlockEnd
0
BLOCK
5
1C
100
AcDbEntity
100
AcDbBlockBegin
2
*PAPER_SPACE
0
ENDBLK
5
1D
100
AcDbEntity
100
AcDbBlockEnd
0
ENDSEC
0
SECTION
2
ENTITIES
0
CIRCLE
5
100
100
AcDbEntity
8
0
100
AcDbCircle
10
182.20300000000006
20
62.776600000000009
30
0
40
2.5000000000000062
210
0
220
0
230
1
0
LINE
5
101
100
AcDbEntity
8
0
100
AcDbLine
10
182.20300000000006
20
62.776600000000009
30
0
11
126.69970000000001
21
62.776600000000009
31
0
0
LINE
5
102
100
AcDbEntity
8
0
100
AcDbLine
10
154.45134999999999
20
53.922268168559036
30
0
11
154.45134999999999
21
91.000001356005683
31
0
0
LINE
5
103
100
AcDbEntity
8
0
100
AcDbLine
10
266.17315618637014
20
36.292016686742869
30
0
11
281.75170929495482
21
77.958749675243524
31
0
0
LINE
5
104
100
AcDbEntity
8
0
100
AcDbLine
10
161.41198853796652
20
48.020377237144501
30
0
11
207.24973246158282
21
28.756538870016712
31
0
0
LINE
5
105
100
AcDbEntity
8
0
100
AcDbLine
10
213.82001210395615
20
27.604179880803375
30
0
11
257.31224678187675
21
29.806891005636093
31
0
0
LINE
5
106
100
AcDbEntity
8
0
100
AcDbLine
10
274.56182824014934
20
96.551186894521081
30
0
11
198.84089256092682
21
135.49325027468547
31
0
0
LINE
5
107
100
AcDbEntity
8
0
100
AcDbLine
10
197.13527587548583
20
136.51889519928142
30
0
11
177.5161647986246
21
150.16662053473618
31
0
0
LINE
5
108
100
AcDbEntity
8
0
100
AcDbLine
10
166.09507350614277
20
153.74837843368289
30
0
11
156.43232339956981
21
153.74837843368289
31
0
0
ARC
5
109
100
AcDbEntity
8
0
100
AcDbCircle
10
213.06129337197049
20
42.584979121355673
30
0
40
14.999999999999922
210
0
220
0
230
1
100
AcDbArc
50
247.20485974099938
51
272.89932928037877
0
ARC
5
110
100
AcDbEntity
8
0
100
AcDbCircle
10
256.80643429388635
20
39.794090499337493
30
0
40
9.9999999999998259
210
0
220
0
230
1
100
AcDbArc
50
272.89932928037854
51
339.49999999999989
0
ARC
5
111
100
AcDbEntity
8
0
100
AcDbCircle
10
267.70162645622889
20
83.211860394135471
30
0
40
14.999999999999918
210
0
220
0
230
1
100
AcDbArc
50
-20.499999999999794
51
62.783967498527396
0
ARC
5
112
100
AcDbEntity
8
0
100
AcDbCircle
10
205.70109434484752
20
148.8325767750718
30
0
40
15.00000000000059
210
0
220
0
230
1
100
AcDbArc
50
235.17620346448737
51
242.78396749852777
0
ARC
5
113
100
AcDbEntity
8
0
100
AcDbCircle
10
166.09507350614308
20
133.74837843368368
30
0
40
19.99999999999925
210
0
220
-0
230
1
100
AcDbArc
50
55.176203464486882
51
90.000000000000909
0
LINE
5
114
100
AcDbEntity
8
0
100
AcDbLine
10
147.49071146203323
20
48.020377237144558
30
0
11
101.65296748398787
21
28.756538847142146
31
0
0
ARC
5
115
100
AcDbEntity
8
0
100
AcDbCircle
10
95.841406628029489
20
42.584979121355673
30
0
40
14.999999999999931
210
0
220
0
230
1
100
AcDbArc
50
267.10067071962163
51
292.79514003348208
0
LINE
5
116
100
AcDbEntity
8
0
100
AcDbLine
10
95.082687896043936
20
27.604179880803379
30
0
11
51.590453218123251
21
29.806891005636093
31
0
0
ARC
5
117
100
AcDbEntity
8
0
100
AcDbCircle
10
52.09626570611362
20
39.794090499337493
30
0
40
9.9999999999998153
210
0
220
0
230
1
100
AcDbArc
50
200.5
51
267.10067071962163
0
LINE
5
118
100
AcDbEntity
8
0
100
AcDbLine
10
42.729543813629817
20
36.292016686742883
30
0
11
27.150990705045292
21
77.958749675243524
31
0
0
ARC
5
119
100
AcDbEntity
8
0
100
AcDbCircle
10
41.201073543771045
20
83.211860394135471
30
0
40
14.999999999999787
210
0
220
0
230
1
100
AcDbArc
50
117.21603250147244
51
200.50000000000006
0
LINE
5
120
100
AcDbEntity
8
0
100
AcDbLine
10
34.340871759850664
20
96.551186894521067
30
0
11
110.06180743907322
21
135.49325027468547
31
0
0
ARC
5
121
100
AcDbEntity
8
0
100
AcDbCircle
10
103.20160565515251
20
148.8325767750718
30
0
40
15.000000000000606
210
0
220
0
230
1
100
AcDbArc
50
297.21603250147223
51
304.82379653551243
0
LINE
5
122
100
AcDbEntity
8
0
100
AcDbLine
10
111.76742412451416
20
136.51889519928136
30
0
11
131.38653520137541
21
150.16662053473618
31
0
0
ARC
5
123
100
AcDbEntity
8
0
100
AcDbCircle
10
142.8076264938569
20
133.74837843368368
30
0
40
19.999999999999218
210
0
220
-0
230
1
100
AcDbArc
50
89.999999999999119
51
124.82379653551307
0
LINE
5
124
100
AcDbEntity
8
0
100
AcDbLine
10
142.80762649385721
20
153.74837843368289
30
0
11
152.47037660043017
21
153.74837843368289
31
0
0
LINE
5
125
100
AcDbEntity
8
0
100
AcDbLine
10
156.43232339956981
20
153.74837843368289
30
0
11
152.47037660043017
21
153.74837843368289
31
0
0
LINE
5
126
100
AcDbEntity
8
0
100
AcDbLine
10
160.79942592836375
20
48.942273255425413
30
0
11
160.79942592836369
21
80.424096616428471
31
0
0
LINE
5
127
100
AcDbEntity
8
0
100
AcDbLine
10
159.79942592836369
20
81.424096616428457
30
0
11
154.45134999999999
21
81.424096616428457
31
0
0
LINE
5
128
100
AcDbEntity
8
0
100
AcDbLine
10
148.10327407163635
20
81.424096616428457
30
0
11
154.45134999999999
21
81.424096616428457
31
0
0
ARC
5
129
100
AcDbEntity
8
0
100
AcDbCircle
10
161.79942592836383
20
48.942273255425462
30
0
40
1.0000000000000853
210
0
220
0
230
1
100
AcDbArc
50
180
51
247.20485996651473
0
ARC
5
130
100
AcDbEntity
8
0
100
AcDbCircle
10
159.79942592836372
20
80.4240966164285
30
0
40
0.99999999999996092
210
0
220
0
230
1
100
AcDbArc
50
0
51
90.000000000001634
0
LINE
5
131
100
AcDbEntity
8
0
100
AcDbLine
10
148.10327407163626
20
48.942273255425413
30
0
11
148.10327407163635
21
80.424096616428471
31
0
0
ARC
5
132
100
AcDbEntity
8
0
100
AcDbCircle
10
149.10327407163629
20
80.4240966164285
30
0
40
0.99999999999996092
210
0
220
-0
230
1
100
AcDbArc
50
89.99999999999838
51
180
0
ARC
5
133
100
AcDbEntity
8
0
100
AcDbCircle
10
147.10327407163618
20
48.942273255425462
30
0
40
1.0000000000000835
210
0
220
0
230
1
100
AcDbArc
50
292.79514003348527
51
360
0
ENDSEC
0
SECTION
2
OBJECTS
0
DICTIONARY
5
C
100
AcDbDictionary
3
ACAD_GROUP
350
D
3
ACAD_MLINESTYLE
350
17
0
DICTIONARY
5
D
100
AcDbDictionary
0
DICTIONARY
5
1A
330
C
100
AcDbDictionary
0
DICTIONARY
5
17
100
AcDbDictionary
0
ENDSEC
0
EOF
